<svg width="268" height="64" viewBox="0 0 268 64" fill="none" xmlns="http://www.w3.org/2000/svg">
<path d="M48 32C51.9333 37.3333 55.9333 42.6667 63.8 42.6667C69.8 42.6667 74.6667 37.8667 74.6667 32" stroke="url(#paint0_linear)" stroke-width="6" stroke-miterlimit="10"/>
<path d="M21.3333 32C21.3333 26.1334 26.1999 21.3334 32.1999 21.3334C40.0666 21.3334 44.0666 26.6667 47.9999 32" stroke="url(#paint1_linear)" stroke-width="6" stroke-miterlimit="10"/>
<path d="M74.6666 32C74.6666 26.1334 69.7999 21.3334 63.7999 21.3334C55.9333 21.3334 51.9333 26.6667 47.9999 32C44.0666 37.3334 40.0666 42.6667 32.1999 42.6667C26.1999 42.6667 21.3333 37.8667 21.3333 32" stroke="url(#paint2_linear)" stroke-width="6" stroke-miterlimit="10"/>
<g clip-path="url(#clip0)">
<path d="M96 45.9393V18H99.6619V42.295H111.105V45.9393H96ZM114.781 23.8308V19.9436H118.443V23.8308H114.781ZM114.781 45.9393V25.7744H118.443V45.9393H114.781ZM164.257 23.8308V19.9436H167.919V23.8308H164.257ZM164.257 45.9393V25.7744H167.919V45.9393H164.257ZM138.997 33.1236C138.883 32.3341 138.711 31.4837 138.425 30.6334C138.139 29.7831 137.681 28.9935 137.166 28.2646C136.594 27.5358 135.907 26.9284 134.992 26.5033C134.076 26.0781 132.989 25.8351 131.673 25.8351C129.957 25.8351 128.526 26.1996 127.325 26.9892C126.753 27.3536 126.295 27.7787 125.837 28.2646V25.8351H122.175V46H125.837V35.9783H125.894C125.894 34.7636 126.009 33.7918 126.295 32.9414C126.524 32.0911 126.867 31.423 127.325 30.9371C127.783 30.4512 128.297 30.0868 128.87 29.8438C129.442 29.6009 130.071 29.4794 130.758 29.4794C131.788 29.4794 132.589 29.7223 133.218 30.1475C133.848 30.5727 134.305 31.18 134.706 31.8482C135.049 32.577 135.278 33.3059 135.392 34.1562C135.507 35.0065 135.564 35.7961 135.564 36.5857V46H139.283V35.2495C139.169 34.6421 139.112 33.9132 138.997 33.1236ZM231.47 33.1236C231.356 32.3341 231.184 31.4837 230.898 30.6334C230.612 29.7831 230.154 28.9935 229.639 28.2646C229.067 27.5358 228.381 26.9284 227.465 26.5033C226.55 26.0781 225.463 25.8351 224.147 25.8351C222.43 25.8351 221 26.1996 219.798 26.9892C219.226 27.3536 218.768 27.7787 218.31 28.2646V25.8351H214.648V46H218.31V35.9783H218.368C218.368 34.7636 218.482 33.7918 218.768 32.9414C218.997 32.0911 219.34 31.423 219.798 30.9371C220.256 30.4512 220.771 30.0868 221.343 29.8438C221.915 29.6009 222.544 29.4794 223.231 29.4794C224.261 29.4794 225.062 29.7223 225.691 30.1475C226.321 30.5727 226.779 31.18 227.122 31.8482C227.465 32.577 227.694 33.3059 227.808 34.1562C227.923 35.0065 227.98 35.7961 227.98 36.5857V46H231.699V35.2495C231.642 34.6421 231.585 33.9132 231.47 33.1236ZM159.094 36.8894H160.925C161.039 34.5813 160.81 32.6377 160.124 30.9371C159.437 29.2972 158.407 27.961 157.091 27.1106C155.718 26.1996 154.059 25.7744 152.171 25.7744C150.34 25.7744 148.68 26.1996 147.307 27.0499C145.934 27.9002 144.847 29.0542 144.046 30.6334C143.245 32.1518 142.901 33.974 142.901 36.039C142.901 37.9826 143.302 39.744 144.103 41.2625C144.904 42.7809 145.991 43.9349 147.422 44.7245C148.852 45.5748 150.511 46 152.399 46C154.23 46 155.89 45.5141 157.435 44.603C158.922 43.692 160.067 42.3558 160.81 40.6551L157.206 39.5011C156.748 40.4729 156.061 41.2625 155.26 41.7484C154.402 42.295 153.429 42.538 152.285 42.538C150.511 42.538 149.195 41.9913 148.28 40.8373C147.536 39.8655 147.078 38.59 146.964 37.0108H157.435H159.094V36.8894ZM148.108 30.8156C149.024 29.6616 150.397 29.0542 152.228 29.0542C153.887 29.0542 155.146 29.6009 155.947 30.6334C156.519 31.3623 156.92 32.4555 157.091 33.7918H146.849C147.078 32.577 147.536 31.6052 148.108 30.8156ZM180.406 45.9393C178.46 45.9393 176.801 45.5141 175.428 44.603C174.054 43.7527 173.024 42.538 172.281 41.0195C171.537 39.5011 171.194 37.7397 171.194 35.8568C171.194 33.9132 171.594 32.1518 172.338 30.6334C173.082 29.115 174.112 27.9002 175.485 27.0499C176.858 26.1996 178.517 25.7744 180.406 25.7744C182.465 25.7744 184.239 26.321 185.727 27.3536C187.214 28.3861 188.187 29.8438 188.645 31.6052L184.983 32.6377C184.64 31.5445 184.01 30.7549 183.209 30.1475C182.408 29.5401 181.436 29.2364 180.348 29.2364C179.147 29.2364 178.174 29.5401 177.373 30.0868C176.572 30.6334 176 31.423 175.657 32.4555C175.256 33.4273 175.084 34.5813 175.084 35.8568C175.084 37.8004 175.542 39.4403 176.458 40.6551C177.316 41.8699 178.632 42.4772 180.406 42.4772C181.607 42.4772 182.523 42.1735 183.266 41.6269C184.01 41.0803 184.582 40.2907 184.926 39.2581L188.645 40.1692C188.016 42.0521 186.986 43.449 185.555 44.4816C184.182 45.4534 182.408 45.9393 180.406 45.9393ZM201.647 45.9393C199.758 45.9393 198.099 45.5141 196.726 44.6638C195.353 43.8134 194.266 42.5987 193.522 41.0803C192.778 39.5618 192.377 37.8004 192.377 35.8568C192.377 33.8525 192.778 32.0911 193.522 30.5727C194.323 29.0542 195.353 27.9002 196.783 27.0499C198.156 26.1996 199.816 25.7744 201.647 25.7744C203.535 25.7744 205.194 26.1996 206.567 27.0499C207.941 27.9002 209.028 29.115 209.829 30.6334C210.573 32.1518 210.973 33.9132 210.973 35.8568C210.973 37.8612 210.573 39.6226 209.829 41.141C209.085 42.6594 207.998 43.8135 206.567 44.7245C205.137 45.5141 203.535 45.9393 201.647 45.9393ZM201.647 42.4772C203.478 42.4772 204.794 41.8699 205.709 40.6551C206.625 39.4403 207.082 37.8612 207.082 35.8568C207.082 33.8525 206.625 32.2733 205.709 31.0586C204.794 29.8438 203.478 29.2364 201.647 29.2364C200.388 29.2364 199.415 29.5401 198.614 30.0868C197.813 30.6334 197.241 31.423 196.84 32.3948C196.44 33.3666 196.268 34.5206 196.268 35.7961C196.268 37.8004 196.726 39.3796 197.641 40.5944C198.5 41.8699 199.873 42.4772 201.647 42.4772ZM243.557 45.9393C241.268 45.9393 239.38 45.4534 237.892 44.4208C236.462 43.3883 235.546 41.9306 235.203 40.1085L238.979 39.5011C239.208 40.4729 239.78 41.2625 240.581 41.8699C241.44 42.4165 242.47 42.7202 243.728 42.7202C244.873 42.7202 245.788 42.4772 246.418 41.9913C247.047 41.5054 247.39 40.8981 247.39 40.0477C247.39 39.5618 247.276 39.1974 247.047 38.8937C246.818 38.59 246.36 38.2863 245.617 38.0434C244.873 37.8004 243.786 37.436 242.298 37.0108C240.696 36.5857 239.38 36.0998 238.407 35.6139C237.434 35.128 236.748 34.5206 236.347 33.9132C235.947 33.2451 235.718 32.4555 235.718 31.5445C235.718 30.3905 236.004 29.3579 236.633 28.5076C237.263 27.6573 238.121 26.9892 239.208 26.5033C240.295 26.0174 241.611 25.7744 243.099 25.7744C244.529 25.7744 245.845 26.0174 246.99 26.4425C248.134 26.9284 249.05 27.5358 249.736 28.3861C250.423 29.2364 250.881 30.2082 250.995 31.3623L247.219 32.0304C247.104 31.1193 246.646 30.3905 245.96 29.8438C245.216 29.2972 244.301 28.9935 243.156 28.9935C242.069 28.9328 241.154 29.115 240.467 29.5401C239.78 29.9653 239.437 30.5119 239.437 31.2408C239.437 31.6659 239.551 32.0304 239.838 32.3341C240.124 32.6377 240.639 32.9414 241.382 33.1844C242.126 33.4273 243.271 33.7918 244.758 34.1562C246.36 34.5813 247.619 35.0065 248.535 35.5531C249.45 36.039 250.137 36.6464 250.537 37.3145C250.938 37.9826 251.167 38.833 251.167 39.8048C251.167 41.6876 250.48 43.2061 249.107 44.2386C247.848 45.3926 245.96 45.9393 243.557 45.9393Z" fill="black"/>
</g>
<defs>
<linearGradient id="paint0_linear" x1="47.9996" y1="37.35" x2="74.6667" y2="37.35" gradientUnits="userSpaceOnUse">
<stop stop-color="#003FFF"/>
<stop offset="0.6883" stop-color="#690AFF"/>
</linearGradient>
<linearGradient id="paint1_linear" x1="21.3333" y1="26.6667" x2="48.0204" y2="26.6667" gradientUnits="userSpaceOnUse">
<stop offset="0.2862" stop-color="#E843A1"/>
<stop offset="1" stop-color="#003FFF"/>
</linearGradient>
<linearGradient id="paint2_linear" x1="21.3333" y1="32" x2="74.6874" y2="32" gradientUnits="userSpaceOnUse">
<stop offset="0.16" stop-color="#E843A1"/>
<stop offset="0.84" stop-color="#690AFF"/>
</linearGradient>
<clipPath id="clip0">
<rect width="155.167" height="28" fill="white" transform="translate(96 18)"/>
</clipPath>
</defs>
</svg>
