<?xml version="1.0" encoding="utf-8"?>
<!-- Generator: Adobe Illustrator 21.0.0, SVG Export Plug-In . SVG Version: 6.00 Build 0)  -->
<svg version="1.1" id="Layer_1" xmlns="http://www.w3.org/2000/svg" xmlns:xlink="http://www.w3.org/1999/xlink" x="0px" y="0px"
	 viewBox="0 0 200 254" style="enable-background:new 0 0 200 254;" xml:space="preserve">
<style type="text/css">
	.st0{fill:#E4E7EB;}
</style>
<path class="st0" d="M24,7.6c-0.9,0-1.5-0.7-1.6-1.5s0.7-1.5,1.5-1.6c0.8-0.1,1.5,0.7,1.6,1.5l0,0C25.5,6.9,24.8,7.6,24,7.6z
	 M24,15.8c-0.9,0-1.5-0.7-1.6-1.5s0.7-1.5,1.5-1.6s1.5,0.7,1.6,1.5l0,0C25.5,15.1,24.8,15.8,24,15.8L24,15.8z M24,24.1
	c-0.9,0-1.5-0.7-1.6-1.5s0.7-1.5,1.5-1.6s1.5,0.7,1.6,1.5l0,0C25.5,23.4,24.8,24,24,24.1z M24,32.3c-0.9,0-1.5-0.7-1.6-1.5
	s0.7-1.5,1.5-1.6s1.5,0.7,1.6,1.5l0,0C25.5,31.6,24.8,32.3,24,32.3L24,32.3z M24,40.5c-0.9,0-1.5-0.7-1.6-1.5s0.7-1.5,1.5-1.6
	s1.5,0.7,1.6,1.5l0,0C25.5,39.8,24.8,40.5,24,40.5z M16,7.6c-0.9,0-1.5-0.7-1.5-1.5s0.7-1.5,1.5-1.5c0.9,0,1.5,0.7,1.5,1.5l0,0
	C17.5,6.9,16.9,7.6,16,7.6L16,7.6L16,7.6z M16,15.8c-0.9,0-1.5-0.7-1.5-1.5s0.7-1.5,1.5-1.5c0.9,0,1.5,0.7,1.5,1.5l0,0
	C17.5,15.1,16.9,15.8,16,15.8L16,15.8z M16,24c-0.9,0-1.5-0.7-1.5-1.5S15.1,21,16,21s1.5,0.7,1.5,1.5l0,0C17.5,23.4,16.9,24,16,24
	C16,24.1,16,24.1,16,24L16,24z M16,32.3c-0.9,0-1.5-0.7-1.5-1.5s0.7-1.5,1.5-1.5c0.9,0,1.5,0.7,1.5,1.5l0,0
	C17.5,31.6,16.9,32.3,16,32.3L16,32.3L16,32.3z M16,40.5c-0.9,0-1.5-0.7-1.5-1.5s0.7-1.5,1.5-1.5c0.9,0,1.5,0.7,1.5,1.5l0,0
	C17.5,39.8,16.9,40.5,16,40.5L16,40.5L16,40.5z M8,7.6c-0.9,0-1.5-0.7-1.5-1.5S7.2,4.6,8,4.6c0.9,0,1.5,0.7,1.5,1.5l0,0
	C9.6,6.9,8.9,7.6,8,7.6L8,7.6L8,7.6z M8,15.8c-0.9,0-1.5-0.7-1.5-1.5s0.7-1.5,1.5-1.5c0.9,0,1.5,0.7,1.5,1.5l0,0
	C9.6,15.1,8.9,15.8,8,15.8L8,15.8L8,15.8z M8,24c-0.9,0-1.5-0.7-1.5-1.5S7.2,21,8,21c0.9,0,1.5,0.7,1.5,1.5l0,0
	C9.6,23.4,8.9,24,8,24C8,24.1,8,24.1,8,24L8,24z M8,32.3c-0.9,0-1.5-0.7-1.5-1.5s0.7-1.5,1.5-1.5c0.9,0,1.5,0.7,1.5,1.5l0,0
	C9.6,31.6,8.9,32.3,8,32.3L8,32.3L8,32.3z M8,40.5c-0.9,0-1.5-0.7-1.5-1.5s0.7-1.5,1.5-1.5c0.9,0,1.5,0.7,1.5,1.5l0,0
	C9.6,39.8,8.9,40.5,8,40.5L8,40.5L8,40.5z M24,48.6c-0.9,0-1.5-0.7-1.6-1.5s0.7-1.5,1.5-1.6s1.5,0.7,1.6,1.5l0,0
	C25.5,47.9,24.8,48.6,24,48.6L24,48.6L24,48.6z M24,56.8c-0.9,0-1.5-0.7-1.6-1.5s0.7-1.5,1.5-1.6s1.5,0.7,1.6,1.5l0,0
	C25.5,56.2,24.8,56.8,24,56.8C24,56.9,24,56.9,24,56.8L24,56.8z M24,65.1c-0.9,0-1.5-0.7-1.6-1.5c-0.1-0.8,0.7-1.5,1.5-1.6
	s1.5,0.7,1.6,1.5l0,0C25.5,64.4,24.8,65.1,24,65.1L24,65.1z M24,73.3c-0.9,0-1.5-0.7-1.6-1.5s0.7-1.5,1.5-1.6s1.5,0.7,1.6,1.5l0,0
	C25.5,72.6,24.8,73.3,24,73.3L24,73.3L24,73.3z M24,81.5c-0.9,0-1.5-0.7-1.6-1.5s0.7-1.5,1.5-1.6s1.5,0.7,1.6,1.5l0,0
	C25.5,80.8,24.8,81.5,24,81.5L24,81.5L24,81.5z M16,48.6c-0.9,0-1.5-0.7-1.5-1.5s0.7-1.5,1.5-1.5c0.9,0,1.5,0.7,1.5,1.5l0,0
	C17.5,47.9,16.9,48.6,16,48.6L16,48.6z M16,56.8c-0.9,0-1.5-0.7-1.5-1.5s0.7-1.5,1.5-1.5c0.9,0,1.5,0.7,1.5,1.5l0,0
	C17.5,56.2,16.9,56.8,16,56.8C16,56.9,16,56.9,16,56.8L16,56.8z M16,65.1c-0.9,0-1.5-0.7-1.5-1.5c0-0.8,0.6-1.6,1.5-1.6
	s1.5,0.7,1.5,1.5l0,0C17.5,64.4,16.9,65.1,16,65.1L16,65.1L16,65.1z M16,73.3c-0.9,0-1.5-0.7-1.5-1.5s0.7-1.5,1.5-1.5
	c0.9,0,1.5,0.7,1.5,1.5l0,0C17.5,72.6,16.9,73.3,16,73.3L16,73.3L16,73.3z M16,81.5c-0.9,0-1.5-0.7-1.5-1.5s0.7-1.5,1.5-1.5
	c0.9,0,1.5,0.7,1.5,1.5l0,0C17.5,80.8,16.9,81.5,16,81.5L16,81.5L16,81.5z M8,48.6c-0.9,0-1.5-0.7-1.5-1.5s0.7-1.5,1.5-1.5
	c0.9,0,1.5,0.7,1.5,1.5l0,0C9.6,47.9,8.9,48.6,8,48.6L8,48.6L8,48.6z M8,56.8c-0.9,0-1.5-0.7-1.5-1.5s0.7-1.5,1.5-1.5
	c0.9,0,1.5,0.7,1.5,1.5l0,0C9.6,56.2,8.9,56.8,8,56.8C8,56.9,8,56.9,8,56.8L8,56.8z M8,65.1c-0.9,0-1.5-0.7-1.5-1.5
	C6.5,62.8,7.2,62,8,62c0.9,0,1.5,0.7,1.5,1.5l0,0C9.6,64.4,8.9,65.1,8,65.1L8,65.1L8,65.1z M8,73.3c-0.9,0-1.5-0.7-1.5-1.5
	s0.7-1.5,1.5-1.5c0.9,0,1.5,0.7,1.5,1.5l0,0C9.6,72.6,8.9,73.3,8,73.3L8,73.3L8,73.3z M8,81.5c-0.9,0-1.5-0.7-1.5-1.5
	s0.7-1.5,1.5-1.5c0.9,0,1.5,0.7,1.5,1.5l0,0C9.6,80.8,8.9,81.5,8,81.5L8,81.5L8,81.5z"/>
<path class="st0" d="M48,7.6c-0.9,0-1.5-0.7-1.6-1.5c-0.1-0.8,0.7-1.5,1.5-1.6c0.8-0.1,1.5,0.7,1.6,1.5l0,0
	C49.5,6.9,48.8,7.6,48,7.6z M48,15.8c-0.9,0-1.5-0.7-1.6-1.5c-0.1-0.8,0.7-1.5,1.5-1.6s1.5,0.7,1.6,1.5l0,0
	C49.5,15.1,48.8,15.8,48,15.8L48,15.8z M48,24.1c-0.9,0-1.5-0.7-1.6-1.5c-0.1-0.8,0.7-1.5,1.5-1.6s1.5,0.7,1.6,1.5l0,0
	C49.5,23.4,48.8,24,48,24.1z M48,32.3c-0.9,0-1.5-0.7-1.6-1.5c-0.1-0.8,0.7-1.5,1.5-1.6s1.5,0.7,1.6,1.5l0,0
	C49.5,31.6,48.8,32.3,48,32.3L48,32.3z M48,40.5c-0.9,0-1.5-0.7-1.6-1.5c-0.1-0.8,0.7-1.5,1.5-1.6s1.5,0.7,1.6,1.5l0,0
	C49.5,39.8,48.8,40.5,48,40.5z M40,7.6c-0.9,0-1.5-0.7-1.5-1.5s0.7-1.5,1.5-1.5c0.9,0,1.5,0.7,1.5,1.5l0,0C41.5,6.9,40.9,7.6,40,7.6
	L40,7.6L40,7.6z M40,15.8c-0.9,0-1.5-0.7-1.5-1.5s0.7-1.5,1.5-1.5c0.9,0,1.5,0.7,1.5,1.5l0,0C41.5,15.1,40.9,15.8,40,15.8L40,15.8z
	 M40,24c-0.9,0-1.5-0.7-1.5-1.5S39.1,21,40,21c0.9,0,1.5,0.7,1.5,1.5l0,0C41.5,23.4,40.9,24,40,24C40,24.1,40,24.1,40,24L40,24z
	 M40,32.3c-0.9,0-1.5-0.7-1.5-1.5s0.7-1.5,1.5-1.5c0.9,0,1.5,0.7,1.5,1.5l0,0C41.5,31.6,40.9,32.3,40,32.3L40,32.3L40,32.3z
	 M40,40.5c-0.9,0-1.5-0.7-1.5-1.5s0.7-1.5,1.5-1.5c0.9,0,1.5,0.7,1.5,1.5l0,0C41.5,39.8,40.9,40.5,40,40.5L40,40.5L40,40.5z M32,7.6
	c-0.9,0-1.5-0.7-1.5-1.5s0.7-1.5,1.5-1.5c0.9,0,1.5,0.7,1.5,1.5l0,0C33.6,6.9,32.9,7.6,32,7.6L32,7.6L32,7.6z M32,15.8
	c-0.9,0-1.5-0.7-1.5-1.5s0.7-1.5,1.5-1.5c0.9,0,1.5,0.7,1.5,1.5l0,0C33.6,15.1,32.9,15.8,32,15.8L32,15.8L32,15.8z M32,24
	c-0.9,0-1.5-0.7-1.5-1.5S31.2,21,32,21c0.9,0,1.5,0.7,1.5,1.5l0,0C33.6,23.4,32.9,24,32,24C32,24.1,32,24.1,32,24L32,24z M32,32.3
	c-0.9,0-1.5-0.7-1.5-1.5s0.7-1.5,1.5-1.5c0.9,0,1.5,0.7,1.5,1.5l0,0C33.6,31.6,32.9,32.3,32,32.3L32,32.3L32,32.3z M32,40.5
	c-0.9,0-1.5-0.7-1.5-1.5s0.7-1.5,1.5-1.5c0.9,0,1.5,0.7,1.5,1.5l0,0C33.6,39.8,32.9,40.5,32,40.5L32,40.5L32,40.5z M48,48.6
	c-0.9,0-1.5-0.7-1.6-1.5c-0.1-0.8,0.7-1.5,1.5-1.6s1.5,0.7,1.6,1.5l0,0C49.5,47.9,48.8,48.6,48,48.6L48,48.6L48,48.6z M48,56.8
	c-0.9,0-1.5-0.7-1.6-1.5c-0.1-0.8,0.7-1.5,1.5-1.6s1.5,0.7,1.6,1.5l0,0C49.5,56.2,48.8,56.8,48,56.8C48,56.9,48,56.9,48,56.8
	L48,56.8z M48,65.1c-0.9,0-1.5-0.7-1.6-1.5c-0.1-0.8,0.7-1.5,1.5-1.6s1.5,0.7,1.6,1.5l0,0C49.5,64.4,48.8,65.1,48,65.1L48,65.1z
	 M48,73.3c-0.9,0-1.5-0.7-1.6-1.5c-0.1-0.8,0.7-1.5,1.5-1.6s1.5,0.7,1.6,1.5l0,0C49.5,72.6,48.8,73.3,48,73.3L48,73.3L48,73.3z
	 M48,81.5c-0.9,0-1.5-0.7-1.6-1.5c-0.1-0.8,0.7-1.5,1.5-1.6s1.5,0.7,1.6,1.5l0,0C49.5,80.8,48.8,81.5,48,81.5L48,81.5L48,81.5z
	 M40,48.6c-0.9,0-1.5-0.7-1.5-1.5s0.7-1.5,1.5-1.5c0.9,0,1.5,0.7,1.5,1.5l0,0C41.5,47.9,40.9,48.6,40,48.6L40,48.6z M40,56.8
	c-0.9,0-1.5-0.7-1.5-1.5s0.7-1.5,1.5-1.5c0.9,0,1.5,0.7,1.5,1.5l0,0C41.5,56.2,40.9,56.8,40,56.8C40,56.9,40,56.9,40,56.8L40,56.8z
	 M40,65.1c-0.9,0-1.5-0.7-1.5-1.5c0-0.8,0.6-1.6,1.5-1.6c0.9,0,1.5,0.7,1.5,1.5l0,0C41.5,64.4,40.9,65.1,40,65.1L40,65.1L40,65.1z
	 M40,73.3c-0.9,0-1.5-0.7-1.5-1.5s0.7-1.5,1.5-1.5c0.9,0,1.5,0.7,1.5,1.5l0,0C41.5,72.6,40.9,73.3,40,73.3L40,73.3L40,73.3z
	 M40,81.5c-0.9,0-1.5-0.7-1.5-1.5s0.7-1.5,1.5-1.5c0.9,0,1.5,0.7,1.5,1.5l0,0C41.5,80.8,40.9,81.5,40,81.5L40,81.5L40,81.5z
	 M32,48.6c-0.9,0-1.5-0.7-1.5-1.5s0.7-1.5,1.5-1.5c0.9,0,1.5,0.7,1.5,1.5l0,0C33.6,47.9,32.9,48.6,32,48.6L32,48.6L32,48.6z
	 M32,56.8c-0.9,0-1.5-0.7-1.5-1.5s0.7-1.5,1.5-1.5c0.9,0,1.5,0.7,1.5,1.5l0,0C33.6,56.2,32.9,56.8,32,56.8C32,56.9,32,56.9,32,56.8
	L32,56.8z M32,65.1c-0.9,0-1.5-0.7-1.5-1.5c0-0.8,0.7-1.6,1.5-1.6c0.9,0,1.5,0.7,1.5,1.5l0,0C33.6,64.4,32.9,65.1,32,65.1L32,65.1
	L32,65.1z M32,73.3c-0.9,0-1.5-0.7-1.5-1.5s0.7-1.5,1.5-1.5c0.9,0,1.5,0.7,1.5,1.5l0,0C33.6,72.6,32.9,73.3,32,73.3L32,73.3L32,73.3
	z M32,81.5c-0.9,0-1.5-0.7-1.5-1.5s0.7-1.5,1.5-1.5c0.9,0,1.5,0.7,1.5,1.5l0,0C33.6,80.8,32.9,81.5,32,81.5L32,81.5L32,81.5z"/>
<path class="st0" d="M72,7.6c-0.9,0-1.5-0.7-1.6-1.5s0.7-1.5,1.5-1.6c0.8-0.1,1.5,0.7,1.6,1.5l0,0C73.5,6.9,72.8,7.6,72,7.6z
	 M72,15.8c-0.9,0-1.5-0.7-1.6-1.5s0.7-1.5,1.5-1.6c0.8-0.1,1.5,0.7,1.6,1.5l0,0C73.5,15.1,72.8,15.8,72,15.8L72,15.8z M72,24.1
	c-0.9,0-1.5-0.7-1.6-1.5s0.7-1.5,1.5-1.6c0.8-0.1,1.5,0.7,1.6,1.5l0,0C73.5,23.4,72.8,24,72,24.1z M72,32.3c-0.9,0-1.5-0.7-1.6-1.5
	s0.7-1.5,1.5-1.6c0.8-0.1,1.5,0.7,1.6,1.5l0,0C73.5,31.6,72.8,32.3,72,32.3L72,32.3z M72,40.5c-0.9,0-1.5-0.7-1.6-1.5
	s0.7-1.5,1.5-1.6c0.8-0.1,1.5,0.7,1.6,1.5l0,0C73.5,39.8,72.8,40.5,72,40.5z M64,7.6c-0.9,0-1.5-0.7-1.5-1.5s0.7-1.5,1.5-1.5
	c0.9,0,1.5,0.7,1.5,1.5l0,0C65.5,6.9,64.9,7.6,64,7.6L64,7.6L64,7.6z M64,15.8c-0.9,0-1.5-0.7-1.5-1.5s0.7-1.5,1.5-1.5
	c0.9,0,1.5,0.7,1.5,1.5l0,0C65.5,15.1,64.9,15.8,64,15.8L64,15.8z M64,24c-0.9,0-1.5-0.7-1.5-1.5S63.1,21,64,21s1.5,0.7,1.5,1.5l0,0
	C65.5,23.4,64.9,24,64,24C64,24.1,64,24.1,64,24L64,24z M64,32.3c-0.9,0-1.5-0.7-1.5-1.5s0.7-1.5,1.5-1.5c0.9,0,1.5,0.7,1.5,1.5l0,0
	C65.5,31.6,64.9,32.3,64,32.3L64,32.3L64,32.3z M64,40.5c-0.9,0-1.5-0.7-1.5-1.5s0.7-1.5,1.5-1.5c0.9,0,1.5,0.7,1.5,1.5l0,0
	C65.5,39.8,64.9,40.5,64,40.5L64,40.5L64,40.5z M56,7.6c-0.9,0-1.5-0.7-1.5-1.5s0.7-1.5,1.5-1.5c0.9,0,1.5,0.7,1.5,1.5l0,0
	C57.6,6.9,56.9,7.6,56,7.6L56,7.6L56,7.6z M56,15.8c-0.9,0-1.5-0.7-1.5-1.5s0.7-1.5,1.5-1.5c0.9,0,1.5,0.7,1.5,1.5l0,0
	C57.6,15.1,56.9,15.8,56,15.8L56,15.8L56,15.8z M56,24c-0.9,0-1.5-0.7-1.5-1.5S55.2,21,56,21c0.9,0,1.5,0.7,1.5,1.5l0,0
	C57.6,23.4,56.9,24,56,24C56,24.1,56,24.1,56,24L56,24z M56,32.3c-0.9,0-1.5-0.7-1.5-1.5s0.7-1.5,1.5-1.5c0.9,0,1.5,0.7,1.5,1.5l0,0
	C57.6,31.6,56.9,32.3,56,32.3L56,32.3L56,32.3z M56,40.5c-0.9,0-1.5-0.7-1.5-1.5s0.7-1.5,1.5-1.5c0.9,0,1.5,0.7,1.5,1.5l0,0
	C57.6,39.8,56.9,40.5,56,40.5L56,40.5L56,40.5z M72,48.6c-0.9,0-1.5-0.7-1.6-1.5s0.7-1.5,1.5-1.6c0.8-0.1,1.5,0.7,1.6,1.5l0,0
	C73.5,47.9,72.8,48.6,72,48.6L72,48.6L72,48.6z M72,56.8c-0.9,0-1.5-0.7-1.6-1.5s0.7-1.5,1.5-1.6c0.8-0.1,1.5,0.7,1.6,1.5l0,0
	C73.5,56.2,72.8,56.8,72,56.8C72,56.9,72,56.9,72,56.8L72,56.8z M72,65.1c-0.9,0-1.5-0.7-1.6-1.5c-0.1-0.8,0.7-1.5,1.5-1.6
	c0.8-0.1,1.5,0.7,1.6,1.5l0,0C73.5,64.4,72.8,65.1,72,65.1L72,65.1z M72,73.3c-0.9,0-1.5-0.7-1.6-1.5s0.7-1.5,1.5-1.6
	c0.8-0.1,1.5,0.7,1.6,1.5l0,0C73.5,72.6,72.8,73.3,72,73.3L72,73.3L72,73.3z M72,81.5c-0.9,0-1.5-0.7-1.6-1.5s0.7-1.5,1.5-1.6
	c0.8-0.1,1.5,0.7,1.6,1.5l0,0C73.5,80.8,72.8,81.5,72,81.5L72,81.5L72,81.5z M64,48.6c-0.9,0-1.5-0.7-1.5-1.5s0.7-1.5,1.5-1.5
	c0.9,0,1.5,0.7,1.5,1.5l0,0C65.5,47.9,64.9,48.6,64,48.6L64,48.6z M64,56.8c-0.9,0-1.5-0.7-1.5-1.5s0.7-1.5,1.5-1.5
	c0.9,0,1.5,0.7,1.5,1.5l0,0C65.5,56.2,64.9,56.8,64,56.8C64,56.9,64,56.9,64,56.8L64,56.8z M64,65.1c-0.9,0-1.5-0.7-1.5-1.5
	c0-0.8,0.6-1.6,1.5-1.6s1.5,0.7,1.5,1.5l0,0C65.5,64.4,64.9,65.1,64,65.1L64,65.1L64,65.1z M64,73.3c-0.9,0-1.5-0.7-1.5-1.5
	s0.7-1.5,1.5-1.5c0.9,0,1.5,0.7,1.5,1.5l0,0C65.5,72.6,64.9,73.3,64,73.3L64,73.3L64,73.3z M64,81.5c-0.9,0-1.5-0.7-1.5-1.5
	s0.7-1.5,1.5-1.5c0.9,0,1.5,0.7,1.5,1.5l0,0C65.5,80.8,64.9,81.5,64,81.5L64,81.5L64,81.5z M56,48.6c-0.9,0-1.5-0.7-1.5-1.5
	s0.7-1.5,1.5-1.5c0.9,0,1.5,0.7,1.5,1.5l0,0C57.6,47.9,56.9,48.6,56,48.6L56,48.6L56,48.6z M56,56.8c-0.9,0-1.5-0.7-1.5-1.5
	s0.7-1.5,1.5-1.5c0.9,0,1.5,0.7,1.5,1.5l0,0C57.6,56.2,56.9,56.8,56,56.8C56,56.9,56,56.9,56,56.8L56,56.8z M56,65.1
	c-0.9,0-1.5-0.7-1.5-1.5c0-0.8,0.7-1.6,1.5-1.6c0.9,0,1.5,0.7,1.5,1.5l0,0C57.6,64.4,56.9,65.1,56,65.1L56,65.1L56,65.1z M56,73.3
	c-0.9,0-1.5-0.7-1.5-1.5s0.7-1.5,1.5-1.5c0.9,0,1.5,0.7,1.5,1.5l0,0C57.6,72.6,56.9,73.3,56,73.3L56,73.3L56,73.3z M56,81.5
	c-0.9,0-1.5-0.7-1.5-1.5s0.7-1.5,1.5-1.5c0.9,0,1.5,0.7,1.5,1.5l0,0C57.6,80.8,56.9,81.5,56,81.5L56,81.5L56,81.5z"/>
<path class="st0" d="M96,7.6c-0.9,0-1.5-0.7-1.6-1.5s0.7-1.5,1.5-1.6c0.8-0.1,1.5,0.7,1.6,1.5l0,0C97.5,6.9,96.8,7.6,96,7.6z
	 M96,15.8c-0.9,0-1.5-0.7-1.6-1.5s0.7-1.5,1.5-1.6c0.8-0.1,1.5,0.7,1.6,1.5l0,0C97.5,15.1,96.8,15.8,96,15.8L96,15.8z M96,24.1
	c-0.9,0-1.5-0.7-1.6-1.5s0.7-1.5,1.5-1.6c0.8-0.1,1.5,0.7,1.6,1.5l0,0C97.5,23.4,96.8,24,96,24.1z M96,32.3c-0.9,0-1.5-0.7-1.6-1.5
	s0.7-1.5,1.5-1.6c0.8-0.1,1.5,0.7,1.6,1.5l0,0C97.5,31.6,96.8,32.3,96,32.3L96,32.3z M96,40.5c-0.9,0-1.5-0.7-1.6-1.5
	s0.7-1.5,1.5-1.6c0.8-0.1,1.5,0.7,1.6,1.5l0,0C97.5,39.8,96.8,40.5,96,40.5z M88,7.6c-0.9,0-1.5-0.7-1.5-1.5s0.7-1.5,1.5-1.5
	c0.9,0,1.5,0.7,1.5,1.5l0,0C89.5,6.9,88.9,7.6,88,7.6L88,7.6L88,7.6z M88,15.8c-0.9,0-1.5-0.7-1.5-1.5s0.7-1.5,1.5-1.5
	c0.9,0,1.5,0.7,1.5,1.5l0,0C89.5,15.1,88.9,15.8,88,15.8L88,15.8z M88,24c-0.9,0-1.5-0.7-1.5-1.5S87.1,21,88,21s1.5,0.7,1.5,1.5l0,0
	C89.5,23.4,88.9,24,88,24C88,24.1,88,24.1,88,24L88,24z M88,32.3c-0.9,0-1.5-0.7-1.5-1.5s0.7-1.5,1.5-1.5c0.9,0,1.5,0.7,1.5,1.5l0,0
	C89.5,31.6,88.9,32.3,88,32.3L88,32.3L88,32.3z M88,40.5c-0.9,0-1.5-0.7-1.5-1.5s0.7-1.5,1.5-1.5c0.9,0,1.5,0.7,1.5,1.5l0,0
	C89.5,39.8,88.9,40.5,88,40.5L88,40.5L88,40.5z M80,7.6c-0.9,0-1.5-0.7-1.5-1.5s0.7-1.5,1.5-1.5c0.9,0,1.5,0.7,1.5,1.5l0,0
	C81.6,6.9,80.9,7.6,80,7.6L80,7.6L80,7.6z M80,15.8c-0.9,0-1.5-0.7-1.5-1.5s0.7-1.5,1.5-1.5c0.9,0,1.5,0.7,1.5,1.5l0,0
	C81.6,15.1,80.9,15.8,80,15.8L80,15.8L80,15.8z M80,24c-0.9,0-1.5-0.7-1.5-1.5S79.2,21,80,21c0.9,0,1.5,0.7,1.5,1.5l0,0
	C81.6,23.4,80.9,24,80,24C80,24.1,80,24.1,80,24L80,24z M80,32.3c-0.9,0-1.5-0.7-1.5-1.5s0.7-1.5,1.5-1.5c0.9,0,1.5,0.7,1.5,1.5l0,0
	C81.6,31.6,80.9,32.3,80,32.3L80,32.3L80,32.3z M80,40.5c-0.9,0-1.5-0.7-1.5-1.5s0.7-1.5,1.5-1.5c0.9,0,1.5,0.7,1.5,1.5l0,0
	C81.6,39.8,80.9,40.5,80,40.5L80,40.5L80,40.5z M96,48.6c-0.9,0-1.5-0.7-1.6-1.5s0.7-1.5,1.5-1.6c0.8-0.1,1.5,0.7,1.6,1.5l0,0
	C97.5,47.9,96.8,48.6,96,48.6L96,48.6L96,48.6z M96,56.8c-0.9,0-1.5-0.7-1.6-1.5s0.7-1.5,1.5-1.6c0.8-0.1,1.5,0.7,1.6,1.5l0,0
	C97.5,56.2,96.8,56.8,96,56.8C96,56.9,96,56.9,96,56.8L96,56.8z M96,65.1c-0.9,0-1.5-0.7-1.6-1.5c-0.1-0.8,0.7-1.5,1.5-1.6
	c0.8-0.1,1.5,0.7,1.6,1.5l0,0C97.5,64.4,96.8,65.1,96,65.1L96,65.1z M96,73.3c-0.9,0-1.5-0.7-1.6-1.5s0.7-1.5,1.5-1.6
	c0.8-0.1,1.5,0.7,1.6,1.5l0,0C97.5,72.6,96.8,73.3,96,73.3L96,73.3L96,73.3z M96,81.5c-0.9,0-1.5-0.7-1.6-1.5s0.7-1.5,1.5-1.6
	c0.8-0.1,1.5,0.7,1.6,1.5l0,0C97.5,80.8,96.8,81.5,96,81.5L96,81.5L96,81.5z M88,48.6c-0.9,0-1.5-0.7-1.5-1.5s0.7-1.5,1.5-1.5
	c0.9,0,1.5,0.7,1.5,1.5l0,0C89.5,47.9,88.9,48.6,88,48.6L88,48.6z M88,56.8c-0.9,0-1.5-0.7-1.5-1.5s0.7-1.5,1.5-1.5
	c0.9,0,1.5,0.7,1.5,1.5l0,0C89.5,56.2,88.9,56.8,88,56.8C88,56.9,88,56.9,88,56.8L88,56.8z M88,65.1c-0.9,0-1.5-0.7-1.5-1.5
	c0-0.8,0.6-1.6,1.5-1.6s1.5,0.7,1.5,1.5l0,0C89.5,64.4,88.9,65.1,88,65.1L88,65.1L88,65.1z M88,73.3c-0.9,0-1.5-0.7-1.5-1.5
	s0.7-1.5,1.5-1.5c0.9,0,1.5,0.7,1.5,1.5l0,0C89.5,72.6,88.9,73.3,88,73.3L88,73.3L88,73.3z M88,81.5c-0.9,0-1.5-0.7-1.5-1.5
	s0.7-1.5,1.5-1.5c0.9,0,1.5,0.7,1.5,1.5l0,0C89.5,80.8,88.9,81.5,88,81.5L88,81.5L88,81.5z M80,48.6c-0.9,0-1.5-0.7-1.5-1.5
	s0.7-1.5,1.5-1.5c0.9,0,1.5,0.7,1.5,1.5l0,0C81.6,47.9,80.9,48.6,80,48.6L80,48.6L80,48.6z M80,56.8c-0.9,0-1.5-0.7-1.5-1.5
	s0.7-1.5,1.5-1.5c0.9,0,1.5,0.7,1.5,1.5l0,0C81.6,56.2,80.9,56.8,80,56.8C80,56.9,80,56.9,80,56.8L80,56.8z M80,65.1
	c-0.9,0-1.5-0.7-1.5-1.5c0-0.8,0.7-1.6,1.5-1.6c0.9,0,1.5,0.7,1.5,1.5l0,0C81.6,64.4,80.9,65.1,80,65.1L80,65.1L80,65.1z M80,73.3
	c-0.9,0-1.5-0.7-1.5-1.5s0.7-1.5,1.5-1.5c0.9,0,1.5,0.7,1.5,1.5l0,0C81.6,72.6,80.9,73.3,80,73.3L80,73.3L80,73.3z M80,81.5
	c-0.9,0-1.5-0.7-1.5-1.5s0.7-1.5,1.5-1.5c0.9,0,1.5,0.7,1.5,1.5l0,0C81.6,80.8,80.9,81.5,80,81.5L80,81.5L80,81.5z"/>
<path class="st0" d="M120,7.6c-0.9,0-1.5-0.7-1.6-1.5s0.7-1.5,1.5-1.6c0.8-0.1,1.5,0.7,1.6,1.5l0,0C121.5,6.9,120.8,7.6,120,7.6z
	 M120,15.8c-0.9,0-1.5-0.7-1.6-1.5s0.7-1.5,1.5-1.6c0.8-0.1,1.5,0.7,1.6,1.5l0,0C121.5,15.1,120.8,15.8,120,15.8L120,15.8z
	 M120,24.1c-0.9,0-1.5-0.7-1.6-1.5s0.7-1.5,1.5-1.6c0.8-0.1,1.5,0.7,1.6,1.5l0,0C121.5,23.4,120.8,24,120,24.1z M120,32.3
	c-0.9,0-1.5-0.7-1.6-1.5s0.7-1.5,1.5-1.6c0.8-0.1,1.5,0.7,1.6,1.5l0,0C121.5,31.6,120.8,32.3,120,32.3L120,32.3z M120,40.5
	c-0.9,0-1.5-0.7-1.6-1.5s0.7-1.5,1.5-1.6c0.8-0.1,1.5,0.7,1.6,1.5l0,0C121.5,39.8,120.8,40.5,120,40.5z M112,7.6
	c-0.9,0-1.5-0.7-1.5-1.5s0.7-1.5,1.5-1.5c0.9,0,1.5,0.7,1.5,1.5l0,0C113.5,6.9,112.9,7.6,112,7.6L112,7.6L112,7.6z M112,15.8
	c-0.9,0-1.5-0.7-1.5-1.5s0.7-1.5,1.5-1.5c0.9,0,1.5,0.7,1.5,1.5l0,0C113.5,15.1,112.9,15.8,112,15.8L112,15.8z M112,24
	c-0.9,0-1.5-0.7-1.5-1.5s0.6-1.5,1.5-1.5s1.5,0.7,1.5,1.5l0,0C113.5,23.4,112.9,24,112,24C112,24.1,112,24.1,112,24L112,24z
	 M112,32.3c-0.9,0-1.5-0.7-1.5-1.5s0.7-1.5,1.5-1.5c0.9,0,1.5,0.7,1.5,1.5l0,0C113.5,31.6,112.9,32.3,112,32.3L112,32.3L112,32.3z
	 M112,40.5c-0.9,0-1.5-0.7-1.5-1.5s0.7-1.5,1.5-1.5c0.9,0,1.5,0.7,1.5,1.5l0,0C113.5,39.8,112.9,40.5,112,40.5L112,40.5L112,40.5z
	 M104,7.6c-0.9,0-1.5-0.7-1.5-1.5s0.7-1.5,1.5-1.5c0.9,0,1.5,0.7,1.5,1.5l0,0C105.6,6.9,104.9,7.6,104,7.6L104,7.6L104,7.6z
	 M104,15.8c-0.9,0-1.5-0.7-1.5-1.5s0.7-1.5,1.5-1.5c0.9,0,1.5,0.7,1.5,1.5l0,0C105.6,15.1,104.9,15.8,104,15.8L104,15.8L104,15.8z
	 M104,24c-0.9,0-1.5-0.7-1.5-1.5s0.7-1.5,1.5-1.5c0.9,0,1.5,0.7,1.5,1.5l0,0C105.6,23.4,104.9,24,104,24C104,24.1,104,24.1,104,24
	L104,24z M104,32.3c-0.9,0-1.5-0.7-1.5-1.5s0.7-1.5,1.5-1.5c0.9,0,1.5,0.7,1.5,1.5l0,0C105.6,31.6,104.9,32.3,104,32.3L104,32.3
	L104,32.3z M104,40.5c-0.9,0-1.5-0.7-1.5-1.5s0.7-1.5,1.5-1.5c0.9,0,1.5,0.7,1.5,1.5l0,0C105.6,39.8,104.9,40.5,104,40.5L104,40.5
	L104,40.5z M120,48.6c-0.9,0-1.5-0.7-1.6-1.5s0.7-1.5,1.5-1.6c0.8-0.1,1.5,0.7,1.6,1.5l0,0C121.5,47.9,120.8,48.6,120,48.6L120,48.6
	L120,48.6z M120,56.8c-0.9,0-1.5-0.7-1.6-1.5s0.7-1.5,1.5-1.6c0.8-0.1,1.5,0.7,1.6,1.5l0,0C121.5,56.2,120.8,56.8,120,56.8
	C120,56.9,120,56.9,120,56.8L120,56.8z M120,65.1c-0.9,0-1.5-0.7-1.6-1.5c-0.1-0.8,0.7-1.5,1.5-1.6c0.8-0.1,1.5,0.7,1.6,1.5l0,0
	C121.5,64.4,120.8,65.1,120,65.1L120,65.1z M120,73.3c-0.9,0-1.5-0.7-1.6-1.5s0.7-1.5,1.5-1.6c0.8-0.1,1.5,0.7,1.6,1.5l0,0
	C121.5,72.6,120.8,73.3,120,73.3L120,73.3L120,73.3z M120,81.5c-0.9,0-1.5-0.7-1.6-1.5s0.7-1.5,1.5-1.6c0.8-0.1,1.5,0.7,1.6,1.5l0,0
	C121.5,80.8,120.8,81.5,120,81.5L120,81.5L120,81.5z M112,48.6c-0.9,0-1.5-0.7-1.5-1.5s0.7-1.5,1.5-1.5c0.9,0,1.5,0.7,1.5,1.5l0,0
	C113.5,47.9,112.9,48.6,112,48.6L112,48.6z M112,56.8c-0.9,0-1.5-0.7-1.5-1.5s0.7-1.5,1.5-1.5c0.9,0,1.5,0.7,1.5,1.5l0,0
	C113.5,56.2,112.9,56.8,112,56.8C112,56.9,112,56.9,112,56.8L112,56.8z M112,65.1c-0.9,0-1.5-0.7-1.5-1.5c0-0.8,0.6-1.6,1.5-1.6
	s1.5,0.7,1.5,1.5l0,0C113.5,64.4,112.9,65.1,112,65.1L112,65.1L112,65.1z M112,73.3c-0.9,0-1.5-0.7-1.5-1.5s0.7-1.5,1.5-1.5
	c0.9,0,1.5,0.7,1.5,1.5l0,0C113.5,72.6,112.9,73.3,112,73.3L112,73.3L112,73.3z M112,81.5c-0.9,0-1.5-0.7-1.5-1.5s0.7-1.5,1.5-1.5
	c0.9,0,1.5,0.7,1.5,1.5l0,0C113.5,80.8,112.9,81.5,112,81.5L112,81.5L112,81.5z M104,48.6c-0.9,0-1.5-0.7-1.5-1.5s0.7-1.5,1.5-1.5
	c0.9,0,1.5,0.7,1.5,1.5l0,0C105.6,47.9,104.9,48.6,104,48.6L104,48.6L104,48.6z M104,56.8c-0.9,0-1.5-0.7-1.5-1.5s0.7-1.5,1.5-1.5
	c0.9,0,1.5,0.7,1.5,1.5l0,0C105.6,56.2,104.9,56.8,104,56.8C104,56.9,104,56.9,104,56.8L104,56.8z M104,65.1c-0.9,0-1.5-0.7-1.5-1.5
	c0-0.8,0.7-1.6,1.5-1.6c0.9,0,1.5,0.7,1.5,1.5l0,0C105.6,64.4,104.9,65.1,104,65.1L104,65.1L104,65.1z M104,73.3
	c-0.9,0-1.5-0.7-1.5-1.5s0.7-1.5,1.5-1.5c0.9,0,1.5,0.7,1.5,1.5l0,0C105.6,72.6,104.9,73.3,104,73.3L104,73.3L104,73.3z M104,81.5
	c-0.9,0-1.5-0.7-1.5-1.5s0.7-1.5,1.5-1.5c0.9,0,1.5,0.7,1.5,1.5l0,0C105.6,80.8,104.9,81.5,104,81.5L104,81.5L104,81.5z"/>
<path class="st0" d="M144,7.6c-0.9,0-1.5-0.7-1.6-1.5c-0.1-0.8,0.7-1.5,1.5-1.6c0.8-0.1,1.5,0.7,1.6,1.5l0,0
	C145.5,6.9,144.8,7.6,144,7.6z M144,15.8c-0.9,0-1.5-0.7-1.6-1.5c-0.1-0.8,0.7-1.5,1.5-1.6c0.8-0.1,1.5,0.7,1.6,1.5l0,0
	C145.5,15.1,144.8,15.8,144,15.8L144,15.8z M144,24.1c-0.9,0-1.5-0.7-1.6-1.5c-0.1-0.8,0.7-1.5,1.5-1.6c0.8-0.1,1.5,0.7,1.6,1.5l0,0
	C145.5,23.4,144.8,24,144,24.1z M144,32.3c-0.9,0-1.5-0.7-1.6-1.5c-0.1-0.8,0.7-1.5,1.5-1.6c0.8-0.1,1.5,0.7,1.6,1.5l0,0
	C145.5,31.6,144.8,32.3,144,32.3L144,32.3z M144,40.5c-0.9,0-1.5-0.7-1.6-1.5c-0.1-0.8,0.7-1.5,1.5-1.6c0.8-0.1,1.5,0.7,1.6,1.5l0,0
	C145.5,39.8,144.8,40.5,144,40.5z M136,7.6c-0.9,0-1.5-0.7-1.5-1.5s0.7-1.5,1.5-1.5c0.9,0,1.5,0.7,1.5,1.5l0,0
	C137.5,6.9,136.9,7.6,136,7.6L136,7.6L136,7.6z M136,15.8c-0.9,0-1.5-0.7-1.5-1.5s0.7-1.5,1.5-1.5c0.9,0,1.5,0.7,1.5,1.5l0,0
	C137.5,15.1,136.9,15.8,136,15.8L136,15.8z M136,24c-0.9,0-1.5-0.7-1.5-1.5s0.6-1.5,1.5-1.5s1.5,0.7,1.5,1.5l0,0
	C137.5,23.4,136.9,24,136,24C136,24.1,136,24.1,136,24L136,24z M136,32.3c-0.9,0-1.5-0.7-1.5-1.5s0.7-1.5,1.5-1.5
	c0.9,0,1.5,0.7,1.5,1.5l0,0C137.5,31.6,136.9,32.3,136,32.3L136,32.3L136,32.3z M136,40.5c-0.9,0-1.5-0.7-1.5-1.5s0.7-1.5,1.5-1.5
	c0.9,0,1.5,0.7,1.5,1.5l0,0C137.5,39.8,136.9,40.5,136,40.5L136,40.5L136,40.5z M128,7.6c-0.9,0-1.5-0.7-1.5-1.5s0.7-1.5,1.5-1.5
	c0.9,0,1.5,0.7,1.5,1.5l0,0C129.6,6.9,128.9,7.6,128,7.6L128,7.6L128,7.6z M128,15.8c-0.9,0-1.5-0.7-1.5-1.5s0.7-1.5,1.5-1.5
	c0.9,0,1.5,0.7,1.5,1.5l0,0C129.6,15.1,128.9,15.8,128,15.8L128,15.8L128,15.8z M128,24c-0.9,0-1.5-0.7-1.5-1.5s0.7-1.5,1.5-1.5
	c0.9,0,1.5,0.7,1.5,1.5l0,0C129.6,23.4,128.9,24,128,24C128,24.1,128,24.1,128,24L128,24z M128,32.3c-0.9,0-1.5-0.7-1.5-1.5
	s0.7-1.5,1.5-1.5c0.9,0,1.5,0.7,1.5,1.5l0,0C129.6,31.6,128.9,32.3,128,32.3L128,32.3L128,32.3z M128,40.5c-0.9,0-1.5-0.7-1.5-1.5
	s0.7-1.5,1.5-1.5c0.9,0,1.5,0.7,1.5,1.5l0,0C129.6,39.8,128.9,40.5,128,40.5L128,40.5L128,40.5z M144,48.6c-0.9,0-1.5-0.7-1.6-1.5
	c-0.1-0.8,0.7-1.5,1.5-1.6c0.8-0.1,1.5,0.7,1.6,1.5l0,0C145.5,47.9,144.8,48.6,144,48.6L144,48.6L144,48.6z M144,56.8
	c-0.9,0-1.5-0.7-1.6-1.5c-0.1-0.8,0.7-1.5,1.5-1.6c0.8-0.1,1.5,0.7,1.6,1.5l0,0C145.5,56.2,144.8,56.8,144,56.8
	C144,56.9,144,56.9,144,56.8L144,56.8z M144,65.1c-0.9,0-1.5-0.7-1.6-1.5c-0.1-0.8,0.7-1.5,1.5-1.6c0.8-0.1,1.5,0.7,1.6,1.5l0,0
	C145.5,64.4,144.8,65.1,144,65.1L144,65.1z M144,73.3c-0.9,0-1.5-0.7-1.6-1.5c-0.1-0.8,0.7-1.5,1.5-1.6c0.8-0.1,1.5,0.7,1.6,1.5l0,0
	C145.5,72.6,144.8,73.3,144,73.3L144,73.3L144,73.3z M144,81.5c-0.9,0-1.5-0.7-1.6-1.5c-0.1-0.8,0.7-1.5,1.5-1.6
	c0.8-0.1,1.5,0.7,1.6,1.5l0,0C145.5,80.8,144.8,81.5,144,81.5L144,81.5L144,81.5z M136,48.6c-0.9,0-1.5-0.7-1.5-1.5s0.7-1.5,1.5-1.5
	c0.9,0,1.5,0.7,1.5,1.5l0,0C137.5,47.9,136.9,48.6,136,48.6L136,48.6z M136,56.8c-0.9,0-1.5-0.7-1.5-1.5s0.7-1.5,1.5-1.5
	c0.9,0,1.5,0.7,1.5,1.5l0,0C137.5,56.2,136.9,56.8,136,56.8C136,56.9,136,56.9,136,56.8L136,56.8z M136,65.1c-0.9,0-1.5-0.7-1.5-1.5
	c0-0.8,0.6-1.6,1.5-1.6s1.5,0.7,1.5,1.5l0,0C137.5,64.4,136.9,65.1,136,65.1L136,65.1L136,65.1z M136,73.3c-0.9,0-1.5-0.7-1.5-1.5
	s0.7-1.5,1.5-1.5c0.9,0,1.5,0.7,1.5,1.5l0,0C137.5,72.6,136.9,73.3,136,73.3L136,73.3L136,73.3z M136,81.5c-0.9,0-1.5-0.7-1.5-1.5
	s0.7-1.5,1.5-1.5c0.9,0,1.5,0.7,1.5,1.5l0,0C137.5,80.8,136.9,81.5,136,81.5L136,81.5L136,81.5z M128,48.6c-0.9,0-1.5-0.7-1.5-1.5
	s0.7-1.5,1.5-1.5c0.9,0,1.5,0.7,1.5,1.5l0,0C129.6,47.9,128.9,48.6,128,48.6L128,48.6L128,48.6z M128,56.8c-0.9,0-1.5-0.7-1.5-1.5
	s0.7-1.5,1.5-1.5c0.9,0,1.5,0.7,1.5,1.5l0,0C129.6,56.2,128.9,56.8,128,56.8C128,56.9,128,56.9,128,56.8L128,56.8z M128,65.1
	c-0.9,0-1.5-0.7-1.5-1.5c0-0.8,0.7-1.6,1.5-1.6c0.9,0,1.5,0.7,1.5,1.5l0,0C129.6,64.4,128.9,65.1,128,65.1L128,65.1L128,65.1z
	 M128,73.3c-0.9,0-1.5-0.7-1.5-1.5s0.7-1.5,1.5-1.5c0.9,0,1.5,0.7,1.5,1.5l0,0C129.6,72.6,128.9,73.3,128,73.3L128,73.3L128,73.3z
	 M128,81.5c-0.9,0-1.5-0.7-1.5-1.5s0.7-1.5,1.5-1.5c0.9,0,1.5,0.7,1.5,1.5l0,0C129.6,80.8,128.9,81.5,128,81.5L128,81.5L128,81.5z"
	/>
<path class="st0" d="M168,7.6c-0.9,0-1.5-0.7-1.6-1.5c-0.1-0.8,0.7-1.5,1.5-1.6c0.8-0.1,1.5,0.7,1.6,1.5l0,0
	C169.5,6.9,168.8,7.6,168,7.6z M168,15.8c-0.9,0-1.5-0.7-1.6-1.5c-0.1-0.8,0.7-1.5,1.5-1.6c0.8-0.1,1.5,0.7,1.6,1.5l0,0
	C169.5,15.1,168.8,15.8,168,15.8L168,15.8z M168,24.1c-0.9,0-1.5-0.7-1.6-1.5c-0.1-0.8,0.7-1.5,1.5-1.6c0.8-0.1,1.5,0.7,1.6,1.5l0,0
	C169.5,23.4,168.8,24,168,24.1z M168,32.3c-0.9,0-1.5-0.7-1.6-1.5c-0.1-0.8,0.7-1.5,1.5-1.6c0.8-0.1,1.5,0.7,1.6,1.5l0,0
	C169.5,31.6,168.8,32.3,168,32.3L168,32.3z M168,40.5c-0.9,0-1.5-0.7-1.6-1.5c-0.1-0.8,0.7-1.5,1.5-1.6c0.8-0.1,1.5,0.7,1.6,1.5l0,0
	C169.5,39.8,168.8,40.5,168,40.5z M160,7.6c-0.9,0-1.5-0.7-1.5-1.5s0.7-1.5,1.5-1.5c0.9,0,1.5,0.7,1.5,1.5l0,0
	C161.5,6.9,160.9,7.6,160,7.6L160,7.6L160,7.6z M160,15.8c-0.9,0-1.5-0.7-1.5-1.5s0.7-1.5,1.5-1.5c0.9,0,1.5,0.7,1.5,1.5l0,0
	C161.5,15.1,160.9,15.8,160,15.8L160,15.8z M160,24c-0.9,0-1.5-0.7-1.5-1.5s0.6-1.5,1.5-1.5s1.5,0.7,1.5,1.5l0,0
	C161.5,23.4,160.9,24,160,24C160,24.1,160,24.1,160,24L160,24z M160,32.3c-0.9,0-1.5-0.7-1.5-1.5s0.7-1.5,1.5-1.5
	c0.9,0,1.5,0.7,1.5,1.5l0,0C161.5,31.6,160.9,32.3,160,32.3L160,32.3L160,32.3z M160,40.5c-0.9,0-1.5-0.7-1.5-1.5s0.7-1.5,1.5-1.5
	c0.9,0,1.5,0.7,1.5,1.5l0,0C161.5,39.8,160.9,40.5,160,40.5L160,40.5L160,40.5z M152,7.6c-0.9,0-1.5-0.7-1.5-1.5s0.7-1.5,1.5-1.5
	c0.9,0,1.5,0.7,1.5,1.5l0,0C153.6,6.9,152.9,7.6,152,7.6L152,7.6L152,7.6z M152,15.8c-0.9,0-1.5-0.7-1.5-1.5s0.7-1.5,1.5-1.5
	c0.9,0,1.5,0.7,1.5,1.5l0,0C153.6,15.1,152.9,15.8,152,15.8L152,15.8L152,15.8z M152,24c-0.9,0-1.5-0.7-1.5-1.5s0.7-1.5,1.5-1.5
	c0.9,0,1.5,0.7,1.5,1.5l0,0C153.6,23.4,152.9,24,152,24C152,24.1,152,24.1,152,24L152,24z M152,32.3c-0.9,0-1.5-0.7-1.5-1.5
	s0.7-1.5,1.5-1.5c0.9,0,1.5,0.7,1.5,1.5l0,0C153.6,31.6,152.9,32.3,152,32.3L152,32.3L152,32.3z M152,40.5c-0.9,0-1.5-0.7-1.5-1.5
	s0.7-1.5,1.5-1.5c0.9,0,1.5,0.7,1.5,1.5l0,0C153.6,39.8,152.9,40.5,152,40.5L152,40.5L152,40.5z M168,48.6c-0.9,0-1.5-0.7-1.6-1.5
	c-0.1-0.8,0.7-1.5,1.5-1.6c0.8-0.1,1.5,0.7,1.6,1.5l0,0C169.5,47.9,168.8,48.6,168,48.6L168,48.6L168,48.6z M168,56.8
	c-0.9,0-1.5-0.7-1.6-1.5c-0.1-0.8,0.7-1.5,1.5-1.6c0.8-0.1,1.5,0.7,1.6,1.5l0,0C169.5,56.2,168.8,56.8,168,56.8
	C168,56.9,168,56.9,168,56.8L168,56.8z M168,65.1c-0.9,0-1.5-0.7-1.6-1.5c-0.1-0.8,0.7-1.5,1.5-1.6c0.8-0.1,1.5,0.7,1.6,1.5l0,0
	C169.5,64.4,168.8,65.1,168,65.1L168,65.1z M168,73.3c-0.9,0-1.5-0.7-1.6-1.5c-0.1-0.8,0.7-1.5,1.5-1.6c0.8-0.1,1.5,0.7,1.6,1.5l0,0
	C169.5,72.6,168.8,73.3,168,73.3L168,73.3L168,73.3z M168,81.5c-0.9,0-1.5-0.7-1.6-1.5c-0.1-0.8,0.7-1.5,1.5-1.6
	c0.8-0.1,1.5,0.7,1.6,1.5l0,0C169.5,80.8,168.8,81.5,168,81.5L168,81.5L168,81.5z M160,48.6c-0.9,0-1.5-0.7-1.5-1.5s0.7-1.5,1.5-1.5
	c0.9,0,1.5,0.7,1.5,1.5l0,0C161.5,47.9,160.9,48.6,160,48.6L160,48.6z M160,56.8c-0.9,0-1.5-0.7-1.5-1.5s0.7-1.5,1.5-1.5
	c0.9,0,1.5,0.7,1.5,1.5l0,0C161.5,56.2,160.9,56.8,160,56.8C160,56.9,160,56.9,160,56.8L160,56.8z M160,65.1c-0.9,0-1.5-0.7-1.5-1.5
	c0-0.8,0.6-1.6,1.5-1.6s1.5,0.7,1.5,1.5l0,0C161.5,64.4,160.9,65.1,160,65.1L160,65.1L160,65.1z M160,73.3c-0.9,0-1.5-0.7-1.5-1.5
	s0.7-1.5,1.5-1.5c0.9,0,1.5,0.7,1.5,1.5l0,0C161.5,72.6,160.9,73.3,160,73.3L160,73.3L160,73.3z M160,81.5c-0.9,0-1.5-0.7-1.5-1.5
	s0.7-1.5,1.5-1.5c0.9,0,1.5,0.7,1.5,1.5l0,0C161.5,80.8,160.9,81.5,160,81.5L160,81.5L160,81.5z M152,48.6c-0.9,0-1.5-0.7-1.5-1.5
	s0.7-1.5,1.5-1.5c0.9,0,1.5,0.7,1.5,1.5l0,0C153.6,47.9,152.9,48.6,152,48.6L152,48.6L152,48.6z M152,56.8c-0.9,0-1.5-0.7-1.5-1.5
	s0.7-1.5,1.5-1.5c0.9,0,1.5,0.7,1.5,1.5l0,0C153.6,56.2,152.9,56.8,152,56.8C152,56.9,152,56.9,152,56.8L152,56.8z M152,65.1
	c-0.9,0-1.5-0.7-1.5-1.5c0-0.8,0.7-1.6,1.5-1.6c0.9,0,1.5,0.7,1.5,1.5l0,0C153.6,64.4,152.9,65.1,152,65.1L152,65.1L152,65.1z
	 M152,73.3c-0.9,0-1.5-0.7-1.5-1.5s0.7-1.5,1.5-1.5c0.9,0,1.5,0.7,1.5,1.5l0,0C153.6,72.6,152.9,73.3,152,73.3L152,73.3L152,73.3z
	 M152,81.5c-0.9,0-1.5-0.7-1.5-1.5s0.7-1.5,1.5-1.5c0.9,0,1.5,0.7,1.5,1.5l0,0C153.6,80.8,152.9,81.5,152,81.5L152,81.5L152,81.5z"
	/>
<path class="st0" d="M192,7.6c-0.9,0-1.5-0.7-1.6-1.5c-0.1-0.8,0.7-1.5,1.5-1.6c0.8-0.1,1.5,0.7,1.6,1.5l0,0
	C193.5,6.9,192.8,7.6,192,7.6z M192,15.8c-0.9,0-1.5-0.7-1.6-1.5c-0.1-0.8,0.7-1.5,1.5-1.6c0.8-0.1,1.5,0.7,1.6,1.5l0,0
	C193.5,15.1,192.8,15.8,192,15.8L192,15.8z M192,24.1c-0.9,0-1.5-0.7-1.6-1.5c-0.1-0.8,0.7-1.5,1.5-1.6c0.8-0.1,1.5,0.7,1.6,1.5l0,0
	C193.5,23.4,192.8,24,192,24.1z M192,32.3c-0.9,0-1.5-0.7-1.6-1.5c-0.1-0.8,0.7-1.5,1.5-1.6c0.8-0.1,1.5,0.7,1.6,1.5l0,0
	C193.5,31.6,192.8,32.3,192,32.3L192,32.3z M192,40.5c-0.9,0-1.5-0.7-1.6-1.5c-0.1-0.8,0.7-1.5,1.5-1.6c0.8-0.1,1.5,0.7,1.6,1.5l0,0
	C193.5,39.8,192.8,40.5,192,40.5z M184,7.6c-0.9,0-1.5-0.7-1.5-1.5s0.7-1.5,1.5-1.5c0.9,0,1.5,0.7,1.5,1.5l0,0
	C185.5,6.9,184.9,7.6,184,7.6L184,7.6L184,7.6z M184,15.8c-0.9,0-1.5-0.7-1.5-1.5s0.7-1.5,1.5-1.5c0.9,0,1.5,0.7,1.5,1.5l0,0
	C185.5,15.1,184.9,15.8,184,15.8L184,15.8z M184,24c-0.9,0-1.5-0.7-1.5-1.5s0.6-1.5,1.5-1.5s1.5,0.7,1.5,1.5l0,0
	C185.5,23.4,184.9,24,184,24C184,24.1,184,24.1,184,24L184,24z M184,32.3c-0.9,0-1.5-0.7-1.5-1.5s0.7-1.5,1.5-1.5
	c0.9,0,1.5,0.7,1.5,1.5l0,0C185.5,31.6,184.9,32.3,184,32.3L184,32.3L184,32.3z M184,40.5c-0.9,0-1.5-0.7-1.5-1.5s0.7-1.5,1.5-1.5
	c0.9,0,1.5,0.7,1.5,1.5l0,0C185.5,39.8,184.9,40.5,184,40.5L184,40.5L184,40.5z M176,7.6c-0.9,0-1.5-0.7-1.5-1.5s0.7-1.5,1.5-1.5
	c0.9,0,1.5,0.7,1.5,1.5l0,0C177.6,6.9,176.9,7.6,176,7.6L176,7.6L176,7.6z M176,15.8c-0.9,0-1.5-0.7-1.5-1.5s0.7-1.5,1.5-1.5
	c0.9,0,1.5,0.7,1.5,1.5l0,0C177.6,15.1,176.9,15.8,176,15.8L176,15.8L176,15.8z M176,24c-0.9,0-1.5-0.7-1.5-1.5s0.7-1.5,1.5-1.5
	c0.9,0,1.5,0.7,1.5,1.5l0,0C177.6,23.4,176.9,24,176,24C176,24.1,176,24.1,176,24L176,24z M176,32.3c-0.9,0-1.5-0.7-1.5-1.5
	s0.7-1.5,1.5-1.5c0.9,0,1.5,0.7,1.5,1.5l0,0C177.6,31.6,176.9,32.3,176,32.3L176,32.3L176,32.3z M176,40.5c-0.9,0-1.5-0.7-1.5-1.5
	s0.7-1.5,1.5-1.5c0.9,0,1.5,0.7,1.5,1.5l0,0C177.6,39.8,176.9,40.5,176,40.5L176,40.5L176,40.5z M192,48.6c-0.9,0-1.5-0.7-1.6-1.5
	c-0.1-0.8,0.7-1.5,1.5-1.6c0.8-0.1,1.5,0.7,1.6,1.5l0,0C193.5,47.9,192.8,48.6,192,48.6L192,48.6L192,48.6z M192,56.8
	c-0.9,0-1.5-0.7-1.6-1.5c-0.1-0.8,0.7-1.5,1.5-1.6c0.8-0.1,1.5,0.7,1.6,1.5l0,0C193.5,56.2,192.8,56.8,192,56.8
	C192,56.9,192,56.9,192,56.8L192,56.8z M192,65.1c-0.9,0-1.5-0.7-1.6-1.5c-0.1-0.8,0.7-1.5,1.5-1.6c0.8-0.1,1.5,0.7,1.6,1.5l0,0
	C193.5,64.4,192.8,65.1,192,65.1L192,65.1z M192,73.3c-0.9,0-1.5-0.7-1.6-1.5c-0.1-0.8,0.7-1.5,1.5-1.6c0.8-0.1,1.5,0.7,1.6,1.5l0,0
	C193.5,72.6,192.8,73.3,192,73.3L192,73.3L192,73.3z M192,81.5c-0.9,0-1.5-0.7-1.6-1.5c-0.1-0.8,0.7-1.5,1.5-1.6
	c0.8-0.1,1.5,0.7,1.6,1.5l0,0C193.5,80.8,192.8,81.5,192,81.5L192,81.5L192,81.5z M184,48.6c-0.9,0-1.5-0.7-1.5-1.5s0.7-1.5,1.5-1.5
	c0.9,0,1.5,0.7,1.5,1.5l0,0C185.5,47.9,184.9,48.6,184,48.6L184,48.6z M184,56.8c-0.9,0-1.5-0.7-1.5-1.5s0.7-1.5,1.5-1.5
	c0.9,0,1.5,0.7,1.5,1.5l0,0C185.5,56.2,184.9,56.8,184,56.8C184,56.9,184,56.9,184,56.8L184,56.8z M184,65.1c-0.9,0-1.5-0.7-1.5-1.5
	c0-0.8,0.6-1.6,1.5-1.6s1.5,0.7,1.5,1.5l0,0C185.5,64.4,184.9,65.1,184,65.1L184,65.1L184,65.1z M184,73.3c-0.9,0-1.5-0.7-1.5-1.5
	s0.7-1.5,1.5-1.5c0.9,0,1.5,0.7,1.5,1.5l0,0C185.5,72.6,184.9,73.3,184,73.3L184,73.3L184,73.3z M184,81.5c-0.9,0-1.5-0.7-1.5-1.5
	s0.7-1.5,1.5-1.5c0.9,0,1.5,0.7,1.5,1.5l0,0C185.5,80.8,184.9,81.5,184,81.5L184,81.5L184,81.5z M176,48.6c-0.9,0-1.5-0.7-1.5-1.5
	s0.7-1.5,1.5-1.5c0.9,0,1.5,0.7,1.5,1.5l0,0C177.6,47.9,176.9,48.6,176,48.6L176,48.6L176,48.6z M176,56.8c-0.9,0-1.5-0.7-1.5-1.5
	s0.7-1.5,1.5-1.5c0.9,0,1.5,0.7,1.5,1.5l0,0C177.6,56.2,176.9,56.8,176,56.8C176,56.9,176,56.9,176,56.8L176,56.8z M176,65.1
	c-0.9,0-1.5-0.7-1.5-1.5c0-0.8,0.7-1.6,1.5-1.6c0.9,0,1.5,0.7,1.5,1.5l0,0C177.6,64.4,176.9,65.1,176,65.1L176,65.1L176,65.1z
	 M176,73.3c-0.9,0-1.5-0.7-1.5-1.5s0.7-1.5,1.5-1.5c0.9,0,1.5,0.7,1.5,1.5l0,0C177.6,72.6,176.9,73.3,176,73.3L176,73.3L176,73.3z
	 M176,81.5c-0.9,0-1.5-0.7-1.5-1.5s0.7-1.5,1.5-1.5c0.9,0,1.5,0.7,1.5,1.5l0,0C177.6,80.8,176.9,81.5,176,81.5L176,81.5L176,81.5z"
	/>
<path class="st0" d="M24,89.6c-0.9,0-1.5-0.7-1.6-1.5c-0.1-0.8,0.7-1.5,1.5-1.6s1.5,0.7,1.6,1.5l0,0C25.5,88.9,24.8,89.6,24,89.6z
	 M24,97.8c-0.9,0-1.5-0.7-1.6-1.5c-0.1-0.8,0.7-1.5,1.5-1.6c0.8-0.1,1.5,0.7,1.6,1.5l0,0C25.5,97.1,24.8,97.8,24,97.8L24,97.8z
	 M24,106.1c-0.9,0-1.5-0.7-1.6-1.5c-0.1-0.8,0.7-1.5,1.5-1.6s1.5,0.7,1.6,1.5l0,0C25.5,105.4,24.8,106,24,106.1z M24,114.3
	c-0.9,0-1.5-0.7-1.6-1.5c-0.1-0.8,0.7-1.5,1.5-1.6c0.8-0.1,1.5,0.7,1.6,1.5l0,0C25.5,113.6,24.8,114.3,24,114.3L24,114.3z M24,122.5
	c-0.9,0-1.5-0.7-1.6-1.5s0.7-1.5,1.5-1.6s1.5,0.7,1.6,1.5l0,0C25.5,121.8,24.8,122.5,24,122.5z M16,89.6c-0.9,0-1.5-0.7-1.5-1.5
	c0-0.8,0.7-1.5,1.5-1.5c0.9,0,1.5,0.7,1.5,1.5l0,0C17.5,88.9,16.9,89.6,16,89.6L16,89.6L16,89.6z M16,97.8c-0.9,0-1.5-0.7-1.5-1.5
	c0-0.8,0.7-1.5,1.5-1.5c0.9,0,1.5,0.7,1.5,1.5l0,0C17.5,97.1,16.9,97.8,16,97.8L16,97.8z M16,106c-0.9,0-1.5-0.7-1.5-1.5
	s0.6-1.5,1.5-1.5s1.5,0.7,1.5,1.5l0,0C17.5,105.4,16.9,106,16,106C16,106.1,16,106.1,16,106L16,106z M16,114.3
	c-0.9,0-1.5-0.7-1.5-1.5c0-0.8,0.7-1.5,1.5-1.5c0.9,0,1.5,0.7,1.5,1.5l0,0C17.5,113.6,16.9,114.3,16,114.3L16,114.3L16,114.3z
	 M16,122.5c-0.9,0-1.5-0.7-1.5-1.5s0.7-1.5,1.5-1.5c0.9,0,1.5,0.7,1.5,1.5l0,0C17.5,121.8,16.9,122.5,16,122.5L16,122.5L16,122.5z
	 M8,89.6c-0.9,0-1.5-0.7-1.5-1.5c0-0.8,0.7-1.5,1.5-1.5c0.9,0,1.5,0.7,1.5,1.5l0,0C9.6,88.9,8.9,89.6,8,89.6L8,89.6L8,89.6z M8,97.8
	c-0.9,0-1.5-0.7-1.5-1.5c0-0.8,0.7-1.5,1.5-1.5c0.9,0,1.5,0.7,1.5,1.5l0,0C9.6,97.1,8.9,97.8,8,97.8L8,97.8L8,97.8z M8,106
	c-0.9,0-1.5-0.7-1.5-1.5S7.2,103,8,103c0.9,0,1.5,0.7,1.5,1.5l0,0C9.6,105.4,8.9,106,8,106C8,106.1,8,106.1,8,106L8,106z M8,114.3
	c-0.9,0-1.5-0.7-1.5-1.5c0-0.8,0.7-1.5,1.5-1.5c0.9,0,1.5,0.7,1.5,1.5l0,0C9.6,113.6,8.9,114.3,8,114.3L8,114.3L8,114.3z M8,122.5
	c-0.9,0-1.5-0.7-1.5-1.5s0.7-1.5,1.5-1.5c0.9,0,1.5,0.7,1.5,1.5l0,0C9.6,121.8,8.9,122.5,8,122.5L8,122.5L8,122.5z M24,130.6
	c-0.9,0-1.5-0.7-1.6-1.5c-0.1-0.8,0.7-1.5,1.5-1.6s1.5,0.7,1.6,1.5l0,0C25.5,129.9,24.8,130.6,24,130.6L24,130.6L24,130.6z
	 M24,138.8c-0.9,0-1.5-0.7-1.6-1.5s0.7-1.5,1.5-1.6c0.8-0.1,1.5,0.7,1.6,1.5l0,0C25.5,138.2,24.8,138.8,24,138.8
	C24,138.9,24,138.9,24,138.8L24,138.8z M24,147.1c-0.9,0-1.5-0.7-1.6-1.5c-0.1-0.8,0.7-1.5,1.5-1.6s1.5,0.7,1.6,1.5l0,0
	C25.5,146.4,24.8,147.1,24,147.1L24,147.1z M24,155.3c-0.9,0-1.5-0.7-1.6-1.5s0.7-1.5,1.5-1.6c0.8-0.1,1.5,0.7,1.6,1.5l0,0
	C25.5,154.6,24.8,155.3,24,155.3L24,155.3L24,155.3z M24,163.5c-0.9,0-1.5-0.7-1.6-1.5s0.7-1.5,1.5-1.6c0.8-0.1,1.5,0.7,1.6,1.5l0,0
	C25.5,162.8,24.8,163.5,24,163.5L24,163.5L24,163.5z M16,130.6c-0.9,0-1.5-0.7-1.5-1.5c0-0.8,0.7-1.5,1.5-1.5c0.9,0,1.5,0.7,1.5,1.5
	l0,0C17.5,129.9,16.9,130.6,16,130.6L16,130.6z M16,138.8c-0.9,0-1.5-0.7-1.5-1.5s0.7-1.5,1.5-1.5c0.9,0,1.5,0.7,1.5,1.5l0,0
	C17.5,138.2,16.9,138.8,16,138.8C16,138.9,16,138.9,16,138.8L16,138.8z M16,147.1c-0.9,0-1.5-0.7-1.5-1.5c0-0.8,0.6-1.6,1.5-1.6
	s1.5,0.7,1.5,1.5l0,0C17.5,146.4,16.9,147.1,16,147.1L16,147.1L16,147.1z M16,155.3c-0.9,0-1.5-0.7-1.5-1.5s0.7-1.5,1.5-1.5
	c0.9,0,1.5,0.7,1.5,1.5l0,0C17.5,154.6,16.9,155.3,16,155.3L16,155.3L16,155.3z M16,163.5c-0.9,0-1.5-0.7-1.5-1.5s0.7-1.5,1.5-1.5
	c0.9,0,1.5,0.7,1.5,1.5l0,0C17.5,162.8,16.9,163.5,16,163.5L16,163.5L16,163.5z M8,130.6c-0.9,0-1.5-0.7-1.5-1.5
	c0-0.8,0.7-1.5,1.5-1.5c0.9,0,1.5,0.7,1.5,1.5l0,0C9.6,129.9,8.9,130.6,8,130.6L8,130.6L8,130.6z M8,138.8c-0.9,0-1.5-0.7-1.5-1.5
	s0.7-1.5,1.5-1.5c0.9,0,1.5,0.7,1.5,1.5l0,0C9.6,138.2,8.9,138.8,8,138.8C8,138.9,8,138.9,8,138.8L8,138.8z M8,147.1
	c-0.9,0-1.5-0.7-1.5-1.5c0-0.8,0.7-1.6,1.5-1.6c0.9,0,1.5,0.7,1.5,1.5l0,0C9.6,146.4,8.9,147.1,8,147.1L8,147.1L8,147.1z M8,155.3
	c-0.9,0-1.5-0.7-1.5-1.5s0.7-1.5,1.5-1.5c0.9,0,1.5,0.7,1.5,1.5l0,0C9.6,154.6,8.9,155.3,8,155.3L8,155.3L8,155.3z M8,163.5
	c-0.9,0-1.5-0.7-1.5-1.5s0.7-1.5,1.5-1.5c0.9,0,1.5,0.7,1.5,1.5l0,0C9.6,162.8,8.9,163.5,8,163.5L8,163.5L8,163.5z"/>
<path class="st0" d="M48,89.6c-0.9,0-1.5-0.7-1.6-1.5c-0.1-0.8,0.7-1.5,1.5-1.6s1.5,0.7,1.6,1.5l0,0C49.5,88.9,48.8,89.6,48,89.6z
	 M48,97.8c-0.9,0-1.5-0.7-1.6-1.5c-0.1-0.8,0.7-1.5,1.5-1.6c0.8-0.1,1.5,0.7,1.6,1.5l0,0C49.5,97.1,48.8,97.8,48,97.8L48,97.8z
	 M48,106.1c-0.9,0-1.5-0.7-1.6-1.5c-0.1-0.8,0.7-1.5,1.5-1.6s1.5,0.7,1.6,1.5l0,0C49.5,105.4,48.8,106,48,106.1z M48,114.3
	c-0.9,0-1.5-0.7-1.6-1.5c-0.1-0.8,0.7-1.5,1.5-1.6c0.8-0.1,1.5,0.7,1.6,1.5l0,0C49.5,113.6,48.8,114.3,48,114.3L48,114.3z M48,122.5
	c-0.9,0-1.5-0.7-1.6-1.5c-0.1-0.8,0.7-1.5,1.5-1.6s1.5,0.7,1.6,1.5l0,0C49.5,121.8,48.8,122.5,48,122.5z M40,89.6
	c-0.9,0-1.5-0.7-1.5-1.5c0-0.8,0.7-1.5,1.5-1.5c0.9,0,1.5,0.7,1.5,1.5l0,0C41.5,88.9,40.9,89.6,40,89.6L40,89.6L40,89.6z M40,97.8
	c-0.9,0-1.5-0.7-1.5-1.5c0-0.8,0.7-1.5,1.5-1.5c0.9,0,1.5,0.7,1.5,1.5l0,0C41.5,97.1,40.9,97.8,40,97.8L40,97.8z M40,106
	c-0.9,0-1.5-0.7-1.5-1.5s0.6-1.5,1.5-1.5c0.9,0,1.5,0.7,1.5,1.5l0,0C41.5,105.4,40.9,106,40,106C40,106.1,40,106.1,40,106L40,106z
	 M40,114.3c-0.9,0-1.5-0.7-1.5-1.5c0-0.8,0.7-1.5,1.5-1.5c0.9,0,1.5,0.7,1.5,1.5l0,0C41.5,113.6,40.9,114.3,40,114.3L40,114.3
	L40,114.3z M40,122.5c-0.9,0-1.5-0.7-1.5-1.5s0.7-1.5,1.5-1.5c0.9,0,1.5,0.7,1.5,1.5l0,0C41.5,121.8,40.9,122.5,40,122.5L40,122.5
	L40,122.5z M32,89.6c-0.9,0-1.5-0.7-1.5-1.5c0-0.8,0.7-1.5,1.5-1.5c0.9,0,1.5,0.7,1.5,1.5l0,0C33.6,88.9,32.9,89.6,32,89.6L32,89.6
	L32,89.6z M32,97.8c-0.9,0-1.5-0.7-1.5-1.5c0-0.8,0.7-1.5,1.5-1.5c0.9,0,1.5,0.7,1.5,1.5l0,0C33.6,97.1,32.9,97.8,32,97.8L32,97.8
	L32,97.8z M32,106c-0.9,0-1.5-0.7-1.5-1.5s0.7-1.5,1.5-1.5c0.9,0,1.5,0.7,1.5,1.5l0,0C33.6,105.4,32.9,106,32,106
	C32,106.1,32,106.1,32,106L32,106z M32,114.3c-0.9,0-1.5-0.7-1.5-1.5c0-0.8,0.7-1.5,1.5-1.5c0.9,0,1.5,0.7,1.5,1.5l0,0
	C33.6,113.6,32.9,114.3,32,114.3L32,114.3L32,114.3z M32,122.5c-0.9,0-1.5-0.7-1.5-1.5s0.7-1.5,1.5-1.5c0.9,0,1.5,0.7,1.5,1.5l0,0
	C33.6,121.8,32.9,122.5,32,122.5L32,122.5L32,122.5z M48,130.6c-0.9,0-1.5-0.7-1.6-1.5c-0.1-0.8,0.7-1.5,1.5-1.6s1.5,0.7,1.6,1.5
	l0,0C49.5,129.9,48.8,130.6,48,130.6L48,130.6L48,130.6z M48,138.8c-0.9,0-1.5-0.7-1.6-1.5c-0.1-0.8,0.7-1.5,1.5-1.6
	c0.8-0.1,1.5,0.7,1.6,1.5l0,0C49.5,138.2,48.8,138.8,48,138.8C48,138.9,48,138.9,48,138.8L48,138.8z M48,147.1
	c-0.9,0-1.5-0.7-1.6-1.5c-0.1-0.8,0.7-1.5,1.5-1.6s1.5,0.7,1.6,1.5l0,0C49.5,146.4,48.8,147.1,48,147.1L48,147.1z M48,155.3
	c-0.9,0-1.5-0.7-1.6-1.5c-0.1-0.8,0.7-1.5,1.5-1.6c0.8-0.1,1.5,0.7,1.6,1.5l0,0C49.5,154.6,48.8,155.3,48,155.3L48,155.3L48,155.3z
	 M48,163.5c-0.9,0-1.5-0.7-1.6-1.5c-0.1-0.8,0.7-1.5,1.5-1.6c0.8-0.1,1.5,0.7,1.6,1.5l0,0C49.5,162.8,48.8,163.5,48,163.5L48,163.5
	L48,163.5z M40,130.6c-0.9,0-1.5-0.7-1.5-1.5c0-0.8,0.7-1.5,1.5-1.5c0.9,0,1.5,0.7,1.5,1.5l0,0C41.5,129.9,40.9,130.6,40,130.6
	L40,130.6z M40,138.8c-0.9,0-1.5-0.7-1.5-1.5s0.7-1.5,1.5-1.5c0.9,0,1.5,0.7,1.5,1.5l0,0C41.5,138.2,40.9,138.8,40,138.8
	C40,138.9,40,138.9,40,138.8L40,138.8z M40,147.1c-0.9,0-1.5-0.7-1.5-1.5c0-0.8,0.6-1.6,1.5-1.6c0.9,0,1.5,0.7,1.5,1.5l0,0
	C41.5,146.4,40.9,147.1,40,147.1L40,147.1L40,147.1z M40,155.3c-0.9,0-1.5-0.7-1.5-1.5s0.7-1.5,1.5-1.5c0.9,0,1.5,0.7,1.5,1.5l0,0
	C41.5,154.6,40.9,155.3,40,155.3L40,155.3L40,155.3z M40,163.5c-0.9,0-1.5-0.7-1.5-1.5s0.7-1.5,1.5-1.5c0.9,0,1.5,0.7,1.5,1.5l0,0
	C41.5,162.8,40.9,163.5,40,163.5L40,163.5L40,163.5z M32,130.6c-0.9,0-1.5-0.7-1.5-1.5c0-0.8,0.7-1.5,1.5-1.5c0.9,0,1.5,0.7,1.5,1.5
	l0,0C33.6,129.9,32.9,130.6,32,130.6L32,130.6L32,130.6z M32,138.8c-0.9,0-1.5-0.7-1.5-1.5s0.7-1.5,1.5-1.5c0.9,0,1.5,0.7,1.5,1.5
	l0,0C33.6,138.2,32.9,138.8,32,138.8C32,138.9,32,138.9,32,138.8L32,138.8z M32,147.1c-0.9,0-1.5-0.7-1.5-1.5c0-0.8,0.7-1.6,1.5-1.6
	c0.9,0,1.5,0.7,1.5,1.5l0,0C33.6,146.4,32.9,147.1,32,147.1L32,147.1L32,147.1z M32,155.3c-0.9,0-1.5-0.7-1.5-1.5s0.7-1.5,1.5-1.5
	c0.9,0,1.5,0.7,1.5,1.5l0,0C33.6,154.6,32.9,155.3,32,155.3L32,155.3L32,155.3z M32,163.5c-0.9,0-1.5-0.7-1.5-1.5s0.7-1.5,1.5-1.5
	c0.9,0,1.5,0.7,1.5,1.5l0,0C33.6,162.8,32.9,163.5,32,163.5L32,163.5L32,163.5z"/>
<path class="st0" d="M72,89.6c-0.9,0-1.5-0.7-1.6-1.5c-0.1-0.8,0.7-1.5,1.5-1.6c0.8-0.1,1.5,0.7,1.6,1.5l0,0
	C73.5,88.9,72.8,89.6,72,89.6z M72,97.8c-0.9,0-1.5-0.7-1.6-1.5c-0.1-0.8,0.7-1.5,1.5-1.6c0.8-0.1,1.5,0.7,1.6,1.5l0,0
	C73.5,97.1,72.8,97.8,72,97.8L72,97.8z M72,106.1c-0.9,0-1.5-0.7-1.6-1.5c-0.1-0.8,0.7-1.5,1.5-1.6c0.8-0.1,1.5,0.7,1.6,1.5l0,0
	C73.5,105.4,72.8,106,72,106.1z M72,114.3c-0.9,0-1.5-0.7-1.6-1.5c-0.1-0.8,0.7-1.5,1.5-1.6c0.8-0.1,1.5,0.7,1.6,1.5l0,0
	C73.5,113.6,72.8,114.3,72,114.3L72,114.3z M72,122.5c-0.9,0-1.5-0.7-1.6-1.5s0.7-1.5,1.5-1.6c0.8-0.1,1.5,0.7,1.6,1.5l0,0
	C73.5,121.8,72.8,122.5,72,122.5z M64,89.6c-0.9,0-1.5-0.7-1.5-1.5c0-0.8,0.7-1.5,1.5-1.5c0.9,0,1.5,0.7,1.5,1.5l0,0
	C65.5,88.9,64.9,89.6,64,89.6L64,89.6L64,89.6z M64,97.8c-0.9,0-1.5-0.7-1.5-1.5c0-0.8,0.7-1.5,1.5-1.5c0.9,0,1.5,0.7,1.5,1.5l0,0
	C65.5,97.1,64.9,97.8,64,97.8L64,97.8z M64,106c-0.9,0-1.5-0.7-1.5-1.5s0.6-1.5,1.5-1.5s1.5,0.7,1.5,1.5l0,0
	C65.5,105.4,64.9,106,64,106C64,106.1,64,106.1,64,106L64,106z M64,114.3c-0.9,0-1.5-0.7-1.5-1.5c0-0.8,0.7-1.5,1.5-1.5
	c0.9,0,1.5,0.7,1.5,1.5l0,0C65.5,113.6,64.9,114.3,64,114.3L64,114.3L64,114.3z M64,122.5c-0.9,0-1.5-0.7-1.5-1.5s0.7-1.5,1.5-1.5
	c0.9,0,1.5,0.7,1.5,1.5l0,0C65.5,121.8,64.9,122.5,64,122.5L64,122.5L64,122.5z M56,89.6c-0.9,0-1.5-0.7-1.5-1.5
	c0-0.8,0.7-1.5,1.5-1.5c0.9,0,1.5,0.7,1.5,1.5l0,0C57.6,88.9,56.9,89.6,56,89.6L56,89.6L56,89.6z M56,97.8c-0.9,0-1.5-0.7-1.5-1.5
	c0-0.8,0.7-1.5,1.5-1.5c0.9,0,1.5,0.7,1.5,1.5l0,0C57.6,97.1,56.9,97.8,56,97.8L56,97.8L56,97.8z M56,106c-0.9,0-1.5-0.7-1.5-1.5
	s0.7-1.5,1.5-1.5c0.9,0,1.5,0.7,1.5,1.5l0,0C57.6,105.4,56.9,106,56,106C56,106.1,56,106.1,56,106L56,106z M56,114.3
	c-0.9,0-1.5-0.7-1.5-1.5c0-0.8,0.7-1.5,1.5-1.5c0.9,0,1.5,0.7,1.5,1.5l0,0C57.6,113.6,56.9,114.3,56,114.3L56,114.3L56,114.3z
	 M56,122.5c-0.9,0-1.5-0.7-1.5-1.5s0.7-1.5,1.5-1.5c0.9,0,1.5,0.7,1.5,1.5l0,0C57.6,121.8,56.9,122.5,56,122.5L56,122.5L56,122.5z
	 M72,130.6c-0.9,0-1.5-0.7-1.6-1.5c-0.1-0.8,0.7-1.5,1.5-1.6c0.8-0.1,1.5,0.7,1.6,1.5l0,0C73.5,129.9,72.8,130.6,72,130.6L72,130.6
	L72,130.6z M72,138.8c-0.9,0-1.5-0.7-1.6-1.5s0.7-1.5,1.5-1.6c0.8-0.1,1.5,0.7,1.6,1.5l0,0C73.5,138.2,72.8,138.8,72,138.8
	C72,138.9,72,138.9,72,138.8L72,138.8z M72,147.1c-0.9,0-1.5-0.7-1.6-1.5c-0.1-0.8,0.7-1.5,1.5-1.6c0.8-0.1,1.5,0.7,1.6,1.5l0,0
	C73.5,146.4,72.8,147.1,72,147.1L72,147.1z M72,155.3c-0.9,0-1.5-0.7-1.6-1.5s0.7-1.5,1.5-1.6c0.8-0.1,1.5,0.7,1.6,1.5l0,0
	C73.5,154.6,72.8,155.3,72,155.3L72,155.3L72,155.3z M72,163.5c-0.9,0-1.5-0.7-1.6-1.5s0.7-1.5,1.5-1.6c0.8-0.1,1.5,0.7,1.6,1.5l0,0
	C73.5,162.8,72.8,163.5,72,163.5L72,163.5L72,163.5z M64,130.6c-0.9,0-1.5-0.7-1.5-1.5c0-0.8,0.7-1.5,1.5-1.5c0.9,0,1.5,0.7,1.5,1.5
	l0,0C65.5,129.9,64.9,130.6,64,130.6L64,130.6z M64,138.8c-0.9,0-1.5-0.7-1.5-1.5s0.7-1.5,1.5-1.5c0.9,0,1.5,0.7,1.5,1.5l0,0
	C65.5,138.2,64.9,138.8,64,138.8C64,138.9,64,138.9,64,138.8L64,138.8z M64,147.1c-0.9,0-1.5-0.7-1.5-1.5c0-0.8,0.6-1.6,1.5-1.6
	s1.5,0.7,1.5,1.5l0,0C65.5,146.4,64.9,147.1,64,147.1L64,147.1L64,147.1z M64,155.3c-0.9,0-1.5-0.7-1.5-1.5s0.7-1.5,1.5-1.5
	c0.9,0,1.5,0.7,1.5,1.5l0,0C65.5,154.6,64.9,155.3,64,155.3L64,155.3L64,155.3z M64,163.5c-0.9,0-1.5-0.7-1.5-1.5s0.7-1.5,1.5-1.5
	c0.9,0,1.5,0.7,1.5,1.5l0,0C65.5,162.8,64.9,163.5,64,163.5L64,163.5L64,163.5z M56,130.6c-0.9,0-1.5-0.7-1.5-1.5
	c0-0.8,0.7-1.5,1.5-1.5c0.9,0,1.5,0.7,1.5,1.5l0,0C57.6,129.9,56.9,130.6,56,130.6L56,130.6L56,130.6z M56,138.8
	c-0.9,0-1.5-0.7-1.5-1.5s0.7-1.5,1.5-1.5c0.9,0,1.5,0.7,1.5,1.5l0,0C57.6,138.2,56.9,138.8,56,138.8C56,138.9,56,138.9,56,138.8
	L56,138.8z M56,147.1c-0.9,0-1.5-0.7-1.5-1.5c0-0.8,0.7-1.6,1.5-1.6c0.9,0,1.5,0.7,1.5,1.5l0,0C57.6,146.4,56.9,147.1,56,147.1
	L56,147.1L56,147.1z M56,155.3c-0.9,0-1.5-0.7-1.5-1.5s0.7-1.5,1.5-1.5c0.9,0,1.5,0.7,1.5,1.5l0,0C57.6,154.6,56.9,155.3,56,155.3
	L56,155.3L56,155.3z M56,163.5c-0.9,0-1.5-0.7-1.5-1.5s0.7-1.5,1.5-1.5c0.9,0,1.5,0.7,1.5,1.5l0,0C57.6,162.8,56.9,163.5,56,163.5
	L56,163.5L56,163.5z"/>
<path class="st0" d="M96,89.6c-0.9,0-1.5-0.7-1.6-1.5c-0.1-0.8,0.7-1.5,1.5-1.6c0.8-0.1,1.5,0.7,1.6,1.5l0,0
	C97.5,88.9,96.8,89.6,96,89.6z M96,97.8c-0.9,0-1.5-0.7-1.6-1.5c-0.1-0.8,0.7-1.5,1.5-1.6c0.8-0.1,1.5,0.7,1.6,1.5l0,0
	C97.5,97.1,96.8,97.8,96,97.8L96,97.8z M96,106.1c-0.9,0-1.5-0.7-1.6-1.5c-0.1-0.8,0.7-1.5,1.5-1.6c0.8-0.1,1.5,0.7,1.6,1.5l0,0
	C97.5,105.4,96.8,106,96,106.1z M96,114.3c-0.9,0-1.5-0.7-1.6-1.5c-0.1-0.8,0.7-1.5,1.5-1.6c0.8-0.1,1.5,0.7,1.6,1.5l0,0
	C97.5,113.6,96.8,114.3,96,114.3L96,114.3z M96,122.5c-0.9,0-1.5-0.7-1.6-1.5s0.7-1.5,1.5-1.6c0.8-0.1,1.5,0.7,1.6,1.5l0,0
	C97.5,121.8,96.8,122.5,96,122.5z M88,89.6c-0.9,0-1.5-0.7-1.5-1.5c0-0.8,0.7-1.5,1.5-1.5c0.9,0,1.5,0.7,1.5,1.5l0,0
	C89.5,88.9,88.9,89.6,88,89.6L88,89.6L88,89.6z M88,97.8c-0.9,0-1.5-0.7-1.5-1.5c0-0.8,0.7-1.5,1.5-1.5c0.9,0,1.5,0.7,1.5,1.5l0,0
	C89.5,97.1,88.9,97.8,88,97.8L88,97.8z M88,106c-0.9,0-1.5-0.7-1.5-1.5s0.6-1.5,1.5-1.5s1.5,0.7,1.5,1.5l0,0
	C89.5,105.4,88.9,106,88,106C88,106.1,88,106.1,88,106L88,106z M88,114.3c-0.9,0-1.5-0.7-1.5-1.5c0-0.8,0.7-1.5,1.5-1.5
	c0.9,0,1.5,0.7,1.5,1.5l0,0C89.5,113.6,88.9,114.3,88,114.3L88,114.3L88,114.3z M88,122.5c-0.9,0-1.5-0.7-1.5-1.5s0.7-1.5,1.5-1.5
	c0.9,0,1.5,0.7,1.5,1.5l0,0C89.5,121.8,88.9,122.5,88,122.5L88,122.5L88,122.5z M80,89.6c-0.9,0-1.5-0.7-1.5-1.5
	c0-0.8,0.7-1.5,1.5-1.5c0.9,0,1.5,0.7,1.5,1.5l0,0C81.6,88.9,80.9,89.6,80,89.6L80,89.6L80,89.6z M80,97.8c-0.9,0-1.5-0.7-1.5-1.5
	c0-0.8,0.7-1.5,1.5-1.5c0.9,0,1.5,0.7,1.5,1.5l0,0C81.6,97.1,80.9,97.8,80,97.8L80,97.8L80,97.8z M80,106c-0.9,0-1.5-0.7-1.5-1.5
	s0.7-1.5,1.5-1.5c0.9,0,1.5,0.7,1.5,1.5l0,0C81.6,105.4,80.9,106,80,106C80,106.1,80,106.1,80,106L80,106z M80,114.3
	c-0.9,0-1.5-0.7-1.5-1.5c0-0.8,0.7-1.5,1.5-1.5c0.9,0,1.5,0.7,1.5,1.5l0,0C81.6,113.6,80.9,114.3,80,114.3L80,114.3L80,114.3z
	 M80,122.5c-0.9,0-1.5-0.7-1.5-1.5s0.7-1.5,1.5-1.5c0.9,0,1.5,0.7,1.5,1.5l0,0C81.6,121.8,80.9,122.5,80,122.5L80,122.5L80,122.5z
	 M96,130.6c-0.9,0-1.5-0.7-1.6-1.5c-0.1-0.8,0.7-1.5,1.5-1.6c0.8-0.1,1.5,0.7,1.6,1.5l0,0C97.5,129.9,96.8,130.6,96,130.6L96,130.6
	L96,130.6z M96,138.8c-0.9,0-1.5-0.7-1.6-1.5s0.7-1.5,1.5-1.6c0.8-0.1,1.5,0.7,1.6,1.5l0,0C97.5,138.2,96.8,138.8,96,138.8
	C96,138.9,96,138.9,96,138.8L96,138.8z M96,147.1c-0.9,0-1.5-0.7-1.6-1.5c-0.1-0.8,0.7-1.5,1.5-1.6c0.8-0.1,1.5,0.7,1.6,1.5l0,0
	C97.5,146.4,96.8,147.1,96,147.1L96,147.1z M96,155.3c-0.9,0-1.5-0.7-1.6-1.5s0.7-1.5,1.5-1.6c0.8-0.1,1.5,0.7,1.6,1.5l0,0
	C97.5,154.6,96.8,155.3,96,155.3L96,155.3L96,155.3z M96,163.5c-0.9,0-1.5-0.7-1.6-1.5s0.7-1.5,1.5-1.6c0.8-0.1,1.5,0.7,1.6,1.5l0,0
	C97.5,162.8,96.8,163.5,96,163.5L96,163.5L96,163.5z M88,130.6c-0.9,0-1.5-0.7-1.5-1.5c0-0.8,0.7-1.5,1.5-1.5c0.9,0,1.5,0.7,1.5,1.5
	l0,0C89.5,129.9,88.9,130.6,88,130.6L88,130.6z M88,138.8c-0.9,0-1.5-0.7-1.5-1.5s0.7-1.5,1.5-1.5c0.9,0,1.5,0.7,1.5,1.5l0,0
	C89.5,138.2,88.9,138.8,88,138.8C88,138.9,88,138.9,88,138.8L88,138.8z M88,147.1c-0.9,0-1.5-0.7-1.5-1.5c0-0.8,0.6-1.6,1.5-1.6
	s1.5,0.7,1.5,1.5l0,0C89.5,146.4,88.9,147.1,88,147.1L88,147.1L88,147.1z M88,155.3c-0.9,0-1.5-0.7-1.5-1.5s0.7-1.5,1.5-1.5
	c0.9,0,1.5,0.7,1.5,1.5l0,0C89.5,154.6,88.9,155.3,88,155.3L88,155.3L88,155.3z M88,163.5c-0.9,0-1.5-0.7-1.5-1.5s0.7-1.5,1.5-1.5
	c0.9,0,1.5,0.7,1.5,1.5l0,0C89.5,162.8,88.9,163.5,88,163.5L88,163.5L88,163.5z M80,130.6c-0.9,0-1.5-0.7-1.5-1.5
	c0-0.8,0.7-1.5,1.5-1.5c0.9,0,1.5,0.7,1.5,1.5l0,0C81.6,129.9,80.9,130.6,80,130.6L80,130.6L80,130.6z M80,138.8
	c-0.9,0-1.5-0.7-1.5-1.5s0.7-1.5,1.5-1.5c0.9,0,1.5,0.7,1.5,1.5l0,0C81.6,138.2,80.9,138.8,80,138.8C80,138.9,80,138.9,80,138.8
	L80,138.8z M80,147.1c-0.9,0-1.5-0.7-1.5-1.5c0-0.8,0.7-1.6,1.5-1.6c0.9,0,1.5,0.7,1.5,1.5l0,0C81.6,146.4,80.9,147.1,80,147.1
	L80,147.1L80,147.1z M80,155.3c-0.9,0-1.5-0.7-1.5-1.5s0.7-1.5,1.5-1.5c0.9,0,1.5,0.7,1.5,1.5l0,0C81.6,154.6,80.9,155.3,80,155.3
	L80,155.3L80,155.3z M80,163.5c-0.9,0-1.5-0.7-1.5-1.5s0.7-1.5,1.5-1.5c0.9,0,1.5,0.7,1.5,1.5l0,0C81.6,162.8,80.9,163.5,80,163.5
	L80,163.5L80,163.5z"/>
<path class="st0" d="M120,89.6c-0.9,0-1.5-0.7-1.6-1.5c-0.1-0.8,0.7-1.5,1.5-1.6c0.8-0.1,1.5,0.7,1.6,1.5l0,0
	C121.5,88.9,120.8,89.6,120,89.6z M120,97.8c-0.9,0-1.5-0.7-1.6-1.5c-0.1-0.8,0.7-1.5,1.5-1.6c0.8-0.1,1.5,0.7,1.6,1.5l0,0
	C121.5,97.1,120.8,97.8,120,97.8L120,97.8z M120,106.1c-0.9,0-1.5-0.7-1.6-1.5c-0.1-0.8,0.7-1.5,1.5-1.6c0.8-0.1,1.5,0.7,1.6,1.5
	l0,0C121.5,105.4,120.8,106,120,106.1z M120,114.3c-0.9,0-1.5-0.7-1.6-1.5c-0.1-0.8,0.7-1.5,1.5-1.6c0.8-0.1,1.5,0.7,1.6,1.5l0,0
	C121.5,113.6,120.8,114.3,120,114.3L120,114.3z M120,122.5c-0.9,0-1.5-0.7-1.6-1.5s0.7-1.5,1.5-1.6c0.8-0.1,1.5,0.7,1.6,1.5l0,0
	C121.5,121.8,120.8,122.5,120,122.5z M112,89.6c-0.9,0-1.5-0.7-1.5-1.5c0-0.8,0.7-1.5,1.5-1.5c0.9,0,1.5,0.7,1.5,1.5l0,0
	C113.5,88.9,112.9,89.6,112,89.6L112,89.6L112,89.6z M112,97.8c-0.9,0-1.5-0.7-1.5-1.5c0-0.8,0.7-1.5,1.5-1.5c0.9,0,1.5,0.7,1.5,1.5
	l0,0C113.5,97.1,112.9,97.8,112,97.8L112,97.8z M112,106c-0.9,0-1.5-0.7-1.5-1.5s0.6-1.5,1.5-1.5s1.5,0.7,1.5,1.5l0,0
	C113.5,105.4,112.9,106,112,106C112,106.1,112,106.1,112,106L112,106z M112,114.3c-0.9,0-1.5-0.7-1.5-1.5c0-0.8,0.7-1.5,1.5-1.5
	c0.9,0,1.5,0.7,1.5,1.5l0,0C113.5,113.6,112.9,114.3,112,114.3L112,114.3L112,114.3z M112,122.5c-0.9,0-1.5-0.7-1.5-1.5
	s0.7-1.5,1.5-1.5c0.9,0,1.5,0.7,1.5,1.5l0,0C113.5,121.8,112.9,122.5,112,122.5L112,122.5L112,122.5z M104,89.6
	c-0.9,0-1.5-0.7-1.5-1.5c0-0.8,0.7-1.5,1.5-1.5c0.9,0,1.5,0.7,1.5,1.5l0,0C105.6,88.9,104.9,89.6,104,89.6L104,89.6L104,89.6z
	 M104,97.8c-0.9,0-1.5-0.7-1.5-1.5c0-0.8,0.7-1.5,1.5-1.5c0.9,0,1.5,0.7,1.5,1.5l0,0C105.6,97.1,104.9,97.8,104,97.8L104,97.8
	L104,97.8z M104,106c-0.9,0-1.5-0.7-1.5-1.5s0.7-1.5,1.5-1.5c0.9,0,1.5,0.7,1.5,1.5l0,0C105.6,105.4,104.9,106,104,106
	C104,106.1,104,106.1,104,106L104,106z M104,114.3c-0.9,0-1.5-0.7-1.5-1.5c0-0.8,0.7-1.5,1.5-1.5c0.9,0,1.5,0.7,1.5,1.5l0,0
	C105.6,113.6,104.9,114.3,104,114.3L104,114.3L104,114.3z M104,122.5c-0.9,0-1.5-0.7-1.5-1.5s0.7-1.5,1.5-1.5c0.9,0,1.5,0.7,1.5,1.5
	l0,0C105.6,121.8,104.9,122.5,104,122.5L104,122.5L104,122.5z M120,130.6c-0.9,0-1.5-0.7-1.6-1.5c-0.1-0.8,0.7-1.5,1.5-1.6
	c0.8-0.1,1.5,0.7,1.6,1.5l0,0C121.5,129.9,120.8,130.6,120,130.6L120,130.6L120,130.6z M120,138.8c-0.9,0-1.5-0.7-1.6-1.5
	s0.7-1.5,1.5-1.6c0.8-0.1,1.5,0.7,1.6,1.5l0,0C121.5,138.2,120.8,138.8,120,138.8C120,138.9,120,138.9,120,138.8L120,138.8z
	 M120,147.1c-0.9,0-1.5-0.7-1.6-1.5c-0.1-0.8,0.7-1.5,1.5-1.6c0.8-0.1,1.5,0.7,1.6,1.5l0,0C121.5,146.4,120.8,147.1,120,147.1
	L120,147.1z M120,155.3c-0.9,0-1.5-0.7-1.6-1.5s0.7-1.5,1.5-1.6c0.8-0.1,1.5,0.7,1.6,1.5l0,0C121.5,154.6,120.8,155.3,120,155.3
	L120,155.3L120,155.3z M120,163.5c-0.9,0-1.5-0.7-1.6-1.5s0.7-1.5,1.5-1.6c0.8-0.1,1.5,0.7,1.6,1.5l0,0
	C121.5,162.8,120.8,163.5,120,163.5L120,163.5L120,163.5z M112,130.6c-0.9,0-1.5-0.7-1.5-1.5c0-0.8,0.7-1.5,1.5-1.5
	c0.9,0,1.5,0.7,1.5,1.5l0,0C113.5,129.9,112.9,130.6,112,130.6L112,130.6z M112,138.8c-0.9,0-1.5-0.7-1.5-1.5s0.7-1.5,1.5-1.5
	c0.9,0,1.5,0.7,1.5,1.5l0,0C113.5,138.2,112.9,138.8,112,138.8C112,138.9,112,138.9,112,138.8L112,138.8z M112,147.1
	c-0.9,0-1.5-0.7-1.5-1.5c0-0.8,0.6-1.6,1.5-1.6s1.5,0.7,1.5,1.5l0,0C113.5,146.4,112.9,147.1,112,147.1L112,147.1L112,147.1z
	 M112,155.3c-0.9,0-1.5-0.7-1.5-1.5s0.7-1.5,1.5-1.5c0.9,0,1.5,0.7,1.5,1.5l0,0C113.5,154.6,112.9,155.3,112,155.3L112,155.3
	L112,155.3z M112,163.5c-0.9,0-1.5-0.7-1.5-1.5s0.7-1.5,1.5-1.5c0.9,0,1.5,0.7,1.5,1.5l0,0C113.5,162.8,112.9,163.5,112,163.5
	L112,163.5L112,163.5z M104,130.6c-0.9,0-1.5-0.7-1.5-1.5c0-0.8,0.7-1.5,1.5-1.5c0.9,0,1.5,0.7,1.5,1.5l0,0
	C105.6,129.9,104.9,130.6,104,130.6L104,130.6L104,130.6z M104,138.8c-0.9,0-1.5-0.7-1.5-1.5s0.7-1.5,1.5-1.5c0.9,0,1.5,0.7,1.5,1.5
	l0,0C105.6,138.2,104.9,138.8,104,138.8C104,138.9,104,138.9,104,138.8L104,138.8z M104,147.1c-0.9,0-1.5-0.7-1.5-1.5
	c0-0.8,0.7-1.6,1.5-1.6c0.9,0,1.5,0.7,1.5,1.5l0,0C105.6,146.4,104.9,147.1,104,147.1L104,147.1L104,147.1z M104,155.3
	c-0.9,0-1.5-0.7-1.5-1.5s0.7-1.5,1.5-1.5c0.9,0,1.5,0.7,1.5,1.5l0,0C105.6,154.6,104.9,155.3,104,155.3L104,155.3L104,155.3z
	 M104,163.5c-0.9,0-1.5-0.7-1.5-1.5s0.7-1.5,1.5-1.5c0.9,0,1.5,0.7,1.5,1.5l0,0C105.6,162.8,104.9,163.5,104,163.5L104,163.5
	L104,163.5z"/>
<path class="st0" d="M144,89.6c-0.9,0-1.5-0.7-1.6-1.5c-0.1-0.8,0.7-1.5,1.5-1.6c0.8-0.1,1.5,0.7,1.6,1.5l0,0
	C145.5,88.9,144.8,89.6,144,89.6z M144,97.8c-0.9,0-1.5-0.7-1.6-1.5c-0.1-0.8,0.7-1.5,1.5-1.6c0.8-0.1,1.5,0.7,1.6,1.5l0,0
	C145.5,97.1,144.8,97.8,144,97.8L144,97.8z M144,106.1c-0.9,0-1.5-0.7-1.6-1.5c-0.1-0.8,0.7-1.5,1.5-1.6c0.8-0.1,1.5,0.7,1.6,1.5
	l0,0C145.5,105.4,144.8,106,144,106.1z M144,114.3c-0.9,0-1.5-0.7-1.6-1.5c-0.1-0.8,0.7-1.5,1.5-1.6c0.8-0.1,1.5,0.7,1.6,1.5l0,0
	C145.5,113.6,144.8,114.3,144,114.3L144,114.3z M144,122.5c-0.9,0-1.5-0.7-1.6-1.5c-0.1-0.8,0.7-1.5,1.5-1.6
	c0.8-0.1,1.5,0.7,1.6,1.5l0,0C145.5,121.8,144.8,122.5,144,122.5z M136,89.6c-0.9,0-1.5-0.7-1.5-1.5c0-0.8,0.7-1.5,1.5-1.5
	c0.9,0,1.5,0.7,1.5,1.5l0,0C137.5,88.9,136.9,89.6,136,89.6L136,89.6L136,89.6z M136,97.8c-0.9,0-1.5-0.7-1.5-1.5
	c0-0.8,0.7-1.5,1.5-1.5c0.9,0,1.5,0.7,1.5,1.5l0,0C137.5,97.1,136.9,97.8,136,97.8L136,97.8z M136,106c-0.9,0-1.5-0.7-1.5-1.5
	s0.6-1.5,1.5-1.5s1.5,0.7,1.5,1.5l0,0C137.5,105.4,136.9,106,136,106C136,106.1,136,106.1,136,106L136,106z M136,114.3
	c-0.9,0-1.5-0.7-1.5-1.5c0-0.8,0.7-1.5,1.5-1.5c0.9,0,1.5,0.7,1.5,1.5l0,0C137.5,113.6,136.9,114.3,136,114.3L136,114.3L136,114.3z
	 M136,122.5c-0.9,0-1.5-0.7-1.5-1.5s0.7-1.5,1.5-1.5c0.9,0,1.5,0.7,1.5,1.5l0,0C137.5,121.8,136.9,122.5,136,122.5L136,122.5
	L136,122.5z M128,89.6c-0.9,0-1.5-0.7-1.5-1.5c0-0.8,0.7-1.5,1.5-1.5c0.9,0,1.5,0.7,1.5,1.5l0,0C129.6,88.9,128.9,89.6,128,89.6
	L128,89.6L128,89.6z M128,97.8c-0.9,0-1.5-0.7-1.5-1.5c0-0.8,0.7-1.5,1.5-1.5c0.9,0,1.5,0.7,1.5,1.5l0,0
	C129.6,97.1,128.9,97.8,128,97.8L128,97.8L128,97.8z M128,106c-0.9,0-1.5-0.7-1.5-1.5s0.7-1.5,1.5-1.5c0.9,0,1.5,0.7,1.5,1.5l0,0
	C129.6,105.4,128.9,106,128,106C128,106.1,128,106.1,128,106L128,106z M128,114.3c-0.9,0-1.5-0.7-1.5-1.5c0-0.8,0.7-1.5,1.5-1.5
	c0.9,0,1.5,0.7,1.5,1.5l0,0C129.6,113.6,128.9,114.3,128,114.3L128,114.3L128,114.3z M128,122.5c-0.9,0-1.5-0.7-1.5-1.5
	s0.7-1.5,1.5-1.5c0.9,0,1.5,0.7,1.5,1.5l0,0C129.6,121.8,128.9,122.5,128,122.5L128,122.5L128,122.5z M144,130.6
	c-0.9,0-1.5-0.7-1.6-1.5c-0.1-0.8,0.7-1.5,1.5-1.6c0.8-0.1,1.5,0.7,1.6,1.5l0,0C145.5,129.9,144.8,130.6,144,130.6L144,130.6
	L144,130.6z M144,138.8c-0.9,0-1.5-0.7-1.6-1.5c-0.1-0.8,0.7-1.5,1.5-1.6c0.8-0.1,1.5,0.7,1.6,1.5l0,0
	C145.5,138.2,144.8,138.8,144,138.8C144,138.9,144,138.9,144,138.8L144,138.8z M144,147.1c-0.9,0-1.5-0.7-1.6-1.5
	c-0.1-0.8,0.7-1.5,1.5-1.6c0.8-0.1,1.5,0.7,1.6,1.5l0,0C145.5,146.4,144.8,147.1,144,147.1L144,147.1z M144,155.3
	c-0.9,0-1.5-0.7-1.6-1.5c-0.1-0.8,0.7-1.5,1.5-1.6c0.8-0.1,1.5,0.7,1.6,1.5l0,0C145.5,154.6,144.8,155.3,144,155.3L144,155.3
	L144,155.3z M144,163.5c-0.9,0-1.5-0.7-1.6-1.5c-0.1-0.8,0.7-1.5,1.5-1.6c0.8-0.1,1.5,0.7,1.6,1.5l0,0
	C145.5,162.8,144.8,163.5,144,163.5L144,163.5L144,163.5z M136,130.6c-0.9,0-1.5-0.7-1.5-1.5c0-0.8,0.7-1.5,1.5-1.5
	c0.9,0,1.5,0.7,1.5,1.5l0,0C137.5,129.9,136.9,130.6,136,130.6L136,130.6z M136,138.8c-0.9,0-1.5-0.7-1.5-1.5s0.7-1.5,1.5-1.5
	c0.9,0,1.5,0.7,1.5,1.5l0,0C137.5,138.2,136.9,138.8,136,138.8C136,138.9,136,138.9,136,138.8L136,138.8z M136,147.1
	c-0.9,0-1.5-0.7-1.5-1.5c0-0.8,0.6-1.6,1.5-1.6s1.5,0.7,1.5,1.5l0,0C137.5,146.4,136.9,147.1,136,147.1L136,147.1L136,147.1z
	 M136,155.3c-0.9,0-1.5-0.7-1.5-1.5s0.7-1.5,1.5-1.5c0.9,0,1.5,0.7,1.5,1.5l0,0C137.5,154.6,136.9,155.3,136,155.3L136,155.3
	L136,155.3z M136,163.5c-0.9,0-1.5-0.7-1.5-1.5s0.7-1.5,1.5-1.5c0.9,0,1.5,0.7,1.5,1.5l0,0C137.5,162.8,136.9,163.5,136,163.5
	L136,163.5L136,163.5z M128,130.6c-0.9,0-1.5-0.7-1.5-1.5c0-0.8,0.7-1.5,1.5-1.5c0.9,0,1.5,0.7,1.5,1.5l0,0
	C129.6,129.9,128.9,130.6,128,130.6L128,130.6L128,130.6z M128,138.8c-0.9,0-1.5-0.7-1.5-1.5s0.7-1.5,1.5-1.5c0.9,0,1.5,0.7,1.5,1.5
	l0,0C129.6,138.2,128.9,138.8,128,138.8C128,138.9,128,138.9,128,138.8L128,138.8z M128,147.1c-0.9,0-1.5-0.7-1.5-1.5
	c0-0.8,0.7-1.6,1.5-1.6c0.9,0,1.5,0.7,1.5,1.5l0,0C129.6,146.4,128.9,147.1,128,147.1L128,147.1L128,147.1z M128,155.3
	c-0.9,0-1.5-0.7-1.5-1.5s0.7-1.5,1.5-1.5c0.9,0,1.5,0.7,1.5,1.5l0,0C129.6,154.6,128.9,155.3,128,155.3L128,155.3L128,155.3z
	 M128,163.5c-0.9,0-1.5-0.7-1.5-1.5s0.7-1.5,1.5-1.5c0.9,0,1.5,0.7,1.5,1.5l0,0C129.6,162.8,128.9,163.5,128,163.5L128,163.5
	L128,163.5z"/>
<path class="st0" d="M168,89.6c-0.9,0-1.5-0.7-1.6-1.5c-0.1-0.8,0.7-1.5,1.5-1.6c0.8-0.1,1.5,0.7,1.6,1.5l0,0
	C169.5,88.9,168.8,89.6,168,89.6z M168,97.8c-0.9,0-1.5-0.7-1.6-1.5c-0.1-0.8,0.7-1.5,1.5-1.6c0.8-0.1,1.5,0.7,1.6,1.5l0,0
	C169.5,97.1,168.8,97.8,168,97.8L168,97.8z M168,106.1c-0.9,0-1.5-0.7-1.6-1.5c-0.1-0.8,0.7-1.5,1.5-1.6c0.8-0.1,1.5,0.7,1.6,1.5
	l0,0C169.5,105.4,168.8,106,168,106.1z M168,114.3c-0.9,0-1.5-0.7-1.6-1.5c-0.1-0.8,0.7-1.5,1.5-1.6c0.8-0.1,1.5,0.7,1.6,1.5l0,0
	C169.5,113.6,168.8,114.3,168,114.3L168,114.3z M168,122.5c-0.9,0-1.5-0.7-1.6-1.5c-0.1-0.8,0.7-1.5,1.5-1.6
	c0.8-0.1,1.5,0.7,1.6,1.5l0,0C169.5,121.8,168.8,122.5,168,122.5z M160,89.6c-0.9,0-1.5-0.7-1.5-1.5c0-0.8,0.7-1.5,1.5-1.5
	c0.9,0,1.5,0.7,1.5,1.5l0,0C161.5,88.9,160.9,89.6,160,89.6L160,89.6L160,89.6z M160,97.8c-0.9,0-1.5-0.7-1.5-1.5
	c0-0.8,0.7-1.5,1.5-1.5c0.9,0,1.5,0.7,1.5,1.5l0,0C161.5,97.1,160.9,97.8,160,97.8L160,97.8z M160,106c-0.9,0-1.5-0.7-1.5-1.5
	s0.6-1.5,1.5-1.5s1.5,0.7,1.5,1.5l0,0C161.5,105.4,160.9,106,160,106C160,106.1,160,106.1,160,106L160,106z M160,114.3
	c-0.9,0-1.5-0.7-1.5-1.5c0-0.8,0.7-1.5,1.5-1.5c0.9,0,1.5,0.7,1.5,1.5l0,0C161.5,113.6,160.9,114.3,160,114.3L160,114.3L160,114.3z
	 M160,122.5c-0.9,0-1.5-0.7-1.5-1.5s0.7-1.5,1.5-1.5c0.9,0,1.5,0.7,1.5,1.5l0,0C161.5,121.8,160.9,122.5,160,122.5L160,122.5
	L160,122.5z M152,89.6c-0.9,0-1.5-0.7-1.5-1.5c0-0.8,0.7-1.5,1.5-1.5c0.9,0,1.5,0.7,1.5,1.5l0,0C153.6,88.9,152.9,89.6,152,89.6
	L152,89.6L152,89.6z M152,97.8c-0.9,0-1.5-0.7-1.5-1.5c0-0.8,0.7-1.5,1.5-1.5c0.9,0,1.5,0.7,1.5,1.5l0,0
	C153.6,97.1,152.9,97.8,152,97.8L152,97.8L152,97.8z M152,106c-0.9,0-1.5-0.7-1.5-1.5s0.7-1.5,1.5-1.5c0.9,0,1.5,0.7,1.5,1.5l0,0
	C153.6,105.4,152.9,106,152,106C152,106.1,152,106.1,152,106L152,106z M152,114.3c-0.9,0-1.5-0.7-1.5-1.5c0-0.8,0.7-1.5,1.5-1.5
	c0.9,0,1.5,0.7,1.5,1.5l0,0C153.6,113.6,152.9,114.3,152,114.3L152,114.3L152,114.3z M152,122.5c-0.9,0-1.5-0.7-1.5-1.5
	s0.7-1.5,1.5-1.5c0.9,0,1.5,0.7,1.5,1.5l0,0C153.6,121.8,152.9,122.5,152,122.5L152,122.5L152,122.5z M168,130.6
	c-0.9,0-1.5-0.7-1.6-1.5c-0.1-0.8,0.7-1.5,1.5-1.6c0.8-0.1,1.5,0.7,1.6,1.5l0,0C169.5,129.9,168.8,130.6,168,130.6L168,130.6
	L168,130.6z M168,138.8c-0.9,0-1.5-0.7-1.6-1.5c-0.1-0.8,0.7-1.5,1.5-1.6c0.8-0.1,1.5,0.7,1.6,1.5l0,0
	C169.5,138.2,168.8,138.8,168,138.8C168,138.9,168,138.9,168,138.8L168,138.8z M168,147.1c-0.9,0-1.5-0.7-1.6-1.5
	c-0.1-0.8,0.7-1.5,1.5-1.6c0.8-0.1,1.5,0.7,1.6,1.5l0,0C169.5,146.4,168.8,147.1,168,147.1L168,147.1z M168,155.3
	c-0.9,0-1.5-0.7-1.6-1.5c-0.1-0.8,0.7-1.5,1.5-1.6c0.8-0.1,1.5,0.7,1.6,1.5l0,0C169.5,154.6,168.8,155.3,168,155.3L168,155.3
	L168,155.3z M168,163.5c-0.9,0-1.5-0.7-1.6-1.5c-0.1-0.8,0.7-1.5,1.5-1.6c0.8-0.1,1.5,0.7,1.6,1.5l0,0
	C169.5,162.8,168.8,163.5,168,163.5L168,163.5L168,163.5z M160,130.6c-0.9,0-1.5-0.7-1.5-1.5c0-0.8,0.7-1.5,1.5-1.5
	c0.9,0,1.5,0.7,1.5,1.5l0,0C161.5,129.9,160.9,130.6,160,130.6L160,130.6z M160,138.8c-0.9,0-1.5-0.7-1.5-1.5s0.7-1.5,1.5-1.5
	c0.9,0,1.5,0.7,1.5,1.5l0,0C161.5,138.2,160.9,138.8,160,138.8C160,138.9,160,138.9,160,138.8L160,138.8z M160,147.1
	c-0.9,0-1.5-0.7-1.5-1.5c0-0.8,0.6-1.6,1.5-1.6s1.5,0.7,1.5,1.5l0,0C161.5,146.4,160.9,147.1,160,147.1L160,147.1L160,147.1z
	 M160,155.3c-0.9,0-1.5-0.7-1.5-1.5s0.7-1.5,1.5-1.5c0.9,0,1.5,0.7,1.5,1.5l0,0C161.5,154.6,160.9,155.3,160,155.3L160,155.3
	L160,155.3z M160,163.5c-0.9,0-1.5-0.7-1.5-1.5s0.7-1.5,1.5-1.5c0.9,0,1.5,0.7,1.5,1.5l0,0C161.5,162.8,160.9,163.5,160,163.5
	L160,163.5L160,163.5z M152,130.6c-0.9,0-1.5-0.7-1.5-1.5c0-0.8,0.7-1.5,1.5-1.5c0.9,0,1.5,0.7,1.5,1.5l0,0
	C153.6,129.9,152.9,130.6,152,130.6L152,130.6L152,130.6z M152,138.8c-0.9,0-1.5-0.7-1.5-1.5s0.7-1.5,1.5-1.5c0.9,0,1.5,0.7,1.5,1.5
	l0,0C153.6,138.2,152.9,138.8,152,138.8C152,138.9,152,138.9,152,138.8L152,138.8z M152,147.1c-0.9,0-1.5-0.7-1.5-1.5
	c0-0.8,0.7-1.6,1.5-1.6c0.9,0,1.5,0.7,1.5,1.5l0,0C153.6,146.4,152.9,147.1,152,147.1L152,147.1L152,147.1z M152,155.3
	c-0.9,0-1.5-0.7-1.5-1.5s0.7-1.5,1.5-1.5c0.9,0,1.5,0.7,1.5,1.5l0,0C153.6,154.6,152.9,155.3,152,155.3L152,155.3L152,155.3z
	 M152,163.5c-0.9,0-1.5-0.7-1.5-1.5s0.7-1.5,1.5-1.5c0.9,0,1.5,0.7,1.5,1.5l0,0C153.6,162.8,152.9,163.5,152,163.5L152,163.5
	L152,163.5z"/>
<path class="st0" d="M192,89.6c-0.9,0-1.5-0.7-1.6-1.5c-0.1-0.8,0.7-1.5,1.5-1.6c0.8-0.1,1.5,0.7,1.6,1.5l0,0
	C193.5,88.9,192.8,89.6,192,89.6z M192,97.8c-0.9,0-1.5-0.7-1.6-1.5c-0.1-0.8,0.7-1.5,1.5-1.6c0.8-0.1,1.5,0.7,1.6,1.5l0,0
	C193.5,97.1,192.8,97.8,192,97.8L192,97.8z M192,106.1c-0.9,0-1.5-0.7-1.6-1.5c-0.1-0.8,0.7-1.5,1.5-1.6c0.8-0.1,1.5,0.7,1.6,1.5
	l0,0C193.5,105.4,192.8,106,192,106.1z M192,114.3c-0.9,0-1.5-0.7-1.6-1.5c-0.1-0.8,0.7-1.5,1.5-1.6c0.8-0.1,1.5,0.7,1.6,1.5l0,0
	C193.5,113.6,192.8,114.3,192,114.3L192,114.3z M192,122.5c-0.9,0-1.5-0.7-1.6-1.5c-0.1-0.8,0.7-1.5,1.5-1.6
	c0.8-0.1,1.5,0.7,1.6,1.5l0,0C193.5,121.8,192.8,122.5,192,122.5z M184,89.6c-0.9,0-1.5-0.7-1.5-1.5c0-0.8,0.7-1.5,1.5-1.5
	c0.9,0,1.5,0.7,1.5,1.5l0,0C185.5,88.9,184.9,89.6,184,89.6L184,89.6L184,89.6z M184,97.8c-0.9,0-1.5-0.7-1.5-1.5
	c0-0.8,0.7-1.5,1.5-1.5c0.9,0,1.5,0.7,1.5,1.5l0,0C185.5,97.1,184.9,97.8,184,97.8L184,97.8z M184,106c-0.9,0-1.5-0.7-1.5-1.5
	s0.6-1.5,1.5-1.5s1.5,0.7,1.5,1.5l0,0C185.5,105.4,184.9,106,184,106C184,106.1,184,106.1,184,106L184,106z M184,114.3
	c-0.9,0-1.5-0.7-1.5-1.5c0-0.8,0.7-1.5,1.5-1.5c0.9,0,1.5,0.7,1.5,1.5l0,0C185.5,113.6,184.9,114.3,184,114.3L184,114.3L184,114.3z
	 M184,122.5c-0.9,0-1.5-0.7-1.5-1.5s0.7-1.5,1.5-1.5c0.9,0,1.5,0.7,1.5,1.5l0,0C185.5,121.8,184.9,122.5,184,122.5L184,122.5
	L184,122.5z M176,89.6c-0.9,0-1.5-0.7-1.5-1.5c0-0.8,0.7-1.5,1.5-1.5c0.9,0,1.5,0.7,1.5,1.5l0,0C177.6,88.9,176.9,89.6,176,89.6
	L176,89.6L176,89.6z M176,97.8c-0.9,0-1.5-0.7-1.5-1.5c0-0.8,0.7-1.5,1.5-1.5c0.9,0,1.5,0.7,1.5,1.5l0,0
	C177.6,97.1,176.9,97.8,176,97.8L176,97.8L176,97.8z M176,106c-0.9,0-1.5-0.7-1.5-1.5s0.7-1.5,1.5-1.5c0.9,0,1.5,0.7,1.5,1.5l0,0
	C177.6,105.4,176.9,106,176,106C176,106.1,176,106.1,176,106L176,106z M176,114.3c-0.9,0-1.5-0.7-1.5-1.5c0-0.8,0.7-1.5,1.5-1.5
	c0.9,0,1.5,0.7,1.5,1.5l0,0C177.6,113.6,176.9,114.3,176,114.3L176,114.3L176,114.3z M176,122.5c-0.9,0-1.5-0.7-1.5-1.5
	s0.7-1.5,1.5-1.5c0.9,0,1.5,0.7,1.5,1.5l0,0C177.6,121.8,176.9,122.5,176,122.5L176,122.5L176,122.5z M192,130.6
	c-0.9,0-1.5-0.7-1.6-1.5c-0.1-0.8,0.7-1.5,1.5-1.6c0.8-0.1,1.5,0.7,1.6,1.5l0,0C193.5,129.9,192.8,130.6,192,130.6L192,130.6
	L192,130.6z M192,138.8c-0.9,0-1.5-0.7-1.6-1.5c-0.1-0.8,0.7-1.5,1.5-1.6c0.8-0.1,1.5,0.7,1.6,1.5l0,0
	C193.5,138.2,192.8,138.8,192,138.8C192,138.9,192,138.9,192,138.8L192,138.8z M192,147.1c-0.9,0-1.5-0.7-1.6-1.5
	c-0.1-0.8,0.7-1.5,1.5-1.6c0.8-0.1,1.5,0.7,1.6,1.5l0,0C193.5,146.4,192.8,147.1,192,147.1L192,147.1z M192,155.3
	c-0.9,0-1.5-0.7-1.6-1.5c-0.1-0.8,0.7-1.5,1.5-1.6c0.8-0.1,1.5,0.7,1.6,1.5l0,0C193.5,154.6,192.8,155.3,192,155.3L192,155.3
	L192,155.3z M192,163.5c-0.9,0-1.5-0.7-1.6-1.5c-0.1-0.8,0.7-1.5,1.5-1.6c0.8-0.1,1.5,0.7,1.6,1.5l0,0
	C193.5,162.8,192.8,163.5,192,163.5L192,163.5L192,163.5z M184,130.6c-0.9,0-1.5-0.7-1.5-1.5c0-0.8,0.7-1.5,1.5-1.5
	c0.9,0,1.5,0.7,1.5,1.5l0,0C185.5,129.9,184.9,130.6,184,130.6L184,130.6z M184,138.8c-0.9,0-1.5-0.7-1.5-1.5s0.7-1.5,1.5-1.5
	c0.9,0,1.5,0.7,1.5,1.5l0,0C185.5,138.2,184.9,138.8,184,138.8C184,138.9,184,138.9,184,138.8L184,138.8z M184,147.1
	c-0.9,0-1.5-0.7-1.5-1.5c0-0.8,0.6-1.6,1.5-1.6s1.5,0.7,1.5,1.5l0,0C185.5,146.4,184.9,147.1,184,147.1L184,147.1L184,147.1z
	 M184,155.3c-0.9,0-1.5-0.7-1.5-1.5s0.7-1.5,1.5-1.5c0.9,0,1.5,0.7,1.5,1.5l0,0C185.5,154.6,184.9,155.3,184,155.3L184,155.3
	L184,155.3z M184,163.5c-0.9,0-1.5-0.7-1.5-1.5s0.7-1.5,1.5-1.5c0.9,0,1.5,0.7,1.5,1.5l0,0C185.5,162.8,184.9,163.5,184,163.5
	L184,163.5L184,163.5z M176,130.6c-0.9,0-1.5-0.7-1.5-1.5c0-0.8,0.7-1.5,1.5-1.5c0.9,0,1.5,0.7,1.5,1.5l0,0
	C177.6,129.9,176.9,130.6,176,130.6L176,130.6L176,130.6z M176,138.8c-0.9,0-1.5-0.7-1.5-1.5s0.7-1.5,1.5-1.5c0.9,0,1.5,0.7,1.5,1.5
	l0,0C177.6,138.2,176.9,138.8,176,138.8C176,138.9,176,138.9,176,138.8L176,138.8z M176,147.1c-0.9,0-1.5-0.7-1.5-1.5
	c0-0.8,0.7-1.6,1.5-1.6c0.9,0,1.5,0.7,1.5,1.5l0,0C177.6,146.4,176.9,147.1,176,147.1L176,147.1L176,147.1z M176,155.3
	c-0.9,0-1.5-0.7-1.5-1.5s0.7-1.5,1.5-1.5c0.9,0,1.5,0.7,1.5,1.5l0,0C177.6,154.6,176.9,155.3,176,155.3L176,155.3L176,155.3z
	 M176,163.5c-0.9,0-1.5-0.7-1.5-1.5s0.7-1.5,1.5-1.5c0.9,0,1.5,0.7,1.5,1.5l0,0C177.6,162.8,176.9,163.5,176,163.5L176,163.5
	L176,163.5z"/>
<path class="st0" d="M24,172.6c-0.9,0-1.5-0.7-1.6-1.5c-0.1-0.8,0.7-1.5,1.5-1.6s1.5,0.7,1.6,1.5l0,0
	C25.5,171.9,24.8,172.6,24,172.6z M24,180.8c-0.9,0-1.5-0.7-1.6-1.5s0.7-1.5,1.5-1.6c0.8-0.1,1.5,0.7,1.6,1.5l0,0
	C25.5,180.1,24.8,180.8,24,180.8L24,180.8z M24,189.1c-0.9,0-1.5-0.7-1.6-1.5c-0.1-0.8,0.7-1.5,1.5-1.6s1.5,0.7,1.6,1.5l0,0
	C25.5,188.4,24.8,189,24,189.1z M24,197.3c-0.9,0-1.5-0.7-1.6-1.5s0.7-1.5,1.5-1.6c0.8-0.1,1.5,0.7,1.6,1.5l0,0
	C25.5,196.6,24.8,197.3,24,197.3L24,197.3z M24,205.5c-0.9,0-1.5-0.7-1.6-1.5s0.7-1.5,1.5-1.6c0.8-0.1,1.5,0.7,1.6,1.5l0,0
	C25.5,204.8,24.8,205.5,24,205.5z M16,172.6c-0.9,0-1.5-0.7-1.5-1.5c0-0.8,0.7-1.5,1.5-1.5c0.9,0,1.5,0.7,1.5,1.5l0,0
	C17.5,171.9,16.9,172.6,16,172.6L16,172.6L16,172.6z M16,180.8c-0.9,0-1.5-0.7-1.5-1.5s0.7-1.5,1.5-1.5c0.9,0,1.5,0.7,1.5,1.5l0,0
	C17.5,180.1,16.9,180.8,16,180.8L16,180.8z M16,189c-0.9,0-1.5-0.7-1.5-1.5s0.6-1.5,1.5-1.5s1.5,0.7,1.5,1.5l0,0
	C17.5,188.4,16.9,189,16,189C16,189.1,16,189.1,16,189L16,189z M16,197.3c-0.9,0-1.5-0.7-1.5-1.5s0.7-1.5,1.5-1.5
	c0.9,0,1.5,0.7,1.5,1.5l0,0C17.5,196.6,16.9,197.3,16,197.3L16,197.3L16,197.3z M16,205.5c-0.9,0-1.5-0.7-1.5-1.5s0.7-1.5,1.5-1.5
	c0.9,0,1.5,0.7,1.5,1.5l0,0C17.5,204.8,16.9,205.5,16,205.5L16,205.5L16,205.5z M8,172.6c-0.9,0-1.5-0.7-1.5-1.5
	c0-0.8,0.7-1.5,1.5-1.5c0.9,0,1.5,0.7,1.5,1.5l0,0C9.6,171.9,8.9,172.6,8,172.6L8,172.6L8,172.6z M8,180.8c-0.9,0-1.5-0.7-1.5-1.5
	s0.7-1.5,1.5-1.5c0.9,0,1.5,0.7,1.5,1.5l0,0C9.6,180.1,8.9,180.8,8,180.8L8,180.8L8,180.8z M8,189c-0.9,0-1.5-0.7-1.5-1.5
	S7.2,186,8,186c0.9,0,1.5,0.7,1.5,1.5l0,0C9.6,188.4,8.9,189,8,189C8,189.1,8,189.1,8,189L8,189z M8,197.3c-0.9,0-1.5-0.7-1.5-1.5
	s0.7-1.5,1.5-1.5c0.9,0,1.5,0.7,1.5,1.5l0,0C9.6,196.6,8.9,197.3,8,197.3L8,197.3L8,197.3z M8,205.5c-0.9,0-1.5-0.7-1.5-1.5
	s0.7-1.5,1.5-1.5c0.9,0,1.5,0.7,1.5,1.5l0,0C9.6,204.8,8.9,205.5,8,205.5L8,205.5L8,205.5z M24,213.6c-0.9,0-1.5-0.7-1.6-1.5
	c-0.1-0.8,0.7-1.5,1.5-1.6s1.5,0.7,1.6,1.5l0,0C25.5,212.9,24.8,213.6,24,213.6L24,213.6L24,213.6z M24,221.8
	c-0.9,0-1.5-0.7-1.6-1.5s0.7-1.5,1.5-1.6c0.8-0.1,1.5,0.7,1.6,1.5l0,0C25.5,221.2,24.8,221.8,24,221.8C24,221.9,24,221.9,24,221.8
	L24,221.8z M24,230.1c-0.9,0-1.5-0.7-1.6-1.5c-0.1-0.8,0.7-1.5,1.5-1.6s1.5,0.7,1.6,1.5l0,0C25.5,229.4,24.8,230.1,24,230.1
	L24,230.1z M24,238.3c-0.9,0-1.5-0.7-1.6-1.5s0.7-1.5,1.5-1.6c0.8-0.1,1.5,0.7,1.6,1.5l0,0C25.5,237.6,24.8,238.3,24,238.3L24,238.3
	L24,238.3z M24,246.5c-0.9,0-1.5-0.7-1.6-1.5s0.7-1.5,1.5-1.6c0.8-0.1,1.5,0.7,1.6,1.5l0,0C25.5,245.8,24.8,246.5,24,246.5L24,246.5
	L24,246.5z M16,213.6c-0.9,0-1.5-0.7-1.5-1.5c0-0.8,0.7-1.5,1.5-1.5c0.9,0,1.5,0.7,1.5,1.5l0,0C17.5,212.9,16.9,213.6,16,213.6
	L16,213.6z M16,221.8c-0.9,0-1.5-0.7-1.5-1.5s0.7-1.5,1.5-1.5c0.9,0,1.5,0.7,1.5,1.5l0,0C17.5,221.2,16.9,221.8,16,221.8
	C16,221.9,16,221.9,16,221.8L16,221.8z M16,230.1c-0.9,0-1.5-0.7-1.5-1.5c0-0.8,0.6-1.6,1.5-1.6s1.5,0.7,1.5,1.5l0,0
	C17.5,229.4,16.9,230.1,16,230.1L16,230.1L16,230.1z M16,238.3c-0.9,0-1.5-0.7-1.5-1.5s0.7-1.5,1.5-1.5c0.9,0,1.5,0.7,1.5,1.5l0,0
	C17.5,237.6,16.9,238.3,16,238.3L16,238.3L16,238.3z M16,246.5c-0.9,0-1.5-0.7-1.5-1.5s0.7-1.5,1.5-1.5c0.9,0,1.5,0.7,1.5,1.5l0,0
	C17.5,245.8,16.9,246.5,16,246.5L16,246.5L16,246.5z M8,213.6c-0.9,0-1.5-0.7-1.5-1.5c0-0.8,0.7-1.5,1.5-1.5c0.9,0,1.5,0.7,1.5,1.5
	l0,0C9.6,212.9,8.9,213.6,8,213.6L8,213.6L8,213.6z M8,221.8c-0.9,0-1.5-0.7-1.5-1.5s0.7-1.5,1.5-1.5c0.9,0,1.5,0.7,1.5,1.5l0,0
	C9.6,221.2,8.9,221.8,8,221.8C8,221.9,8,221.9,8,221.8L8,221.8z M8,230.1c-0.9,0-1.5-0.7-1.5-1.5c0-0.8,0.7-1.6,1.5-1.6
	c0.9,0,1.5,0.7,1.5,1.5l0,0C9.6,229.4,8.9,230.1,8,230.1L8,230.1L8,230.1z M8,238.3c-0.9,0-1.5-0.7-1.5-1.5s0.7-1.5,1.5-1.5
	c0.9,0,1.5,0.7,1.5,1.5l0,0C9.6,237.6,8.9,238.3,8,238.3L8,238.3L8,238.3z M8,246.5c-0.9,0-1.5-0.7-1.5-1.5s0.7-1.5,1.5-1.5
	c0.9,0,1.5,0.7,1.5,1.5l0,0C9.6,245.8,8.9,246.5,8,246.5L8,246.5L8,246.5z"/>
<path class="st0" d="M48,172.6c-0.9,0-1.5-0.7-1.6-1.5c-0.1-0.8,0.7-1.5,1.5-1.6s1.5,0.7,1.6,1.5l0,0
	C49.5,171.9,48.8,172.6,48,172.6z M48,180.8c-0.9,0-1.5-0.7-1.6-1.5c-0.1-0.8,0.7-1.5,1.5-1.6c0.8-0.1,1.5,0.7,1.6,1.5l0,0
	C49.5,180.1,48.8,180.8,48,180.8L48,180.8z M48,189.1c-0.9,0-1.5-0.7-1.6-1.5c-0.1-0.8,0.7-1.5,1.5-1.6s1.5,0.7,1.6,1.5l0,0
	C49.5,188.4,48.8,189,48,189.1z M48,197.3c-0.9,0-1.5-0.7-1.6-1.5c-0.1-0.8,0.7-1.5,1.5-1.6c0.8-0.1,1.5,0.7,1.6,1.5l0,0
	C49.5,196.6,48.8,197.3,48,197.3L48,197.3z M48,205.5c-0.9,0-1.5-0.7-1.6-1.5c-0.1-0.8,0.7-1.5,1.5-1.6c0.8-0.1,1.5,0.7,1.6,1.5l0,0
	C49.5,204.8,48.8,205.5,48,205.5z M40,172.6c-0.9,0-1.5-0.7-1.5-1.5c0-0.8,0.7-1.5,1.5-1.5c0.9,0,1.5,0.7,1.5,1.5l0,0
	C41.5,171.9,40.9,172.6,40,172.6L40,172.6L40,172.6z M40,180.8c-0.9,0-1.5-0.7-1.5-1.5s0.7-1.5,1.5-1.5c0.9,0,1.5,0.7,1.5,1.5l0,0
	C41.5,180.1,40.9,180.8,40,180.8L40,180.8z M40,189c-0.9,0-1.5-0.7-1.5-1.5s0.6-1.5,1.5-1.5c0.9,0,1.5,0.7,1.5,1.5l0,0
	C41.5,188.4,40.9,189,40,189C40,189.1,40,189.1,40,189L40,189z M40,197.3c-0.9,0-1.5-0.7-1.5-1.5s0.7-1.5,1.5-1.5
	c0.9,0,1.5,0.7,1.5,1.5l0,0C41.5,196.6,40.9,197.3,40,197.3L40,197.3L40,197.3z M40,205.5c-0.9,0-1.5-0.7-1.5-1.5s0.7-1.5,1.5-1.5
	c0.9,0,1.5,0.7,1.5,1.5l0,0C41.5,204.8,40.9,205.5,40,205.5L40,205.5L40,205.5z M32,172.6c-0.9,0-1.5-0.7-1.5-1.5
	c0-0.8,0.7-1.5,1.5-1.5c0.9,0,1.5,0.7,1.5,1.5l0,0C33.6,171.9,32.9,172.6,32,172.6L32,172.6L32,172.6z M32,180.8
	c-0.9,0-1.5-0.7-1.5-1.5s0.7-1.5,1.5-1.5c0.9,0,1.5,0.7,1.5,1.5l0,0C33.6,180.1,32.9,180.8,32,180.8L32,180.8L32,180.8z M32,189
	c-0.9,0-1.5-0.7-1.5-1.5s0.7-1.5,1.5-1.5c0.9,0,1.5,0.7,1.5,1.5l0,0C33.6,188.4,32.9,189,32,189C32,189.1,32,189.1,32,189L32,189z
	 M32,197.3c-0.9,0-1.5-0.7-1.5-1.5s0.7-1.5,1.5-1.5c0.9,0,1.5,0.7,1.5,1.5l0,0C33.6,196.6,32.9,197.3,32,197.3L32,197.3L32,197.3z
	 M32,205.5c-0.9,0-1.5-0.7-1.5-1.5s0.7-1.5,1.5-1.5c0.9,0,1.5,0.7,1.5,1.5l0,0C33.6,204.8,32.9,205.5,32,205.5L32,205.5L32,205.5z
	 M48,213.6c-0.9,0-1.5-0.7-1.6-1.5c-0.1-0.8,0.7-1.5,1.5-1.6s1.5,0.7,1.6,1.5l0,0C49.5,212.9,48.8,213.6,48,213.6L48,213.6L48,213.6
	z M48,221.8c-0.9,0-1.5-0.7-1.6-1.5c-0.1-0.8,0.7-1.5,1.5-1.6c0.8-0.1,1.5,0.7,1.6,1.5l0,0C49.5,221.2,48.8,221.8,48,221.8
	C48,221.9,48,221.9,48,221.8L48,221.8z M48,230.1c-0.9,0-1.5-0.7-1.6-1.5c-0.1-0.8,0.7-1.5,1.5-1.6s1.5,0.7,1.6,1.5l0,0
	C49.5,229.4,48.8,230.1,48,230.1L48,230.1z M48,238.3c-0.9,0-1.5-0.7-1.6-1.5c-0.1-0.8,0.7-1.5,1.5-1.6c0.8-0.1,1.5,0.7,1.6,1.5l0,0
	C49.5,237.6,48.8,238.3,48,238.3L48,238.3L48,238.3z M48,246.5c-0.9,0-1.5-0.7-1.6-1.5c-0.1-0.8,0.7-1.5,1.5-1.6
	c0.8-0.1,1.5,0.7,1.6,1.5l0,0C49.5,245.8,48.8,246.5,48,246.5L48,246.5L48,246.5z M40,213.6c-0.9,0-1.5-0.7-1.5-1.5
	c0-0.8,0.7-1.5,1.5-1.5c0.9,0,1.5,0.7,1.5,1.5l0,0C41.5,212.9,40.9,213.6,40,213.6L40,213.6z M40,221.8c-0.9,0-1.5-0.7-1.5-1.5
	s0.7-1.5,1.5-1.5c0.9,0,1.5,0.7,1.5,1.5l0,0C41.5,221.2,40.9,221.8,40,221.8C40,221.9,40,221.9,40,221.8L40,221.8z M40,230.1
	c-0.9,0-1.5-0.7-1.5-1.5c0-0.8,0.6-1.6,1.5-1.6c0.9,0,1.5,0.7,1.5,1.5l0,0C41.5,229.4,40.9,230.1,40,230.1L40,230.1L40,230.1z
	 M40,238.3c-0.9,0-1.5-0.7-1.5-1.5s0.7-1.5,1.5-1.5c0.9,0,1.5,0.7,1.5,1.5l0,0C41.5,237.6,40.9,238.3,40,238.3L40,238.3L40,238.3z
	 M40,246.5c-0.9,0-1.5-0.7-1.5-1.5s0.7-1.5,1.5-1.5c0.9,0,1.5,0.7,1.5,1.5l0,0C41.5,245.8,40.9,246.5,40,246.5L40,246.5L40,246.5z
	 M32,213.6c-0.9,0-1.5-0.7-1.5-1.5c0-0.8,0.7-1.5,1.5-1.5c0.9,0,1.5,0.7,1.5,1.5l0,0C33.6,212.9,32.9,213.6,32,213.6L32,213.6
	L32,213.6z M32,221.8c-0.9,0-1.5-0.7-1.5-1.5s0.7-1.5,1.5-1.5c0.9,0,1.5,0.7,1.5,1.5l0,0C33.6,221.2,32.9,221.8,32,221.8
	C32,221.9,32,221.9,32,221.8L32,221.8z M32,230.1c-0.9,0-1.5-0.7-1.5-1.5c0-0.8,0.7-1.6,1.5-1.6c0.9,0,1.5,0.7,1.5,1.5l0,0
	C33.6,229.4,32.9,230.1,32,230.1L32,230.1L32,230.1z M32,238.3c-0.9,0-1.5-0.7-1.5-1.5s0.7-1.5,1.5-1.5c0.9,0,1.5,0.7,1.5,1.5l0,0
	C33.6,237.6,32.9,238.3,32,238.3L32,238.3L32,238.3z M32,246.5c-0.9,0-1.5-0.7-1.5-1.5s0.7-1.5,1.5-1.5c0.9,0,1.5,0.7,1.5,1.5l0,0
	C33.6,245.8,32.9,246.5,32,246.5L32,246.5L32,246.5z"/>
<path class="st0" d="M72,172.6c-0.9,0-1.5-0.7-1.6-1.5c-0.1-0.8,0.7-1.5,1.5-1.6c0.8-0.1,1.5,0.7,1.6,1.5l0,0
	C73.5,171.9,72.8,172.6,72,172.6z M72,180.8c-0.9,0-1.5-0.7-1.6-1.5s0.7-1.5,1.5-1.6c0.8-0.1,1.5,0.7,1.6,1.5l0,0
	C73.5,180.1,72.8,180.8,72,180.8L72,180.8z M72,189.1c-0.9,0-1.5-0.7-1.6-1.5c-0.1-0.8,0.7-1.5,1.5-1.6c0.8-0.1,1.5,0.7,1.6,1.5l0,0
	C73.5,188.4,72.8,189,72,189.1z M72,197.3c-0.9,0-1.5-0.7-1.6-1.5s0.7-1.5,1.5-1.6c0.8-0.1,1.5,0.7,1.6,1.5l0,0
	C73.5,196.6,72.8,197.3,72,197.3L72,197.3z M72,205.5c-0.9,0-1.5-0.7-1.6-1.5s0.7-1.5,1.5-1.6c0.8-0.1,1.5,0.7,1.6,1.5l0,0
	C73.5,204.8,72.8,205.5,72,205.5z M64,172.6c-0.9,0-1.5-0.7-1.5-1.5c0-0.8,0.7-1.5,1.5-1.5c0.9,0,1.5,0.7,1.5,1.5l0,0
	C65.5,171.9,64.9,172.6,64,172.6L64,172.6L64,172.6z M64,180.8c-0.9,0-1.5-0.7-1.5-1.5s0.7-1.5,1.5-1.5c0.9,0,1.5,0.7,1.5,1.5l0,0
	C65.5,180.1,64.9,180.8,64,180.8L64,180.8z M64,189c-0.9,0-1.5-0.7-1.5-1.5s0.6-1.5,1.5-1.5s1.5,0.7,1.5,1.5l0,0
	C65.5,188.4,64.9,189,64,189C64,189.1,64,189.1,64,189L64,189z M64,197.3c-0.9,0-1.5-0.7-1.5-1.5s0.7-1.5,1.5-1.5
	c0.9,0,1.5,0.7,1.5,1.5l0,0C65.5,196.6,64.9,197.3,64,197.3L64,197.3L64,197.3z M64,205.5c-0.9,0-1.5-0.7-1.5-1.5s0.7-1.5,1.5-1.5
	c0.9,0,1.5,0.7,1.5,1.5l0,0C65.5,204.8,64.9,205.5,64,205.5L64,205.5L64,205.5z M56,172.6c-0.9,0-1.5-0.7-1.5-1.5
	c0-0.8,0.7-1.5,1.5-1.5c0.9,0,1.5,0.7,1.5,1.5l0,0C57.6,171.9,56.9,172.6,56,172.6L56,172.6L56,172.6z M56,180.8
	c-0.9,0-1.5-0.7-1.5-1.5s0.7-1.5,1.5-1.5c0.9,0,1.5,0.7,1.5,1.5l0,0C57.6,180.1,56.9,180.8,56,180.8L56,180.8L56,180.8z M56,189
	c-0.9,0-1.5-0.7-1.5-1.5s0.7-1.5,1.5-1.5c0.9,0,1.5,0.7,1.5,1.5l0,0C57.6,188.4,56.9,189,56,189C56,189.1,56,189.1,56,189L56,189z
	 M56,197.3c-0.9,0-1.5-0.7-1.5-1.5s0.7-1.5,1.5-1.5c0.9,0,1.5,0.7,1.5,1.5l0,0C57.6,196.6,56.9,197.3,56,197.3L56,197.3L56,197.3z
	 M56,205.5c-0.9,0-1.5-0.7-1.5-1.5s0.7-1.5,1.5-1.5c0.9,0,1.5,0.7,1.5,1.5l0,0C57.6,204.8,56.9,205.5,56,205.5L56,205.5L56,205.5z
	 M72,213.6c-0.9,0-1.5-0.7-1.6-1.5c-0.1-0.8,0.7-1.5,1.5-1.6c0.8-0.1,1.5,0.7,1.6,1.5l0,0C73.5,212.9,72.8,213.6,72,213.6L72,213.6
	L72,213.6z M72,221.8c-0.9,0-1.5-0.7-1.6-1.5s0.7-1.5,1.5-1.6c0.8-0.1,1.5,0.7,1.6,1.5l0,0C73.5,221.2,72.8,221.8,72,221.8
	C72,221.9,72,221.9,72,221.8L72,221.8z M72,230.1c-0.9,0-1.5-0.7-1.6-1.5c-0.1-0.8,0.7-1.5,1.5-1.6c0.8-0.1,1.5,0.7,1.6,1.5l0,0
	C73.5,229.4,72.8,230.1,72,230.1L72,230.1z M72,238.3c-0.9,0-1.5-0.7-1.6-1.5s0.7-1.5,1.5-1.6c0.8-0.1,1.5,0.7,1.6,1.5l0,0
	C73.5,237.6,72.8,238.3,72,238.3L72,238.3L72,238.3z M72,246.5c-0.9,0-1.5-0.7-1.6-1.5s0.7-1.5,1.5-1.6c0.8-0.1,1.5,0.7,1.6,1.5l0,0
	C73.5,245.8,72.8,246.5,72,246.5L72,246.5L72,246.5z M64,213.6c-0.9,0-1.5-0.7-1.5-1.5c0-0.8,0.7-1.5,1.5-1.5c0.9,0,1.5,0.7,1.5,1.5
	l0,0C65.5,212.9,64.9,213.6,64,213.6L64,213.6z M64,221.8c-0.9,0-1.5-0.7-1.5-1.5s0.7-1.5,1.5-1.5c0.9,0,1.5,0.7,1.5,1.5l0,0
	C65.5,221.2,64.9,221.8,64,221.8C64,221.9,64,221.9,64,221.8L64,221.8z M64,230.1c-0.9,0-1.5-0.7-1.5-1.5c0-0.8,0.6-1.6,1.5-1.6
	s1.5,0.7,1.5,1.5l0,0C65.5,229.4,64.9,230.1,64,230.1L64,230.1L64,230.1z M64,238.3c-0.9,0-1.5-0.7-1.5-1.5s0.7-1.5,1.5-1.5
	c0.9,0,1.5,0.7,1.5,1.5l0,0C65.5,237.6,64.9,238.3,64,238.3L64,238.3L64,238.3z M64,246.5c-0.9,0-1.5-0.7-1.5-1.5s0.7-1.5,1.5-1.5
	c0.9,0,1.5,0.7,1.5,1.5l0,0C65.5,245.8,64.9,246.5,64,246.5L64,246.5L64,246.5z M56,213.6c-0.9,0-1.5-0.7-1.5-1.5
	c0-0.8,0.7-1.5,1.5-1.5c0.9,0,1.5,0.7,1.5,1.5l0,0C57.6,212.9,56.9,213.6,56,213.6L56,213.6L56,213.6z M56,221.8
	c-0.9,0-1.5-0.7-1.5-1.5s0.7-1.5,1.5-1.5c0.9,0,1.5,0.7,1.5,1.5l0,0C57.6,221.2,56.9,221.8,56,221.8C56,221.9,56,221.9,56,221.8
	L56,221.8z M56,230.1c-0.9,0-1.5-0.7-1.5-1.5c0-0.8,0.7-1.6,1.5-1.6c0.9,0,1.5,0.7,1.5,1.5l0,0C57.6,229.4,56.9,230.1,56,230.1
	L56,230.1L56,230.1z M56,238.3c-0.9,0-1.5-0.7-1.5-1.5s0.7-1.5,1.5-1.5c0.9,0,1.5,0.7,1.5,1.5l0,0C57.6,237.6,56.9,238.3,56,238.3
	L56,238.3L56,238.3z M56,246.5c-0.9,0-1.5-0.7-1.5-1.5s0.7-1.5,1.5-1.5c0.9,0,1.5,0.7,1.5,1.5l0,0C57.6,245.8,56.9,246.5,56,246.5
	L56,246.5L56,246.5z"/>
<path class="st0" d="M96,172.6c-0.9,0-1.5-0.7-1.6-1.5c-0.1-0.8,0.7-1.5,1.5-1.6c0.8-0.1,1.5,0.7,1.6,1.5l0,0
	C97.5,171.9,96.8,172.6,96,172.6z M96,180.8c-0.9,0-1.5-0.7-1.6-1.5s0.7-1.5,1.5-1.6c0.8-0.1,1.5,0.7,1.6,1.5l0,0
	C97.5,180.1,96.8,180.8,96,180.8L96,180.8z M96,189.1c-0.9,0-1.5-0.7-1.6-1.5c-0.1-0.8,0.7-1.5,1.5-1.6c0.8-0.1,1.5,0.7,1.6,1.5l0,0
	C97.5,188.4,96.8,189,96,189.1z M96,197.3c-0.9,0-1.5-0.7-1.6-1.5s0.7-1.5,1.5-1.6c0.8-0.1,1.5,0.7,1.6,1.5l0,0
	C97.5,196.6,96.8,197.3,96,197.3L96,197.3z M96,205.5c-0.9,0-1.5-0.7-1.6-1.5s0.7-1.5,1.5-1.6c0.8-0.1,1.5,0.7,1.6,1.5l0,0
	C97.5,204.8,96.8,205.5,96,205.5z M88,172.6c-0.9,0-1.5-0.7-1.5-1.5c0-0.8,0.7-1.5,1.5-1.5c0.9,0,1.5,0.7,1.5,1.5l0,0
	C89.5,171.9,88.9,172.6,88,172.6L88,172.6L88,172.6z M88,180.8c-0.9,0-1.5-0.7-1.5-1.5s0.7-1.5,1.5-1.5c0.9,0,1.5,0.7,1.5,1.5l0,0
	C89.5,180.1,88.9,180.8,88,180.8L88,180.8z M88,189c-0.9,0-1.5-0.7-1.5-1.5s0.6-1.5,1.5-1.5s1.5,0.7,1.5,1.5l0,0
	C89.5,188.4,88.9,189,88,189C88,189.1,88,189.1,88,189L88,189z M88,197.3c-0.9,0-1.5-0.7-1.5-1.5s0.7-1.5,1.5-1.5
	c0.9,0,1.5,0.7,1.5,1.5l0,0C89.5,196.6,88.9,197.3,88,197.3L88,197.3L88,197.3z M88,205.5c-0.9,0-1.5-0.7-1.5-1.5s0.7-1.5,1.5-1.5
	c0.9,0,1.5,0.7,1.5,1.5l0,0C89.5,204.8,88.9,205.5,88,205.5L88,205.5L88,205.5z M80,172.6c-0.9,0-1.5-0.7-1.5-1.5
	c0-0.8,0.7-1.5,1.5-1.5c0.9,0,1.5,0.7,1.5,1.5l0,0C81.6,171.9,80.9,172.6,80,172.6L80,172.6L80,172.6z M80,180.8
	c-0.9,0-1.5-0.7-1.5-1.5s0.7-1.5,1.5-1.5c0.9,0,1.5,0.7,1.5,1.5l0,0C81.6,180.1,80.9,180.8,80,180.8L80,180.8L80,180.8z M80,189
	c-0.9,0-1.5-0.7-1.5-1.5s0.7-1.5,1.5-1.5c0.9,0,1.5,0.7,1.5,1.5l0,0C81.6,188.4,80.9,189,80,189C80,189.1,80,189.1,80,189L80,189z
	 M80,197.3c-0.9,0-1.5-0.7-1.5-1.5s0.7-1.5,1.5-1.5c0.9,0,1.5,0.7,1.5,1.5l0,0C81.6,196.6,80.9,197.3,80,197.3L80,197.3L80,197.3z
	 M80,205.5c-0.9,0-1.5-0.7-1.5-1.5s0.7-1.5,1.5-1.5c0.9,0,1.5,0.7,1.5,1.5l0,0C81.6,204.8,80.9,205.5,80,205.5L80,205.5L80,205.5z
	 M96,213.6c-0.9,0-1.5-0.7-1.6-1.5c-0.1-0.8,0.7-1.5,1.5-1.6c0.8-0.1,1.5,0.7,1.6,1.5l0,0C97.5,212.9,96.8,213.6,96,213.6L96,213.6
	L96,213.6z M96,221.8c-0.9,0-1.5-0.7-1.6-1.5s0.7-1.5,1.5-1.6c0.8-0.1,1.5,0.7,1.6,1.5l0,0C97.5,221.2,96.8,221.8,96,221.8
	C96,221.9,96,221.9,96,221.8L96,221.8z M96,230.1c-0.9,0-1.5-0.7-1.6-1.5c-0.1-0.8,0.7-1.5,1.5-1.6c0.8-0.1,1.5,0.7,1.6,1.5l0,0
	C97.5,229.4,96.8,230.1,96,230.1L96,230.1z M96,238.3c-0.9,0-1.5-0.7-1.6-1.5s0.7-1.5,1.5-1.6c0.8-0.1,1.5,0.7,1.6,1.5l0,0
	C97.5,237.6,96.8,238.3,96,238.3L96,238.3L96,238.3z M96,246.5c-0.9,0-1.5-0.7-1.6-1.5s0.7-1.5,1.5-1.6c0.8-0.1,1.5,0.7,1.6,1.5l0,0
	C97.5,245.8,96.8,246.5,96,246.5L96,246.5L96,246.5z M88,213.6c-0.9,0-1.5-0.7-1.5-1.5c0-0.8,0.7-1.5,1.5-1.5c0.9,0,1.5,0.7,1.5,1.5
	l0,0C89.5,212.9,88.9,213.6,88,213.6L88,213.6z M88,221.8c-0.9,0-1.5-0.7-1.5-1.5s0.7-1.5,1.5-1.5c0.9,0,1.5,0.7,1.5,1.5l0,0
	C89.5,221.2,88.9,221.8,88,221.8C88,221.9,88,221.9,88,221.8L88,221.8z M88,230.1c-0.9,0-1.5-0.7-1.5-1.5c0-0.8,0.6-1.6,1.5-1.6
	s1.5,0.7,1.5,1.5l0,0C89.5,229.4,88.9,230.1,88,230.1L88,230.1L88,230.1z M88,238.3c-0.9,0-1.5-0.7-1.5-1.5s0.7-1.5,1.5-1.5
	c0.9,0,1.5,0.7,1.5,1.5l0,0C89.5,237.6,88.9,238.3,88,238.3L88,238.3L88,238.3z M88,246.5c-0.9,0-1.5-0.7-1.5-1.5s0.7-1.5,1.5-1.5
	c0.9,0,1.5,0.7,1.5,1.5l0,0C89.5,245.8,88.9,246.5,88,246.5L88,246.5L88,246.5z M80,213.6c-0.9,0-1.5-0.7-1.5-1.5
	c0-0.8,0.7-1.5,1.5-1.5c0.9,0,1.5,0.7,1.5,1.5l0,0C81.6,212.9,80.9,213.6,80,213.6L80,213.6L80,213.6z M80,221.8
	c-0.9,0-1.5-0.7-1.5-1.5s0.7-1.5,1.5-1.5c0.9,0,1.5,0.7,1.5,1.5l0,0C81.6,221.2,80.9,221.8,80,221.8C80,221.9,80,221.9,80,221.8
	L80,221.8z M80,230.1c-0.9,0-1.5-0.7-1.5-1.5c0-0.8,0.7-1.6,1.5-1.6c0.9,0,1.5,0.7,1.5,1.5l0,0C81.6,229.4,80.9,230.1,80,230.1
	L80,230.1L80,230.1z M80,238.3c-0.9,0-1.5-0.7-1.5-1.5s0.7-1.5,1.5-1.5c0.9,0,1.5,0.7,1.5,1.5l0,0C81.6,237.6,80.9,238.3,80,238.3
	L80,238.3L80,238.3z M80,246.5c-0.9,0-1.5-0.7-1.5-1.5s0.7-1.5,1.5-1.5c0.9,0,1.5,0.7,1.5,1.5l0,0C81.6,245.8,80.9,246.5,80,246.5
	L80,246.5L80,246.5z"/>
<path class="st0" d="M120,172.6c-0.9,0-1.5-0.7-1.6-1.5c-0.1-0.8,0.7-1.5,1.5-1.6c0.8-0.1,1.5,0.7,1.6,1.5l0,0
	C121.5,171.9,120.8,172.6,120,172.6z M120,180.8c-0.9,0-1.5-0.7-1.6-1.5s0.7-1.5,1.5-1.6c0.8-0.1,1.5,0.7,1.6,1.5l0,0
	C121.5,180.1,120.8,180.8,120,180.8L120,180.8z M120,189.1c-0.9,0-1.5-0.7-1.6-1.5c-0.1-0.8,0.7-1.5,1.5-1.6
	c0.8-0.1,1.5,0.7,1.6,1.5l0,0C121.5,188.4,120.8,189,120,189.1z M120,197.3c-0.9,0-1.5-0.7-1.6-1.5s0.7-1.5,1.5-1.6
	c0.8-0.1,1.5,0.7,1.6,1.5l0,0C121.5,196.6,120.8,197.3,120,197.3L120,197.3z M120,205.5c-0.9,0-1.5-0.7-1.6-1.5s0.7-1.5,1.5-1.6
	c0.8-0.1,1.5,0.7,1.6,1.5l0,0C121.5,204.8,120.8,205.5,120,205.5z M112,172.6c-0.9,0-1.5-0.7-1.5-1.5c0-0.8,0.7-1.5,1.5-1.5
	c0.9,0,1.5,0.7,1.5,1.5l0,0C113.5,171.9,112.9,172.6,112,172.6L112,172.6L112,172.6z M112,180.8c-0.9,0-1.5-0.7-1.5-1.5
	s0.7-1.5,1.5-1.5c0.9,0,1.5,0.7,1.5,1.5l0,0C113.5,180.1,112.9,180.8,112,180.8L112,180.8z M112,189c-0.9,0-1.5-0.7-1.5-1.5
	s0.6-1.5,1.5-1.5s1.5,0.7,1.5,1.5l0,0C113.5,188.4,112.9,189,112,189C112,189.1,112,189.1,112,189L112,189z M112,197.3
	c-0.9,0-1.5-0.7-1.5-1.5s0.7-1.5,1.5-1.5c0.9,0,1.5,0.7,1.5,1.5l0,0C113.5,196.6,112.9,197.3,112,197.3L112,197.3L112,197.3z
	 M112,205.5c-0.9,0-1.5-0.7-1.5-1.5s0.7-1.5,1.5-1.5c0.9,0,1.5,0.7,1.5,1.5l0,0C113.5,204.8,112.9,205.5,112,205.5L112,205.5
	L112,205.5z M104,172.6c-0.9,0-1.5-0.7-1.5-1.5c0-0.8,0.7-1.5,1.5-1.5c0.9,0,1.5,0.7,1.5,1.5l0,0C105.6,171.9,104.9,172.6,104,172.6
	L104,172.6L104,172.6z M104,180.8c-0.9,0-1.5-0.7-1.5-1.5s0.7-1.5,1.5-1.5c0.9,0,1.5,0.7,1.5,1.5l0,0
	C105.6,180.1,104.9,180.8,104,180.8L104,180.8L104,180.8z M104,189c-0.9,0-1.5-0.7-1.5-1.5s0.7-1.5,1.5-1.5c0.9,0,1.5,0.7,1.5,1.5
	l0,0C105.6,188.4,104.9,189,104,189C104,189.1,104,189.1,104,189L104,189z M104,197.3c-0.9,0-1.5-0.7-1.5-1.5s0.7-1.5,1.5-1.5
	c0.9,0,1.5,0.7,1.5,1.5l0,0C105.6,196.6,104.9,197.3,104,197.3L104,197.3L104,197.3z M104,205.5c-0.9,0-1.5-0.7-1.5-1.5
	s0.7-1.5,1.5-1.5c0.9,0,1.5,0.7,1.5,1.5l0,0C105.6,204.8,104.9,205.5,104,205.5L104,205.5L104,205.5z M120,213.6
	c-0.9,0-1.5-0.7-1.6-1.5c-0.1-0.8,0.7-1.5,1.5-1.6c0.8-0.1,1.5,0.7,1.6,1.5l0,0C121.5,212.9,120.8,213.6,120,213.6L120,213.6
	L120,213.6z M120,221.8c-0.9,0-1.5-0.7-1.6-1.5s0.7-1.5,1.5-1.6c0.8-0.1,1.5,0.7,1.6,1.5l0,0C121.5,221.2,120.8,221.8,120,221.8
	C120,221.9,120,221.9,120,221.8L120,221.8z M120,230.1c-0.9,0-1.5-0.7-1.6-1.5c-0.1-0.8,0.7-1.5,1.5-1.6c0.8-0.1,1.5,0.7,1.6,1.5
	l0,0C121.5,229.4,120.8,230.1,120,230.1L120,230.1z M120,238.3c-0.9,0-1.5-0.7-1.6-1.5s0.7-1.5,1.5-1.6c0.8-0.1,1.5,0.7,1.6,1.5l0,0
	C121.5,237.6,120.8,238.3,120,238.3L120,238.3L120,238.3z M120,246.5c-0.9,0-1.5-0.7-1.6-1.5s0.7-1.5,1.5-1.6
	c0.8-0.1,1.5,0.7,1.6,1.5l0,0C121.5,245.8,120.8,246.5,120,246.5L120,246.5L120,246.5z M112,213.6c-0.9,0-1.5-0.7-1.5-1.5
	c0-0.8,0.7-1.5,1.5-1.5c0.9,0,1.5,0.7,1.5,1.5l0,0C113.5,212.9,112.9,213.6,112,213.6L112,213.6z M112,221.8c-0.9,0-1.5-0.7-1.5-1.5
	s0.7-1.5,1.5-1.5c0.9,0,1.5,0.7,1.5,1.5l0,0C113.5,221.2,112.9,221.8,112,221.8C112,221.9,112,221.9,112,221.8L112,221.8z
	 M112,230.1c-0.9,0-1.5-0.7-1.5-1.5c0-0.8,0.6-1.6,1.5-1.6s1.5,0.7,1.5,1.5l0,0C113.5,229.4,112.9,230.1,112,230.1L112,230.1
	L112,230.1z M112,238.3c-0.9,0-1.5-0.7-1.5-1.5s0.7-1.5,1.5-1.5c0.9,0,1.5,0.7,1.5,1.5l0,0C113.5,237.6,112.9,238.3,112,238.3
	L112,238.3L112,238.3z M112,246.5c-0.9,0-1.5-0.7-1.5-1.5s0.7-1.5,1.5-1.5c0.9,0,1.5,0.7,1.5,1.5l0,0
	C113.5,245.8,112.9,246.5,112,246.5L112,246.5L112,246.5z M104,213.6c-0.9,0-1.5-0.7-1.5-1.5c0-0.8,0.7-1.5,1.5-1.5
	c0.9,0,1.5,0.7,1.5,1.5l0,0C105.6,212.9,104.9,213.6,104,213.6L104,213.6L104,213.6z M104,221.8c-0.9,0-1.5-0.7-1.5-1.5
	s0.7-1.5,1.5-1.5c0.9,0,1.5,0.7,1.5,1.5l0,0C105.6,221.2,104.9,221.8,104,221.8C104,221.9,104,221.9,104,221.8L104,221.8z
	 M104,230.1c-0.9,0-1.5-0.7-1.5-1.5c0-0.8,0.7-1.6,1.5-1.6c0.9,0,1.5,0.7,1.5,1.5l0,0C105.6,229.4,104.9,230.1,104,230.1L104,230.1
	L104,230.1z M104,238.3c-0.9,0-1.5-0.7-1.5-1.5s0.7-1.5,1.5-1.5c0.9,0,1.5,0.7,1.5,1.5l0,0C105.6,237.6,104.9,238.3,104,238.3
	L104,238.3L104,238.3z M104,246.5c-0.9,0-1.5-0.7-1.5-1.5s0.7-1.5,1.5-1.5c0.9,0,1.5,0.7,1.5,1.5l0,0
	C105.6,245.8,104.9,246.5,104,246.5L104,246.5L104,246.5z"/>
<path class="st0" d="M144,172.6c-0.9,0-1.5-0.7-1.6-1.5c-0.1-0.8,0.7-1.5,1.5-1.6c0.8-0.1,1.5,0.7,1.6,1.5l0,0
	C145.5,171.9,144.8,172.6,144,172.6z M144,180.8c-0.9,0-1.5-0.7-1.6-1.5c-0.1-0.8,0.7-1.5,1.5-1.6c0.8-0.1,1.5,0.7,1.6,1.5l0,0
	C145.5,180.1,144.8,180.8,144,180.8L144,180.8z M144,189.1c-0.9,0-1.5-0.7-1.6-1.5c-0.1-0.8,0.7-1.5,1.5-1.6
	c0.8-0.1,1.5,0.7,1.6,1.5l0,0C145.5,188.4,144.8,189,144,189.1z M144,197.3c-0.9,0-1.5-0.7-1.6-1.5c-0.1-0.8,0.7-1.5,1.5-1.6
	c0.8-0.1,1.5,0.7,1.6,1.5l0,0C145.5,196.6,144.8,197.3,144,197.3L144,197.3z M144,205.5c-0.9,0-1.5-0.7-1.6-1.5
	c-0.1-0.8,0.7-1.5,1.5-1.6c0.8-0.1,1.5,0.7,1.6,1.5l0,0C145.5,204.8,144.8,205.5,144,205.5z M136,172.6c-0.9,0-1.5-0.7-1.5-1.5
	c0-0.8,0.7-1.5,1.5-1.5c0.9,0,1.5,0.7,1.5,1.5l0,0C137.5,171.9,136.9,172.6,136,172.6L136,172.6L136,172.6z M136,180.8
	c-0.9,0-1.5-0.7-1.5-1.5s0.7-1.5,1.5-1.5c0.9,0,1.5,0.7,1.5,1.5l0,0C137.5,180.1,136.9,180.8,136,180.8L136,180.8z M136,189
	c-0.9,0-1.5-0.7-1.5-1.5s0.6-1.5,1.5-1.5s1.5,0.7,1.5,1.5l0,0C137.5,188.4,136.9,189,136,189C136,189.1,136,189.1,136,189L136,189z
	 M136,197.3c-0.9,0-1.5-0.7-1.5-1.5s0.7-1.5,1.5-1.5c0.9,0,1.5,0.7,1.5,1.5l0,0C137.5,196.6,136.9,197.3,136,197.3L136,197.3
	L136,197.3z M136,205.5c-0.9,0-1.5-0.7-1.5-1.5s0.7-1.5,1.5-1.5c0.9,0,1.5,0.7,1.5,1.5l0,0C137.5,204.8,136.9,205.5,136,205.5
	L136,205.5L136,205.5z M128,172.6c-0.9,0-1.5-0.7-1.5-1.5c0-0.8,0.7-1.5,1.5-1.5c0.9,0,1.5,0.7,1.5,1.5l0,0
	C129.6,171.9,128.9,172.6,128,172.6L128,172.6L128,172.6z M128,180.8c-0.9,0-1.5-0.7-1.5-1.5s0.7-1.5,1.5-1.5c0.9,0,1.5,0.7,1.5,1.5
	l0,0C129.6,180.1,128.9,180.8,128,180.8L128,180.8L128,180.8z M128,189c-0.9,0-1.5-0.7-1.5-1.5s0.7-1.5,1.5-1.5
	c0.9,0,1.5,0.7,1.5,1.5l0,0C129.6,188.4,128.9,189,128,189C128,189.1,128,189.1,128,189L128,189z M128,197.3c-0.9,0-1.5-0.7-1.5-1.5
	s0.7-1.5,1.5-1.5c0.9,0,1.5,0.7,1.5,1.5l0,0C129.6,196.6,128.9,197.3,128,197.3L128,197.3L128,197.3z M128,205.5
	c-0.9,0-1.5-0.7-1.5-1.5s0.7-1.5,1.5-1.5c0.9,0,1.5,0.7,1.5,1.5l0,0C129.6,204.8,128.9,205.5,128,205.5L128,205.5L128,205.5z
	 M144,213.6c-0.9,0-1.5-0.7-1.6-1.5c-0.1-0.8,0.7-1.5,1.5-1.6c0.8-0.1,1.5,0.7,1.6,1.5l0,0C145.5,212.9,144.8,213.6,144,213.6
	L144,213.6L144,213.6z M144,221.8c-0.9,0-1.5-0.7-1.6-1.5c-0.1-0.8,0.7-1.5,1.5-1.6c0.8-0.1,1.5,0.7,1.6,1.5l0,0
	C145.5,221.2,144.8,221.8,144,221.8C144,221.9,144,221.9,144,221.8L144,221.8z M144,230.1c-0.9,0-1.5-0.7-1.6-1.5
	c-0.1-0.8,0.7-1.5,1.5-1.6c0.8-0.1,1.5,0.7,1.6,1.5l0,0C145.5,229.4,144.8,230.1,144,230.1L144,230.1z M144,238.3
	c-0.9,0-1.5-0.7-1.6-1.5c-0.1-0.8,0.7-1.5,1.5-1.6c0.8-0.1,1.5,0.7,1.6,1.5l0,0C145.5,237.6,144.8,238.3,144,238.3L144,238.3
	L144,238.3z M144,246.5c-0.9,0-1.5-0.7-1.6-1.5c-0.1-0.8,0.7-1.5,1.5-1.6c0.8-0.1,1.5,0.7,1.6,1.5l0,0
	C145.5,245.8,144.8,246.5,144,246.5L144,246.5L144,246.5z M136,213.6c-0.9,0-1.5-0.7-1.5-1.5c0-0.8,0.7-1.5,1.5-1.5
	c0.9,0,1.5,0.7,1.5,1.5l0,0C137.5,212.9,136.9,213.6,136,213.6L136,213.6z M136,221.8c-0.9,0-1.5-0.7-1.5-1.5s0.7-1.5,1.5-1.5
	c0.9,0,1.5,0.7,1.5,1.5l0,0C137.5,221.2,136.9,221.8,136,221.8C136,221.9,136,221.9,136,221.8L136,221.8z M136,230.1
	c-0.9,0-1.5-0.7-1.5-1.5c0-0.8,0.6-1.6,1.5-1.6s1.5,0.7,1.5,1.5l0,0C137.5,229.4,136.9,230.1,136,230.1L136,230.1L136,230.1z
	 M136,238.3c-0.9,0-1.5-0.7-1.5-1.5s0.7-1.5,1.5-1.5c0.9,0,1.5,0.7,1.5,1.5l0,0C137.5,237.6,136.9,238.3,136,238.3L136,238.3
	L136,238.3z M136,246.5c-0.9,0-1.5-0.7-1.5-1.5s0.7-1.5,1.5-1.5c0.9,0,1.5,0.7,1.5,1.5l0,0C137.5,245.8,136.9,246.5,136,246.5
	L136,246.5L136,246.5z M128,213.6c-0.9,0-1.5-0.7-1.5-1.5c0-0.8,0.7-1.5,1.5-1.5c0.9,0,1.5,0.7,1.5,1.5l0,0
	C129.6,212.9,128.9,213.6,128,213.6L128,213.6L128,213.6z M128,221.8c-0.9,0-1.5-0.7-1.5-1.5s0.7-1.5,1.5-1.5c0.9,0,1.5,0.7,1.5,1.5
	l0,0C129.6,221.2,128.9,221.8,128,221.8C128,221.9,128,221.9,128,221.8L128,221.8z M128,230.1c-0.9,0-1.5-0.7-1.5-1.5
	c0-0.8,0.7-1.6,1.5-1.6c0.9,0,1.5,0.7,1.5,1.5l0,0C129.6,229.4,128.9,230.1,128,230.1L128,230.1L128,230.1z M128,238.3
	c-0.9,0-1.5-0.7-1.5-1.5s0.7-1.5,1.5-1.5c0.9,0,1.5,0.7,1.5,1.5l0,0C129.6,237.6,128.9,238.3,128,238.3L128,238.3L128,238.3z
	 M128,246.5c-0.9,0-1.5-0.7-1.5-1.5s0.7-1.5,1.5-1.5c0.9,0,1.5,0.7,1.5,1.5l0,0C129.6,245.8,128.9,246.5,128,246.5L128,246.5
	L128,246.5z"/>
<path class="st0" d="M168,172.6c-0.9,0-1.5-0.7-1.6-1.5c-0.1-0.8,0.7-1.5,1.5-1.6c0.8-0.1,1.5,0.7,1.6,1.5l0,0
	C169.5,171.9,168.8,172.6,168,172.6z M168,180.8c-0.9,0-1.5-0.7-1.6-1.5c-0.1-0.8,0.7-1.5,1.5-1.6c0.8-0.1,1.5,0.7,1.6,1.5l0,0
	C169.5,180.1,168.8,180.8,168,180.8L168,180.8z M168,189.1c-0.9,0-1.5-0.7-1.6-1.5c-0.1-0.8,0.7-1.5,1.5-1.6
	c0.8-0.1,1.5,0.7,1.6,1.5l0,0C169.5,188.4,168.8,189,168,189.1z M168,197.3c-0.9,0-1.5-0.7-1.6-1.5c-0.1-0.8,0.7-1.5,1.5-1.6
	c0.8-0.1,1.5,0.7,1.6,1.5l0,0C169.5,196.6,168.8,197.3,168,197.3L168,197.3z M168,205.5c-0.9,0-1.5-0.7-1.6-1.5
	c-0.1-0.8,0.7-1.5,1.5-1.6c0.8-0.1,1.5,0.7,1.6,1.5l0,0C169.5,204.8,168.8,205.5,168,205.5z M160,172.6c-0.9,0-1.5-0.7-1.5-1.5
	c0-0.8,0.7-1.5,1.5-1.5c0.9,0,1.5,0.7,1.5,1.5l0,0C161.5,171.9,160.9,172.6,160,172.6L160,172.6L160,172.6z M160,180.8
	c-0.9,0-1.5-0.7-1.5-1.5s0.7-1.5,1.5-1.5c0.9,0,1.5,0.7,1.5,1.5l0,0C161.5,180.1,160.9,180.8,160,180.8L160,180.8z M160,189
	c-0.9,0-1.5-0.7-1.5-1.5s0.6-1.5,1.5-1.5s1.5,0.7,1.5,1.5l0,0C161.5,188.4,160.9,189,160,189C160,189.1,160,189.1,160,189L160,189z
	 M160,197.3c-0.9,0-1.5-0.7-1.5-1.5s0.7-1.5,1.5-1.5c0.9,0,1.5,0.7,1.5,1.5l0,0C161.5,196.6,160.9,197.3,160,197.3L160,197.3
	L160,197.3z M160,205.5c-0.9,0-1.5-0.7-1.5-1.5s0.7-1.5,1.5-1.5c0.9,0,1.5,0.7,1.5,1.5l0,0C161.5,204.8,160.9,205.5,160,205.5
	L160,205.5L160,205.5z M152,172.6c-0.9,0-1.5-0.7-1.5-1.5c0-0.8,0.7-1.5,1.5-1.5c0.9,0,1.5,0.7,1.5,1.5l0,0
	C153.6,171.9,152.9,172.6,152,172.6L152,172.6L152,172.6z M152,180.8c-0.9,0-1.5-0.7-1.5-1.5s0.7-1.5,1.5-1.5c0.9,0,1.5,0.7,1.5,1.5
	l0,0C153.6,180.1,152.9,180.8,152,180.8L152,180.8L152,180.8z M152,189c-0.9,0-1.5-0.7-1.5-1.5s0.7-1.5,1.5-1.5
	c0.9,0,1.5,0.7,1.5,1.5l0,0C153.6,188.4,152.9,189,152,189C152,189.1,152,189.1,152,189L152,189z M152,197.3c-0.9,0-1.5-0.7-1.5-1.5
	s0.7-1.5,1.5-1.5c0.9,0,1.5,0.7,1.5,1.5l0,0C153.6,196.6,152.9,197.3,152,197.3L152,197.3L152,197.3z M152,205.5
	c-0.9,0-1.5-0.7-1.5-1.5s0.7-1.5,1.5-1.5c0.9,0,1.5,0.7,1.5,1.5l0,0C153.6,204.8,152.9,205.5,152,205.5L152,205.5L152,205.5z
	 M168,213.6c-0.9,0-1.5-0.7-1.6-1.5c-0.1-0.8,0.7-1.5,1.5-1.6c0.8-0.1,1.5,0.7,1.6,1.5l0,0C169.5,212.9,168.8,213.6,168,213.6
	L168,213.6L168,213.6z M168,221.8c-0.9,0-1.5-0.7-1.6-1.5c-0.1-0.8,0.7-1.5,1.5-1.6c0.8-0.1,1.5,0.7,1.6,1.5l0,0
	C169.5,221.2,168.8,221.8,168,221.8C168,221.9,168,221.9,168,221.8L168,221.8z M168,230.1c-0.9,0-1.5-0.7-1.6-1.5
	c-0.1-0.8,0.7-1.5,1.5-1.6c0.8-0.1,1.5,0.7,1.6,1.5l0,0C169.5,229.4,168.8,230.1,168,230.1L168,230.1z M168,238.3
	c-0.9,0-1.5-0.7-1.6-1.5c-0.1-0.8,0.7-1.5,1.5-1.6c0.8-0.1,1.5,0.7,1.6,1.5l0,0C169.5,237.6,168.8,238.3,168,238.3L168,238.3
	L168,238.3z M168,246.5c-0.9,0-1.5-0.7-1.6-1.5c-0.1-0.8,0.7-1.5,1.5-1.6c0.8-0.1,1.5,0.7,1.6,1.5l0,0
	C169.5,245.8,168.8,246.5,168,246.5L168,246.5L168,246.5z M160,213.6c-0.9,0-1.5-0.7-1.5-1.5c0-0.8,0.7-1.5,1.5-1.5
	c0.9,0,1.5,0.7,1.5,1.5l0,0C161.5,212.9,160.9,213.6,160,213.6L160,213.6z M160,221.8c-0.9,0-1.5-0.7-1.5-1.5s0.7-1.5,1.5-1.5
	c0.9,0,1.5,0.7,1.5,1.5l0,0C161.5,221.2,160.9,221.8,160,221.8C160,221.9,160,221.9,160,221.8L160,221.8z M160,230.1
	c-0.9,0-1.5-0.7-1.5-1.5c0-0.8,0.6-1.6,1.5-1.6s1.5,0.7,1.5,1.5l0,0C161.5,229.4,160.9,230.1,160,230.1L160,230.1L160,230.1z
	 M160,238.3c-0.9,0-1.5-0.7-1.5-1.5s0.7-1.5,1.5-1.5c0.9,0,1.5,0.7,1.5,1.5l0,0C161.5,237.6,160.9,238.3,160,238.3L160,238.3
	L160,238.3z M160,246.5c-0.9,0-1.5-0.7-1.5-1.5s0.7-1.5,1.5-1.5c0.9,0,1.5,0.7,1.5,1.5l0,0C161.5,245.8,160.9,246.5,160,246.5
	L160,246.5L160,246.5z M152,213.6c-0.9,0-1.5-0.7-1.5-1.5c0-0.8,0.7-1.5,1.5-1.5c0.9,0,1.5,0.7,1.5,1.5l0,0
	C153.6,212.9,152.9,213.6,152,213.6L152,213.6L152,213.6z M152,221.8c-0.9,0-1.5-0.7-1.5-1.5s0.7-1.5,1.5-1.5c0.9,0,1.5,0.7,1.5,1.5
	l0,0C153.6,221.2,152.9,221.8,152,221.8C152,221.9,152,221.9,152,221.8L152,221.8z M152,230.1c-0.9,0-1.5-0.7-1.5-1.5
	c0-0.8,0.7-1.6,1.5-1.6c0.9,0,1.5,0.7,1.5,1.5l0,0C153.6,229.4,152.9,230.1,152,230.1L152,230.1L152,230.1z M152,238.3
	c-0.9,0-1.5-0.7-1.5-1.5s0.7-1.5,1.5-1.5c0.9,0,1.5,0.7,1.5,1.5l0,0C153.6,237.6,152.9,238.3,152,238.3L152,238.3L152,238.3z
	 M152,246.5c-0.9,0-1.5-0.7-1.5-1.5s0.7-1.5,1.5-1.5c0.9,0,1.5,0.7,1.5,1.5l0,0C153.6,245.8,152.9,246.5,152,246.5L152,246.5
	L152,246.5z"/>
<path class="st0" d="M192,172.6c-0.9,0-1.5-0.7-1.6-1.5c-0.1-0.8,0.7-1.5,1.5-1.6c0.8-0.1,1.5,0.7,1.6,1.5l0,0
	C193.5,171.9,192.8,172.6,192,172.6z M192,180.8c-0.9,0-1.5-0.7-1.6-1.5c-0.1-0.8,0.7-1.5,1.5-1.6c0.8-0.1,1.5,0.7,1.6,1.5l0,0
	C193.5,180.1,192.8,180.8,192,180.8L192,180.8z M192,189.1c-0.9,0-1.5-0.7-1.6-1.5c-0.1-0.8,0.7-1.5,1.5-1.6
	c0.8-0.1,1.5,0.7,1.6,1.5l0,0C193.5,188.4,192.8,189,192,189.1z M192,197.3c-0.9,0-1.5-0.7-1.6-1.5c-0.1-0.8,0.7-1.5,1.5-1.6
	c0.8-0.1,1.5,0.7,1.6,1.5l0,0C193.5,196.6,192.8,197.3,192,197.3L192,197.3z M192,205.5c-0.9,0-1.5-0.7-1.6-1.5
	c-0.1-0.8,0.7-1.5,1.5-1.6c0.8-0.1,1.5,0.7,1.6,1.5l0,0C193.5,204.8,192.8,205.5,192,205.5z M184,172.6c-0.9,0-1.5-0.7-1.5-1.5
	c0-0.8,0.7-1.5,1.5-1.5c0.9,0,1.5,0.7,1.5,1.5l0,0C185.5,171.9,184.9,172.6,184,172.6L184,172.6L184,172.6z M184,180.8
	c-0.9,0-1.5-0.7-1.5-1.5s0.7-1.5,1.5-1.5c0.9,0,1.5,0.7,1.5,1.5l0,0C185.5,180.1,184.9,180.8,184,180.8L184,180.8z M184,189
	c-0.9,0-1.5-0.7-1.5-1.5s0.6-1.5,1.5-1.5s1.5,0.7,1.5,1.5l0,0C185.5,188.4,184.9,189,184,189C184,189.1,184,189.1,184,189L184,189z
	 M184,197.3c-0.9,0-1.5-0.7-1.5-1.5s0.7-1.5,1.5-1.5c0.9,0,1.5,0.7,1.5,1.5l0,0C185.5,196.6,184.9,197.3,184,197.3L184,197.3
	L184,197.3z M184,205.5c-0.9,0-1.5-0.7-1.5-1.5s0.7-1.5,1.5-1.5c0.9,0,1.5,0.7,1.5,1.5l0,0C185.5,204.8,184.9,205.5,184,205.5
	L184,205.5L184,205.5z M176,172.6c-0.9,0-1.5-0.7-1.5-1.5c0-0.8,0.7-1.5,1.5-1.5c0.9,0,1.5,0.7,1.5,1.5l0,0
	C177.6,171.9,176.9,172.6,176,172.6L176,172.6L176,172.6z M176,180.8c-0.9,0-1.5-0.7-1.5-1.5s0.7-1.5,1.5-1.5c0.9,0,1.5,0.7,1.5,1.5
	l0,0C177.6,180.1,176.9,180.8,176,180.8L176,180.8L176,180.8z M176,189c-0.9,0-1.5-0.7-1.5-1.5s0.7-1.5,1.5-1.5
	c0.9,0,1.5,0.7,1.5,1.5l0,0C177.6,188.4,176.9,189,176,189C176,189.1,176,189.1,176,189L176,189z M176,197.3c-0.9,0-1.5-0.7-1.5-1.5
	s0.7-1.5,1.5-1.5c0.9,0,1.5,0.7,1.5,1.5l0,0C177.6,196.6,176.9,197.3,176,197.3L176,197.3L176,197.3z M176,205.5
	c-0.9,0-1.5-0.7-1.5-1.5s0.7-1.5,1.5-1.5c0.9,0,1.5,0.7,1.5,1.5l0,0C177.6,204.8,176.9,205.5,176,205.5L176,205.5L176,205.5z
	 M192,213.6c-0.9,0-1.5-0.7-1.6-1.5c-0.1-0.8,0.7-1.5,1.5-1.6c0.8-0.1,1.5,0.7,1.6,1.5l0,0C193.5,212.9,192.8,213.6,192,213.6
	L192,213.6L192,213.6z M192,221.8c-0.9,0-1.5-0.7-1.6-1.5c-0.1-0.8,0.7-1.5,1.5-1.6c0.8-0.1,1.5,0.7,1.6,1.5l0,0
	C193.5,221.2,192.8,221.8,192,221.8C192,221.9,192,221.9,192,221.8L192,221.8z M192,230.1c-0.9,0-1.5-0.7-1.6-1.5
	c-0.1-0.8,0.7-1.5,1.5-1.6c0.8-0.1,1.5,0.7,1.6,1.5l0,0C193.5,229.4,192.8,230.1,192,230.1L192,230.1z M192,238.3
	c-0.9,0-1.5-0.7-1.6-1.5c-0.1-0.8,0.7-1.5,1.5-1.6c0.8-0.1,1.5,0.7,1.6,1.5l0,0C193.5,237.6,192.8,238.3,192,238.3L192,238.3
	L192,238.3z M192,246.5c-0.9,0-1.5-0.7-1.6-1.5c-0.1-0.8,0.7-1.5,1.5-1.6c0.8-0.1,1.5,0.7,1.6,1.5l0,0
	C193.5,245.8,192.8,246.5,192,246.5L192,246.5L192,246.5z M184,213.6c-0.9,0-1.5-0.7-1.5-1.5c0-0.8,0.7-1.5,1.5-1.5
	c0.9,0,1.5,0.7,1.5,1.5l0,0C185.5,212.9,184.9,213.6,184,213.6L184,213.6z M184,221.8c-0.9,0-1.5-0.7-1.5-1.5s0.7-1.5,1.5-1.5
	c0.9,0,1.5,0.7,1.5,1.5l0,0C185.5,221.2,184.9,221.8,184,221.8C184,221.9,184,221.9,184,221.8L184,221.8z M184,230.1
	c-0.9,0-1.5-0.7-1.5-1.5c0-0.8,0.6-1.6,1.5-1.6s1.5,0.7,1.5,1.5l0,0C185.5,229.4,184.9,230.1,184,230.1L184,230.1L184,230.1z
	 M184,238.3c-0.9,0-1.5-0.7-1.5-1.5s0.7-1.5,1.5-1.5c0.9,0,1.5,0.7,1.5,1.5l0,0C185.5,237.6,184.9,238.3,184,238.3L184,238.3
	L184,238.3z M184,246.5c-0.9,0-1.5-0.7-1.5-1.5s0.7-1.5,1.5-1.5c0.9,0,1.5,0.7,1.5,1.5l0,0C185.5,245.8,184.9,246.5,184,246.5
	L184,246.5L184,246.5z M176,213.6c-0.9,0-1.5-0.7-1.5-1.5c0-0.8,0.7-1.5,1.5-1.5c0.9,0,1.5,0.7,1.5,1.5l0,0
	C177.6,212.9,176.9,213.6,176,213.6L176,213.6L176,213.6z M176,221.8c-0.9,0-1.5-0.7-1.5-1.5s0.7-1.5,1.5-1.5c0.9,0,1.5,0.7,1.5,1.5
	l0,0C177.6,221.2,176.9,221.8,176,221.8C176,221.9,176,221.9,176,221.8L176,221.8z M176,230.1c-0.9,0-1.5-0.7-1.5-1.5
	c0-0.8,0.7-1.6,1.5-1.6c0.9,0,1.5,0.7,1.5,1.5l0,0C177.6,229.4,176.9,230.1,176,230.1L176,230.1L176,230.1z M176,238.3
	c-0.9,0-1.5-0.7-1.5-1.5s0.7-1.5,1.5-1.5c0.9,0,1.5,0.7,1.5,1.5l0,0C177.6,237.6,176.9,238.3,176,238.3L176,238.3L176,238.3z
	 M176,246.5c-0.9,0-1.5-0.7-1.5-1.5s0.7-1.5,1.5-1.5c0.9,0,1.5,0.7,1.5,1.5l0,0C177.6,245.8,176.9,246.5,176,246.5L176,246.5
	L176,246.5z"/>
</svg>
