<svg width="138" height="48" viewBox="0 0 138 48" fill="none" xmlns="http://www.w3.org/2000/svg">
<g filter="url(#filter0_d)">
<rect x="13" y="11" width="112" height="22" rx="3" fill="white"/>
<rect x="13.2" y="11.2" width="111.6" height="21.6" rx="2.8" stroke="#EEEEEE" stroke-width="0.4"/>
</g>
<path opacity="0.56" d="M23.7224 17.8333C23.7224 17.3729 24.0925 17 24.5496 17H24.9631C27.7043 17 29.9263 19.2385 29.9263 22V26.1667C29.9263 26.6271 29.5562 27 29.0992 27H28.6855C25.9444 27 23.7224 24.7615 23.7224 22V17.8333Z" fill="#4A6CF7"/>
<path opacity="0.88" d="M24.136 27C26.4202 27 28.272 25.1345 28.272 22.8333C28.272 20.5321 26.4202 18.6666 24.136 18.6666C21.8517 18.6666 20 20.5321 20 22.8333C20 25.1345 21.8517 27 24.136 27Z" fill="#4A6CF7"/>
<line x1="35.8329" y1="17" x2="35.8329" y2="27" stroke="#EEEEEE" stroke-width="0.5"/>
<path d="M41.4949 25.1079H44.0827C45.6518 25.1079 46.3605 24.3294 46.3605 23.2979C46.3605 22.2566 45.6287 21.6686 44.9595 21.6325V21.5668C45.5792 21.4091 46.0968 20.9887 46.0968 20.1477C46.0968 19.1524 45.4045 18.3805 43.9673 18.3805H41.4949V25.1079ZM42.5135 24.2374V22.0825H44.02C44.8375 22.0825 45.3485 22.6081 45.3485 23.2487C45.3485 23.8137 44.9628 24.2374 43.9838 24.2374H42.5135ZM42.5135 21.2909V19.2444H43.9046C44.7123 19.2444 45.098 19.6681 45.098 20.2266C45.098 20.877 44.5639 21.2909 43.8783 21.2909H42.5135Z" fill="#2D2D2D"/>
<path d="M50.697 23.0154C50.7003 23.8728 50.0608 24.2801 49.507 24.2801C48.8971 24.2801 48.4752 23.8399 48.4752 23.1534V20.0623H47.4895V23.2717C47.4895 24.5232 48.1785 25.1736 49.151 25.1736C49.9124 25.1736 50.43 24.7729 50.664 24.2341H50.7168V25.1079H51.6859V20.0623H50.697V23.0154Z" fill="#2D2D2D"/>
<path d="M53.0103 25.1079H53.9959V20.0623H53.0103V25.1079ZM53.5081 19.2838C53.8476 19.2838 54.1311 19.021 54.1311 18.6991C54.1311 18.3772 53.8476 18.1111 53.5081 18.1111C53.1652 18.1111 52.885 18.3772 52.885 18.6991C52.885 19.021 53.1652 19.2838 53.5081 19.2838Z" fill="#2D2D2D"/>
<path d="M56.3076 18.3805H55.3219V25.1079H56.3076V18.3805Z" fill="#2D2D2D"/>
<path d="M59.9971 20.0623H58.9588V18.8535H57.9731V20.0623H57.2314V20.8507H57.9731V23.8301C57.9698 24.7466 58.672 25.19 59.4499 25.1736C59.7631 25.1703 59.9741 25.1112 60.0894 25.0685L59.9114 24.2571C59.8455 24.2703 59.7235 24.2998 59.5653 24.2998C59.2455 24.2998 58.9588 24.1947 58.9588 23.6264V20.8507H59.9971V20.0623Z" fill="#2D2D2D"/>
<path d="M63.8985 21.8395H60.9053V22.6902H63.8985V21.8395Z" fill="#2D2D2D"/>
<path d="M66.3099 25.1079H67.312L68.3405 21.465H68.4163L69.4448 25.1079H70.4502L71.9369 20.0623H70.9183L69.9327 23.7513H69.8832L68.8943 20.0623H67.8757L66.8801 23.7677H66.8307L65.8385 20.0623H64.8199L66.3099 25.1079Z" fill="#2D2D2D"/>
<path d="M72.8723 25.1079H73.8579V20.0623H72.8723V25.1079ZM73.3701 19.2838C73.7096 19.2838 73.9931 19.021 73.9931 18.6991C73.9931 18.3772 73.7096 18.1111 73.3701 18.1111C73.0272 18.1111 72.747 18.3772 72.747 18.6991C72.747 19.021 73.0272 19.2838 73.3701 19.2838Z" fill="#2D2D2D"/>
<path d="M77.5475 20.0623H76.5091V18.8535H75.5235V20.0623H74.7818V20.8507H75.5235V23.8301C75.5202 24.7466 76.2223 25.19 77.0003 25.1736C77.3134 25.1703 77.5244 25.1112 77.6398 25.0685L77.4618 24.2571C77.3959 24.2703 77.2739 24.2998 77.1157 24.2998C76.7959 24.2998 76.5091 24.1947 76.5091 23.6264V20.8507H77.5475V20.0623Z" fill="#2D2D2D"/>
<path d="M79.7322 22.1121C79.7322 21.3073 80.2432 20.8474 80.9453 20.8474C81.6244 20.8474 82.0299 21.2777 82.0299 22.0168V25.1079H83.0155V21.8986C83.0155 20.6405 82.3232 19.9966 81.2816 19.9966C80.4937 19.9966 80.019 20.3383 79.7817 20.8836H79.719V18.3805H78.7466V25.1079H79.7322V22.1121Z" fill="#2D2D2D"/>
<path d="M87.4369 25.1079L88.0566 23.3275H90.6938L91.3102 25.1079H92.3915L89.962 18.3805H88.7851L86.3556 25.1079H87.4369ZM88.3533 22.4734L89.3488 19.6024H89.4016L90.3971 22.4734H88.3533Z" fill="#2D2D2D"/>
<path d="M93.2757 27C94.09 27 94.6042 26.5763 94.8976 25.7813L96.9908 20.0722L95.9261 20.0623L94.6438 23.9779H94.591L93.3087 20.0623H92.2538L94.1064 25.1736L93.9845 25.5087C93.7339 26.1788 93.3812 26.2346 92.8406 26.0868L92.6033 26.8916C92.7219 26.9442 92.979 27 93.2757 27Z" fill="#2D2D2D"/>
<path d="M97.9196 25.1079H98.9053V22.0267C98.9053 21.3664 99.4162 20.8901 100.115 20.8901C100.319 20.8901 100.55 20.9263 100.629 20.9492V20.0098C100.53 19.9966 100.336 19.9868 100.211 19.9868C99.6173 19.9868 99.1096 20.3218 98.925 20.8638H98.8723V20.0623H97.9196V25.1079Z" fill="#2D2D2D"/>
<path d="M103.434 25.2097C104.861 25.2097 105.794 24.1684 105.794 22.6081C105.794 21.0379 104.861 19.9966 103.434 19.9966C102.006 19.9966 101.074 21.0379 101.074 22.6081C101.074 24.1684 102.006 25.2097 103.434 25.2097ZM103.437 24.3852C102.504 24.3852 102.069 23.5739 102.069 22.6048C102.069 21.6391 102.504 20.8179 103.437 20.8179C104.363 20.8179 104.799 21.6391 104.799 22.6048C104.799 23.5739 104.363 24.3852 103.437 24.3852Z" fill="#2D2D2D"/>
<path d="M113.771 18.3805V22.7231C113.771 23.6363 113.139 24.2933 112.11 24.2933C111.085 24.2933 110.449 23.6363 110.449 22.7231V18.3805H109.43V22.8052C109.43 24.2177 110.491 25.2196 112.11 25.2196C113.729 25.2196 114.793 24.2177 114.793 22.8052V18.3805H113.771Z" fill="#2D2D2D"/>
<path d="M117.293 18.3805H116.274V25.1079H117.293V18.3805Z" fill="#2D2D2D"/>
<defs>
<filter id="filter0_d" x="0" y="0" width="138" height="48" filterUnits="userSpaceOnUse" color-interpolation-filters="sRGB">
<feFlood flood-opacity="0" result="BackgroundImageFix"/>
<feColorMatrix in="SourceAlpha" type="matrix" values="0 0 0 0 0 0 0 0 0 0 0 0 0 0 0 0 0 0 127 0" result="hardAlpha"/>
<feOffset dy="2"/>
<feGaussianBlur stdDeviation="6.5"/>
<feComposite in2="hardAlpha" operator="out"/>
<feColorMatrix type="matrix" values="0 0 0 0 0 0 0 0 0 0 0 0 0 0 0 0 0 0 0.13 0"/>
<feBlend mode="normal" in2="BackgroundImageFix" result="effect1_dropShadow"/>
<feBlend mode="normal" in="SourceGraphic" in2="effect1_dropShadow" result="shape"/>
</filter>
</defs>
</svg>
