<svg width="164" height="37" viewBox="0 0 164 37" fill="none" xmlns="http://www.w3.org/2000/svg">
<path d="M65.1471 14.747H69.6611C69.5959 10.7557 66.3327 8 61.3726 8C56.4887 8 52.9101 10.7119 52.9319 14.7798C52.921 18.0822 55.2378 19.974 59.0014 20.8816L61.427 21.494C63.8527 22.0845 65.2014 22.7843 65.2123 24.2934C65.2014 25.9336 63.6569 27.049 61.2639 27.049C58.8165 27.049 57.0543 25.9118 56.9021 23.6701H52.3445C52.4641 28.5143 55.9122 31.0185 61.3182 31.0185C66.7569 31.0185 69.9548 28.405 69.9657 24.3043C69.9548 20.5754 67.1593 18.5962 63.287 17.7213L61.2856 17.2402C59.3495 16.7919 57.7287 16.0701 57.7614 14.4627C57.7614 13.0192 59.034 11.9585 61.34 11.9585C63.5916 11.9585 64.973 12.9864 65.1471 14.747Z" fill="#2D2D2D"/>
<path d="M81.9334 13.905H78.7899V9.88085H74.1562V13.905H71.8719V17.4042H74.1562V26.1523C74.1344 29.4438 76.3643 31.0732 79.7253 30.931C80.9218 30.8873 81.7703 30.6467 82.238 30.4936L81.5092 27.0271C81.2808 27.0709 80.7913 27.1802 80.3562 27.1802C79.4316 27.1802 78.7899 26.8303 78.7899 25.54V17.4042H81.9334V13.905Z" fill="#2D2D2D"/>
<path d="M89.7161 31.0185C92.1853 31.0185 93.7842 29.9359 94.6 28.3722H94.7306V30.7014H99.125V19.3725C99.125 15.3703 95.753 13.6863 92.033 13.6863C88.0301 13.6863 85.3978 15.6109 84.7561 18.6727L89.0417 19.0226C89.3572 17.9072 90.347 17.0871 92.0112 17.0871C93.5884 17.0871 94.4913 17.8854 94.4913 19.2632V19.3288C94.4913 20.4114 93.3491 20.5535 90.4449 20.8379C87.1382 21.144 84.1687 22.2594 84.1687 26.0102C84.1687 29.3345 86.5291 31.0185 89.7161 31.0185ZM91.0432 27.8035C89.6182 27.8035 88.5958 27.1365 88.5958 25.8571C88.5958 24.5449 89.6726 23.8997 91.3042 23.6701C92.3158 23.5279 93.9691 23.2873 94.5239 22.9155V24.698C94.5239 26.4585 93.0772 27.8035 91.0432 27.8035Z" fill="#2D2D2D"/>
<path d="M102.72 30.7014H107.354V21.1987C107.354 19.132 108.855 17.7104 110.9 17.7104C111.541 17.7104 112.422 17.8198 112.858 17.9619V13.8284C112.444 13.73 111.868 13.6644 111.4 13.6644C109.529 13.6644 107.995 14.7579 107.386 16.8356H107.212V13.905H102.72V30.7014Z" fill="#2D2D2D"/>
<path d="M124.978 13.905H121.834V9.88085H117.2V13.905H114.916V17.4042H117.2V26.1523C117.179 29.4438 119.408 31.0732 122.769 30.931C123.966 30.8873 124.814 30.6467 125.282 30.4936L124.553 27.0271C124.325 27.0709 123.835 27.1802 123.4 27.1802C122.476 27.1802 121.834 26.8303 121.834 25.54V17.4042H124.978V13.905Z" fill="#2D2D2D"/>
<path d="M138.71 23.5498C138.721 25.8024 137.187 26.9834 135.523 26.9834C133.772 26.9834 132.641 25.7477 132.63 23.7685V13.905H127.996V24.5995C128.007 28.5253 130.291 30.9201 133.652 30.9201C136.165 30.9201 137.97 29.6188 138.721 27.6505H138.895V30.7014H143.344V13.905H138.71V23.5498Z" fill="#2D2D2D"/>
<path d="M147.05 37H151.684V28.0113H151.825C152.467 29.411 153.87 30.9747 156.568 30.9747C160.375 30.9747 163.344 27.9457 163.344 22.325C163.344 16.5513 160.244 13.6863 156.579 13.6863C153.783 13.6863 152.445 15.3594 151.825 16.7262H151.619V13.905H147.05V37ZM151.586 22.3032C151.586 19.3069 152.848 17.3933 155.099 17.3933C157.395 17.3933 158.613 19.3944 158.613 22.3032C158.613 25.2338 157.373 27.2677 155.099 27.2677C152.87 27.2677 151.586 25.2994 151.586 22.3032Z" fill="#2D2D2D"/>
<rect x="0.896729" y="28.3646" width="34.6268" height="15.0551" rx="7.52757" transform="rotate(-55 0.896729 28.3646)" fill="#155BD5"/>
<rect opacity="0.6" x="24.4834" y="0.000106812" width="34.6268" height="15.0551" rx="7.52757" transform="rotate(55 24.4834 0.000106812)" fill="#155BD5"/>
</svg>
