<svg width="24" height="24" viewBox="0 0 24 24" fill="none" xmlns="http://www.w3.org/2000/svg">
<path fill-rule="evenodd" clip-rule="evenodd" d="M10.6054 19.4331C10.6623 19.4528 10.7204 19.4706 10.7794 19.4864L14.9613 20.607C16.295 20.9643 17.6658 20.1729 18.0232 18.8392L19.7618 12.3505C20.1192 11.0168 19.3277 9.64597 17.994 9.28861L13.8122 8.16809C13.003 7.95126 12.1801 8.15737 11.5782 8.65091C11.1881 8.97079 10.8908 9.4114 10.7503 9.93585L9.01167 16.4246C9.01149 16.4252 9.01131 16.4259 9.01113 16.4266C8.6709 17.7005 9.37852 19.0079 10.6054 19.4331ZM6.65173 18.5576C6.6002 18.3926 6.55711 18.2245 6.52283 18.054C6.00704 17.846 5.52812 17.5531 5.10752 17.1878C4.67844 16.8152 4.31006 16.3671 4.02514 15.8569C3.82749 15.5029 3.67 15.119 3.56028 14.7095L1.82164 8.2208C1.81674 8.20254 1.81196 8.18428 1.80728 8.16602C1.79812 8.13024 1.78937 8.09445 1.78103 8.05866C1.75473 7.94587 1.73253 7.83303 1.71426 7.72031C1.56579 6.80378 1.67944 5.89397 2.00605 5.07603C2.5709 3.66143 3.77271 2.52163 5.35717 2.09707L9.53903 0.976544C9.70574 0.931874 9.87274 0.89618 10.0395 0.869165C12.1307 0.530416 14.187 1.55625 15.1968 3.36271C15.2138 3.39309 15.2304 3.42369 15.2468 3.45451C15.4217 3.78334 15.5623 4.13698 15.6628 4.51208L16.1142 6.19671L18.6411 6.8738C21.3084 7.58851 22.8913 10.3302 22.1766 12.9975L20.438 19.4862C19.7233 22.1536 16.9816 23.7365 14.3143 23.0218L10.1324 21.9013C8.41387 21.4408 7.14549 20.1389 6.65173 18.5576ZM11.2277 3.33688C10.8907 3.28283 10.5371 3.2973 10.1861 3.39136L6.00422 4.51189C5.97167 4.52061 5.93945 4.52993 5.90755 4.53985C5.77609 4.58071 5.65026 4.63156 5.53069 4.69135C5.13498 4.8892 4.80777 5.18483 4.57143 5.53945C4.1866 6.1169 4.04273 6.85078 4.23645 7.57375L5.9751 14.0625C6.10661 14.5533 6.37536 14.9706 6.72901 15.2843L8.33551 9.28881C8.38018 9.1221 8.43276 8.95963 8.49275 8.80169C8.94841 7.6021 9.83122 6.66396 10.9164 6.11705C11.6607 5.74197 12.5001 5.5509 13.3622 5.5857L13.2479 5.15912C12.9846 4.17647 12.1711 3.48818 11.2277 3.33688Z" fill="black"/>
</svg>
