<svg width="20" height="20" viewBox="0 0 16 20" fill="currentColor" xmlns="http://www.w3.org/2000/svg">
<path fill-rule="evenodd" clip-rule="evenodd" d="M2 3.5H5.27273C5.54887 3.5 5.77273 3.72386 5.77273 4V7.27273C5.77273 7.54887 5.54887 7.77273 5.27273 7.77273H2C1.72386 7.77273 1.5 7.54887 1.5 7.27273V4C1.5 3.72386 1.72386 3.5 2 3.5ZM0 4C0 2.89543 0.895431 2 2 2H5.27273C6.3773 2 7.27273 2.89543 7.27273 4V7.27273C7.27273 8.3773 6.3773 9.27273 5.27273 9.27273H2C0.895433 9.27273 0 8.3773 0 7.27273V4ZM2 12.2273H5.27273C5.54887 12.2273 5.77273 12.4511 5.77273 12.7273V16C5.77273 16.2761 5.54887 16.5 5.27273 16.5H2C1.72386 16.5 1.5 16.2761 1.5 16V12.7273C1.5 12.4511 1.72386 12.2273 2 12.2273ZM0 12.7273C0 11.6227 0.895431 10.7273 2 10.7273H5.27273C6.3773 10.7273 7.27273 11.6227 7.27273 12.7273V16C7.27273 17.1046 6.3773 18 5.27273 18H2C0.895433 18 0 17.1046 0 16V12.7273ZM14 3.5H10.7273C10.4511 3.5 10.2273 3.72386 10.2273 4V7.27273C10.2273 7.54887 10.4511 7.77273 10.7273 7.77273H14C14.2761 7.77273 14.5 7.54887 14.5 7.27273V4C14.5 3.72386 14.2761 3.5 14 3.5ZM10.7273 2C9.6227 2 8.72727 2.89543 8.72727 4V7.27273C8.72727 8.3773 9.62271 9.27273 10.7273 9.27273H14C15.1046 9.27273 16 8.3773 16 7.27273V4C16 2.89543 15.1046 2 14 2H10.7273ZM10.7273 12.2273H14C14.2762 12.2273 14.5 12.4511 14.5 12.7273V16C14.5 16.2761 14.2762 16.5 14 16.5H10.7273C10.4512 16.5 10.2273 16.2761 10.2273 16V12.7273C10.2273 12.4511 10.4512 12.2273 10.7273 12.2273ZM8.72729 12.7273C8.72729 11.6227 9.62273 10.7273 10.7273 10.7273H14C15.1046 10.7273 16 11.6227 16 12.7273V16C16 17.1046 15.1046 18 14 18H10.7273C9.62273 18 8.72729 17.1046 8.72729 16V12.7273Z"></path>
</svg>