<svg width="20" height="20" viewBox="0 0 16 20" fill="currentColor" xmlns="http://www.w3.org/2000/svg">
<path fill-rule="evenodd" clip-rule="evenodd" d="M14.5 5.5L8.75 5.5V10.25L14.5 10.25V5.5ZM7.25 5.5L1.5 5.5V10.25L7.25 10.25V5.5ZM8.75 11.75L14.5 11.75V16C14.5 16.2761 14.2761 16.5 14 16.5H8.75V11.75ZM7.25 11.75L1.5 11.75V16C1.5 16.2761 1.72386 16.5 2 16.5H7.25V11.75ZM0 4C0 2.89543 0.895431 2 2 2H14C15.1046 2 16 2.89543 16 4V16C16 17.1046 15.1046 18 14 18H2C0.895431 18 0 17.1046 0 16V4Z"></path>
</svg>
